<svg version="1.1" id="Layer_1" xmlns="http://www.w3.org/2000/svg" xmlns:xlink="http://www.w3.org/1999/xlink" x="0px" y="0px"
	 width="100%" viewBox="0 0 512 512" enable-background="new 0 0 512 512" xml:space="preserve">
<path fill="#FFFFFF" opacity="1.000000" stroke="none" 
	d="
M224.000000,513.000000 
	C149.351425,513.000000 75.202858,513.000000 1.027141,513.000000 
	C1.027141,342.393066 1.027141,171.786133 1.027141,1.089595 
	C171.565262,1.089595 342.130585,1.089595 512.847961,1.089595 
	C512.847961,171.666565 512.847961,342.333252 512.847961,513.000000 
	C416.786102,513.000000 320.643036,513.000000 224.000000,513.000000 
M200.660812,353.998016 
	C201.107010,353.998688 201.553192,353.999359 202.092651,354.651642 
	C205.162201,355.477905 206.949234,354.866577 208.141876,351.432312 
	C209.482666,347.571381 210.781845,343.468292 210.874695,339.442291 
	C211.220291,324.458008 210.533875,309.435547 211.284317,294.480072 
	C211.769836,284.804474 204.374390,278.181732 195.271866,282.017609 
	C191.710648,283.518341 190.109146,281.849243 188.963760,279.809692 
	C189.530930,274.016876 190.731674,267.898865 189.005066,262.765472 
	C186.500702,255.319717 190.376419,247.201233 198.200516,246.999573 
	C203.891342,246.852890 208.037415,244.185715 208.846344,239.810349 
	C209.446075,236.566467 209.920639,233.248230 209.948868,229.958817 
	C210.068176,216.052795 210.118774,202.143417 209.914612,188.239380 
	C209.864441,184.822525 208.974503,181.363571 208.083405,178.027374 
	C206.984009,173.911255 202.591324,171.234192 198.348099,171.350983 
	C187.884979,171.638977 177.418610,171.824722 166.952469,171.979218 
	C161.209854,172.063995 155.458893,171.837967 149.723007,172.053268 
	C144.140610,172.262817 142.023529,174.644470 142.001450,180.064499 
	C141.992615,182.230118 142.000702,184.395813 141.999878,186.561462 
	C141.997040,193.913025 141.332550,194.858002 133.779160,194.882660 
	C130.167221,194.894455 127.563644,196.095596 125.788094,198.897522 
	C123.958359,201.784958 122.578125,204.957230 120.167511,208.005783 
	C118.778168,208.004456 117.388832,208.003143 115.900002,207.322342 
	C113.915474,204.527725 112.127510,201.558838 109.866837,199.009048 
	C108.664108,197.652527 106.694603,196.888062 104.935471,196.206924 
	C104.670563,196.104355 103.662766,197.920395 102.187393,199.007767 
	C99.875168,199.368317 97.562950,199.728867 94.481079,200.034241 
	C92.746521,199.296036 91.054474,198.406525 89.254593,197.900803 
	C88.615204,197.721161 87.713669,198.474503 86.717758,198.846252 
	C86.717758,198.846252 86.499496,198.838776 85.664253,198.787216 
	C85.127075,198.644638 84.589897,198.502045 83.692497,197.718811 
	C82.098999,197.483093 80.507004,197.055969 78.911758,197.043533 
	C70.281387,196.976242 61.650211,197.011612 52.284565,196.995270 
	C51.301472,196.330811 50.318378,195.666336 49.335285,195.001877 
	C50.023754,194.131363 50.569778,193.074432 51.424446,192.421448 
	C56.019409,188.910751 61.410915,190.081177 66.586792,189.995438 
	C68.665199,189.960999 71.208664,190.580399 71.846153,186.895264 
	C73.563240,186.955444 75.280327,187.015625 77.027412,187.865692 
	C79.547394,188.848038 82.163246,189.640991 84.564972,190.856903 
	C88.207436,192.700958 90.892479,190.871445 91.771149,187.992844 
	C92.855553,184.440277 93.636200,180.066681 92.503586,176.745010 
	C90.995750,172.322861 85.812546,172.472336 81.789368,172.319275 
	C73.277634,171.995468 64.746857,171.966873 56.228039,172.094238 
	C48.275196,172.213120 40.324295,172.635910 32.385601,173.133423 
	C31.859602,173.166382 31.444504,174.968964 30.861565,176.839035 
	C30.764658,179.224335 30.667751,181.609619 29.841463,184.017212 
	C28.561300,185.831604 26.647743,187.489929 26.153023,189.497833 
	C25.453358,192.337524 26.169661,195.503250 25.633904,198.410400 
	C23.904497,207.794495 23.817039,217.087967 26.011803,226.407883 
	C26.575844,228.803009 26.929638,231.302933 26.957258,233.759491 
	C27.075075,244.237595 27.593170,244.884933 37.830475,244.972717 
	C41.219471,245.001801 44.660381,245.467102 45.402134,249.174835 
	C46.295345,253.639633 46.467113,258.301819 46.449688,262.876648 
	C46.438522,265.807892 45.298836,268.716858 45.050079,271.668304 
	C44.124882,282.645477 44.179684,282.551514 33.069782,283.115875 
	C31.544149,283.193359 29.122028,284.561188 28.787079,285.788086 
	C27.490908,290.535889 26.352150,295.441925 26.101957,300.337433 
	C25.466661,312.768250 25.161730,325.224487 25.116270,337.671997 
	C25.101372,341.751160 25.858049,346.065582 30.735508,348.655518 
	C30.820724,349.104675 30.905941,349.553802 30.488195,350.440643 
	C31.952482,354.924164 36.025467,353.879517 39.011078,353.873199 
	C50.749645,353.848389 62.485645,353.220245 74.225922,353.061340 
	C78.326431,353.005829 82.433533,353.865692 86.543137,353.924927 
	C90.176262,353.977295 92.834106,351.838470 92.801208,348.237000 
	C92.772705,345.115570 95.185257,340.646362 89.860336,339.173981 
	C89.860336,339.173981 89.739128,339.309052 89.895813,338.473297 
	C90.088081,335.380096 88.074791,334.689819 85.696999,335.073914 
	C83.310112,335.459473 79.952660,334.853760 79.160980,339.135071 
	C75.798386,339.039032 72.435791,338.942993 69.017677,337.968079 
	C67.928329,337.335541 66.869476,336.333740 65.735626,336.240082 
	C65.235527,336.198792 64.583122,338.001495 63.154751,339.137878 
	C61.436401,339.081604 59.718052,339.025360 57.989265,338.226746 
	C57.220314,336.727142 56.451363,335.227539 55.309364,333.000427 
	C57.380360,333.000427 59.106739,332.920746 60.822918,333.019104 
	C63.409321,333.167358 66.009354,333.758240 68.566460,333.591522 
	C73.447556,333.273163 78.344749,332.783661 83.150269,331.901978 
	C85.530853,331.465179 87.722740,329.999939 90.835724,329.000122 
	C96.159294,329.475708 101.540375,329.613098 106.792938,330.506287 
	C114.658043,331.843658 119.758095,329.802307 123.556656,322.919861 
	C125.771667,318.906586 129.588623,319.882263 132.875198,320.194702 
	C134.336716,320.333618 136.411240,322.060852 136.855743,323.488159 
	C138.922241,330.123566 150.804001,333.866150 155.822845,328.927765 
	C158.462402,326.330536 160.105316,326.898163 162.512939,328.941040 
	C169.143280,334.567017 176.644882,332.513519 179.322998,324.495178 
	C180.500259,320.970459 182.905289,319.641510 186.602890,319.974213 
	C190.786728,320.350677 189.931656,323.370728 189.978821,325.896179 
	C190.049286,329.670074 190.678436,333.622864 186.648407,336.179657 
	C186.073227,336.544617 186.198669,338.013916 185.090820,339.139526 
	C181.393951,339.082855 177.697098,339.026184 173.976883,338.190918 
	C173.292160,337.497559 172.607437,336.804230 171.922699,336.110870 
	C171.256790,337.022980 170.590866,337.935120 169.139542,338.984344 
	C164.759796,338.980957 160.380035,338.977600 155.982712,338.222839 
	C154.188232,337.242676 151.600464,334.995270 150.751999,335.526398 
	C148.455399,336.964050 146.057114,339.324097 145.294724,341.807983 
	C144.599136,344.074280 143.311234,348.062134 148.365646,349.019135 
	C148.365646,349.019135 148.758530,349.023132 148.949051,349.453491 
	C148.949051,349.453491 149.033112,349.916534 149.021957,350.705566 
	C150.148788,351.712128 151.270462,353.577667 152.403275,353.584473 
	C159.267227,353.625671 166.133743,353.242554 173.060928,353.586670 
	C173.707275,353.724457 174.353638,353.862244 175.677307,353.996246 
	C176.451950,353.662140 177.226578,353.328003 178.775818,352.994812 
	C180.517059,352.664856 182.258316,352.334869 184.083694,352.646332 
	C184.725586,353.095581 185.367477,353.544861 186.839569,353.993469 
	C188.223236,353.993011 189.606888,353.992554 191.850845,353.997894 
	C193.569260,353.996826 195.287689,353.995758 197.752197,353.996002 
	C198.498596,353.994904 199.245010,353.993805 200.660812,353.998016 
M295.415375,248.501892 
	C295.415375,262.600769 295.415375,276.699646 295.415375,291.054138 
	C298.773987,291.054138 301.698395,291.054138 305.097717,291.054138 
	C305.097717,281.910706 305.097717,273.015320 305.097717,264.306061 
	C308.659119,264.306061 311.738861,264.306061 315.175537,264.306061 
	C315.175537,273.389130 315.175537,282.137512 315.175537,291.033875 
	C318.488464,291.033875 321.423126,291.033875 324.493774,291.033875 
	C324.493774,271.027649 324.493774,251.290833 324.493774,231.315979 
	C321.319794,231.315979 318.418549,231.315979 315.046387,231.315979 
	C315.046387,239.241364 315.046387,246.983856 315.046387,254.981964 
	C311.512787,254.981964 308.443024,254.981964 304.772919,254.981964 
	C304.772919,246.999146 304.772919,239.114075 304.772919,231.342865 
	C301.403473,231.342865 298.637421,231.342865 295.416779,231.342865 
	C295.416779,236.899078 295.416779,242.201080 295.415375,248.501892 
M269.159332,241.384918 
	C269.159332,238.098526 269.159332,234.812134 269.159332,231.453156 
	C265.810669,231.453156 262.949280,231.453156 260.208191,231.453156 
	C260.208191,251.528915 260.208191,271.241150 260.208191,291.053955 
	C263.297852,291.053955 266.061401,291.053955 268.773468,291.053955 
	C270.667297,282.738190 266.284607,273.459412 273.335175,265.540466 
	C275.328308,272.016907 277.117584,277.692291 278.819366,283.393768 
	C281.278137,291.631378 281.251312,291.643921 289.714752,291.164825 
	C289.986084,291.149475 290.240509,290.836182 290.715240,290.520569 
	C287.438843,279.661957 283.932434,268.803528 281.003937,257.791382 
	C280.285126,255.088364 280.790009,251.606979 281.889923,248.965515 
	C284.347687,243.063263 287.534790,237.464722 290.653748,231.289185 
	C287.083893,231.289185 284.306824,231.289185 281.409027,231.289185 
	C277.819153,238.707443 274.216736,246.151596 270.614349,253.595734 
	C270.129364,253.449097 269.644379,253.302460 269.159393,253.155823 
	C269.159393,249.549530 269.159393,245.943237 269.159332,241.384918 
M339.322449,281.841766 
	C342.192078,276.129608 346.747742,280.690155 350.463287,279.192108 
	C351.195435,283.562836 351.794556,287.139404 352.428131,290.921814 
	C355.464142,290.921814 358.386200,290.921814 361.723267,290.921814 
	C358.423615,270.851746 355.171204,251.069092 351.918060,231.281921 
	C347.488800,231.281921 343.367828,231.281921 339.131042,231.281921 
	C335.895416,251.208664 332.686676,270.969757 329.454102,290.877441 
	C332.801910,290.877441 335.386383,290.877441 338.178833,290.877441 
	C338.530182,288.008850 338.851410,285.386078 339.322449,281.841766 
M413.325775,250.931137 
	C412.265991,244.393265 411.206207,237.855377 410.146698,231.319199 
	C405.636444,231.319199 401.519562,231.319199 397.329712,231.319199 
	C394.083344,251.273117 390.871368,271.015747 387.639709,290.879395 
	C390.926941,290.879395 393.517944,290.879395 396.212372,290.879395 
	C396.879639,286.899170 397.505493,283.165863 398.111115,279.553345 
	C401.866364,279.553345 405.258881,279.553345 408.758270,279.553345 
	C409.408051,283.552612 410.008331,287.247131 410.593292,290.847443 
	C413.942291,290.847443 416.839844,290.847443 419.928467,290.847443 
	C417.754089,277.606476 415.633606,264.693726 413.325775,250.931137 
M452.278351,241.469406 
	C451.114868,235.243454 447.225647,231.761108 441.069183,231.312607 
	C435.801422,230.928833 430.483459,231.233200 425.158325,231.233200 
	C425.158325,251.319107 425.158325,271.167511 425.158325,290.846924 
	C428.305176,290.846924 431.061340,290.846924 434.271576,290.846924 
	C434.271576,282.658051 434.271576,274.767609 434.271576,266.701843 
	C435.893158,266.701843 437.053284,266.732178 438.211426,266.697083 
	C448.111877,266.397217 452.389801,262.230621 452.757477,252.262863 
	C452.879547,248.954285 452.541534,245.628769 452.278351,241.469406 
M457.982086,256.500000 
	C457.982086,267.980591 457.982086,279.461212 457.982086,291.186584 
	C466.751678,291.186584 475.243744,291.186584 483.639832,291.186584 
	C483.639832,288.258057 483.639832,285.835815 483.639832,282.861511 
	C478.130096,282.861511 472.903595,282.861511 467.589111,282.861511 
	C467.589111,276.338318 467.589111,270.374786 467.589111,263.997620 
	C471.816650,263.997620 475.919952,263.997620 480.163208,263.997620 
	C480.163208,260.870789 480.163208,258.173340 480.163208,254.930969 
	C475.687164,254.930969 471.629211,254.930969 467.567993,254.930969 
	C467.567993,249.735138 467.567993,245.090393 467.567993,239.912201 
	C472.933472,239.912201 478.182159,239.912201 483.517639,239.912201 
	C483.517639,236.675842 483.517639,233.989105 483.517639,231.345398 
	C474.860809,231.345398 466.600616,231.345398 457.985016,231.345398 
	C457.985016,239.573349 457.985016,247.536667 457.982086,256.500000 
M367.593262,231.097305 
	C365.159668,231.097305 362.726074,231.097305 360.346710,231.097305 
	C360.346710,234.342224 360.346710,236.920120 360.346710,240.106201 
	C363.726044,240.106201 366.774323,240.106201 370.218170,240.106201 
	C370.218170,257.469055 370.218170,274.210236 370.218170,290.914124 
	C373.434692,290.914124 376.225372,290.914124 379.346069,290.914124 
	C379.346069,273.920959 379.346069,257.151367 379.346069,240.107056 
	C382.744385,239.957321 385.826752,239.821503 388.951843,239.683792 
	C388.951843,236.663910 388.951843,233.962402 388.951843,231.097000 
	C381.887726,231.097000 375.228149,231.097000 367.593262,231.097305 
M235.102585,294.433960 
	C235.101654,293.601807 235.099976,292.769684 235.099869,291.937531 
	C235.097015,271.300720 235.125977,250.663742 235.029404,230.027374 
	C235.021988,228.440506 234.129883,226.857773 233.649002,225.273102 
	C233.140244,225.439499 232.631485,225.605881 232.122726,225.772263 
	C231.999222,226.564774 231.772263,227.356644 231.767227,228.149902 
	C231.616013,251.938751 231.485199,275.727722 231.360428,299.516693 
	C231.356079,300.344849 231.191284,301.320190 231.560730,301.962830 
	C231.972534,302.679108 232.850433,303.301117 233.649994,303.530853 
	C233.947800,303.616394 234.968155,302.508087 235.019730,301.890717 
	C235.199234,299.742035 235.098679,297.569885 235.102585,294.433960 
z"/>
<path fill="#FCFDFA" opacity="1.000000" stroke="none" 
	d="
M71.002747,187.073181 
	C71.208664,190.580399 68.665199,189.960999 66.586792,189.995438 
	C61.410915,190.081177 56.019409,188.910751 51.424446,192.421448 
	C50.569778,193.074432 50.023754,194.131363 49.335285,195.001877 
	C50.318378,195.666336 51.301472,196.330811 52.635124,197.328598 
	C52.979752,197.878998 52.973816,198.096069 52.579483,198.368591 
	C51.167854,199.211639 49.266781,199.984619 49.253403,200.788986 
	C49.060516,212.387604 49.121399,223.990417 49.121399,236.353897 
	C56.426090,236.353897 63.201000,236.353897 70.107986,236.713928 
	C75.498924,236.786957 80.757790,236.499969 86.307121,235.892426 
	C86.734283,223.706680 86.870972,211.841522 87.012611,199.681213 
	C86.988983,199.191345 86.960403,198.996643 86.931816,198.801926 
	C87.713669,198.474503 88.615204,197.721161 89.254593,197.900803 
	C91.054474,198.406525 92.746521,199.296036 94.823685,200.507492 
	C95.166298,203.720871 95.166298,206.460999 95.166298,209.464706 
	C98.140030,209.628342 100.574493,209.762299 103.065857,210.279938 
	C106.627556,216.053909 105.823219,218.002411 99.756027,219.093414 
	C99.103981,219.210678 98.573112,220.001892 97.593002,220.598892 
	C96.397430,223.150131 95.594902,225.582947 94.655212,228.116669 
	C94.635139,228.475800 94.752220,228.734039 95.000793,229.356461 
	C97.368149,233.620483 100.980560,231.336563 104.014954,232.160767 
	C104.051651,239.441238 104.045708,239.380798 96.933975,240.080002 
	C95.881401,240.183487 94.915581,241.169373 93.449127,241.791229 
	C86.111374,241.835480 79.234108,241.835480 72.350067,241.835480 
	C72.062698,244.054718 71.873573,245.515274 71.366318,247.059723 
	C70.365715,248.762909 69.683250,250.382217 68.580978,252.084030 
	C66.452950,252.150040 64.744705,252.133514 62.908253,251.826462 
	C61.919865,251.017502 61.059689,250.499069 60.132843,249.556396 
	C60.104652,247.417160 60.143135,245.702148 60.323498,243.891693 
	C60.361008,243.534180 60.256638,243.272125 59.887772,242.668427 
	C49.558025,240.441925 47.701557,242.158676 49.766514,251.729248 
	C51.792244,251.874954 53.888443,252.025711 56.054169,252.502960 
	C57.419830,254.221268 58.715965,255.613098 60.067066,257.402466 
	C60.024281,258.861542 59.926529,259.923035 59.531147,261.031860 
	C58.819645,261.692627 58.405773,262.306030 57.569641,262.998688 
	C54.164837,263.619659 49.684937,261.708801 49.301991,266.840759 
	C48.885899,272.416901 49.207603,278.048096 49.207603,284.634247 
	C53.273552,284.024231 56.729431,283.505737 60.326748,282.898621 
	C60.672112,282.480042 60.591717,282.216034 60.153419,281.554260 
	C60.119106,275.389893 60.158367,269.689270 60.371162,263.902313 
	C60.761032,263.657288 60.909115,263.449829 61.385101,263.111816 
	C62.854607,263.054413 63.927952,263.078796 64.992676,263.497650 
	C60.634560,271.775177 66.354851,281.647552 59.592690,289.211151 
	C58.111595,289.155518 57.035267,289.022644 55.793694,288.641418 
	C54.772976,288.539734 53.917507,288.686432 52.743324,289.003510 
	C51.707985,289.153900 50.991360,289.133911 49.988785,289.152771 
	C49.484608,289.488800 49.266384,289.785889 49.068932,290.542206 
	C49.013351,295.332184 48.937000,299.662994 48.529182,304.063751 
	C48.419762,305.424530 48.641800,306.715332 48.937405,308.468933 
	C49.034187,314.953064 49.057400,320.974396 48.691055,327.005371 
	C47.214935,328.732147 45.437016,330.391815 45.287804,332.186859 
	C45.190308,333.359741 47.485626,334.701843 48.651283,336.019379 
	C49.484104,336.960724 50.220875,337.987000 50.569103,339.059723 
	C48.092670,339.086914 46.047630,339.029755 44.001793,338.588989 
	C43.211048,336.788116 42.421108,335.370819 41.500565,333.544678 
	C41.438473,331.429413 41.506973,329.722992 41.876320,327.897400 
	C42.678440,326.430786 43.621944,325.078949 43.608437,323.736755 
	C43.527496,315.691193 43.329151,307.642944 42.944534,299.606384 
	C42.806301,296.717926 42.041901,293.859436 41.436134,290.587402 
	C40.353962,285.885529 38.713673,285.357910 30.805628,287.069458 
	C30.805628,289.415710 30.816584,291.871277 30.803875,294.326721 
	C30.711271,312.219543 30.613907,330.112335 30.518047,348.005157 
	C25.858049,346.065582 25.101372,341.751160 25.116270,337.671997 
	C25.161730,325.224487 25.466661,312.768250 26.101957,300.337433 
	C26.352150,295.441925 27.490908,290.535889 28.787079,285.788086 
	C29.122028,284.561188 31.544149,283.193359 33.069782,283.115875 
	C44.179684,282.551514 44.124882,282.645477 45.050079,271.668304 
	C45.298836,268.716858 46.438522,265.807892 46.449688,262.876648 
	C46.467113,258.301819 46.295345,253.639633 45.402134,249.174835 
	C44.660381,245.467102 41.219471,245.001801 37.830475,244.972717 
	C27.593170,244.884933 27.075075,244.237595 26.957258,233.759491 
	C26.929638,231.302933 26.575844,228.803009 26.011803,226.407883 
	C23.817039,217.087967 23.904497,207.794495 25.633904,198.410400 
	C26.169661,195.503250 25.453358,192.337524 26.153023,189.497833 
	C26.647743,187.489929 28.561300,185.831604 30.303154,184.466064 
	C30.764845,202.990448 30.764845,221.065979 30.764845,239.436874 
	C34.188728,239.611633 36.974506,239.753815 40.010956,239.886932 
	C40.600479,239.784882 40.857574,239.586227 41.084526,238.797607 
	C41.269703,221.893631 41.403263,205.473923 41.843292,189.031906 
	C42.767490,188.348206 43.385216,187.686813 44.458138,186.949402 
	C53.609806,186.939972 62.306274,187.006577 71.002747,187.073181 
z"/>
<path fill="#FEFEFB" opacity="1.000000" stroke="none" 
	d="
M121.001221,208.004883 
	C122.578125,204.957230 123.958359,201.784958 125.788094,198.897522 
	C127.563644,196.095596 130.167221,194.894455 133.779160,194.882660 
	C141.332550,194.858002 141.997040,193.913025 141.999878,186.561462 
	C142.000702,184.395813 141.992615,182.230118 142.001450,180.064499 
	C142.023529,174.644470 144.140610,172.262817 149.723007,172.053268 
	C155.458893,171.837967 161.209854,172.063995 166.952469,171.979218 
	C177.418610,171.824722 187.884979,171.638977 198.348099,171.350983 
	C202.591324,171.234192 206.984009,173.911255 208.083405,178.027374 
	C208.974503,181.363571 209.864441,184.822525 209.914612,188.239380 
	C210.118774,202.143417 210.068176,216.052795 209.948868,229.958817 
	C209.920639,233.248230 209.446075,236.566467 208.846344,239.810349 
	C208.037415,244.185715 203.891342,246.852890 198.200516,246.999573 
	C190.376419,247.201233 186.500702,255.319717 189.005066,262.765472 
	C190.731674,267.898865 189.530930,274.016876 188.963760,279.809692 
	C190.109146,281.849243 191.710648,283.518341 195.271866,282.017609 
	C204.374390,278.181732 211.769836,284.804474 211.284317,294.480072 
	C210.533875,309.435547 211.220291,324.458008 210.874695,339.442291 
	C210.781845,343.468292 209.482666,347.571381 208.141876,351.432312 
	C206.949234,354.866577 205.162201,355.477905 202.366730,354.284363 
	C203.094070,353.278473 203.547348,352.639862 204.001556,351.677734 
	C204.003510,350.923462 204.004486,350.492676 204.183228,349.917450 
	C204.360992,349.773010 204.794022,349.623535 204.966095,349.905823 
	C205.603775,350.154999 206.069366,350.121887 206.534958,350.088745 
	C206.060852,349.638367 205.586746,349.187988 205.079056,348.354553 
	C205.077103,346.691193 205.108719,345.410858 205.570038,343.973938 
	C206.944458,340.728729 208.756393,337.538910 204.904510,334.670227 
	C204.882339,333.891602 204.927017,333.444794 205.370911,332.910461 
	C206.175430,332.003113 206.929031,331.185303 206.933914,330.363037 
	C207.010986,317.336700 207.041183,304.309296 206.906296,291.283966 
	C206.894897,290.183929 205.630875,289.096802 204.745453,287.691956 
	C200.901352,286.617767 197.077820,282.660278 193.415527,287.995056 
	C190.657623,287.012207 188.270126,286.029999 185.423279,285.057007 
	C178.977112,285.008453 172.990311,284.950745 167.001511,284.502319 
	C167.347122,280.693329 167.694733,277.275085 168.476868,273.696106 
	C174.585342,273.348541 180.259262,273.161652 186.255951,272.943756 
	C187.251892,270.554901 189.844620,268.073120 186.043640,265.652710 
	C185.293045,264.474854 184.630920,263.642914 183.756836,262.603424 
	C183.157440,262.355743 182.770004,262.315643 182.041779,262.470947 
	C180.408142,262.667633 179.115311,262.668945 177.879608,262.191772 
	C178.041946,257.461304 178.048233,253.180038 184.323380,253.813919 
	C184.786362,253.860687 185.389664,252.518265 185.922333,251.419617 
	C185.987854,249.681564 186.058807,248.345581 186.471893,246.963150 
	C190.987762,243.182526 190.860123,242.529053 185.496521,239.368179 
	C186.878860,238.957397 188.229477,239.161102 189.585190,239.321762 
	C191.089355,239.500046 192.598190,239.638977 194.555634,239.844482 
	C198.094315,239.893906 201.182327,239.893906 204.963745,239.893906 
	C204.963745,236.203278 204.963745,233.100327 205.363861,229.911163 
	C206.174377,228.829041 206.936935,227.835007 206.942261,226.836914 
	C207.019638,212.338959 207.040329,197.840073 206.908005,183.342926 
	C206.897781,182.223755 205.640701,181.115967 204.885925,179.594299 
	C205.084137,175.459641 202.457932,175.949142 200.137299,175.950226 
	C183.337189,175.958054 166.535324,176.089493 149.738144,175.868668 
	C145.277451,175.810013 144.072678,177.360550 144.027451,181.641602 
	C143.981812,185.963318 145.606323,186.961685 149.585861,186.917587 
	C162.054291,186.779404 174.526413,186.976547 187.035614,187.396408 
	C188.134583,189.355255 189.372467,190.873657 190.219681,192.585403 
	C192.150833,196.487106 190.584305,199.749771 186.254791,200.613068 
	C185.427338,199.641983 184.722198,199.025299 183.851929,198.076965 
	C173.424820,197.571030 163.162949,197.386993 152.900314,197.270370 
	C152.599945,197.266953 152.291489,197.974579 151.619171,198.501282 
	C150.328354,199.086929 149.405182,199.521957 148.127335,199.982773 
	C144.386688,200.638062 145.013519,203.050018 145.256271,205.425735 
	C145.598557,208.775421 145.773071,212.142883 145.987396,215.504791 
	C146.191238,218.702515 146.539352,221.906265 146.480637,225.101059 
	C146.426407,228.051834 145.916687,230.994247 145.562088,234.373871 
	C143.170532,233.302032 141.696640,232.641479 139.931549,231.660553 
	C130.392395,230.416733 128.558319,229.761063 127.901970,237.980331 
	C126.697029,239.191330 125.841896,240.365768 124.626549,241.649551 
	C123.521500,241.709930 122.776672,241.660980 122.014618,241.254730 
	C121.223045,238.820038 121.655273,235.765854 117.954453,235.573151 
	C117.918533,233.433319 117.958046,231.716904 118.366188,229.926849 
	C120.490959,226.583389 122.247108,223.313599 124.464081,219.970581 
	C129.848557,219.890823 134.772202,219.884277 140.119812,219.850479 
	C140.983047,219.382706 141.796356,218.949219 141.804779,218.500626 
	C141.910965,212.847519 141.946518,207.191406 141.845596,201.538818 
	C141.836197,201.012863 140.773682,200.505722 140.044403,199.695374 
	C139.597504,199.067947 139.306335,198.735001 138.873962,198.095123 
	C136.483810,197.979553 134.234848,198.170898 131.623215,198.525650 
	C130.494598,200.791077 129.728668,202.893097 128.582275,205.006744 
	C125.801613,206.013870 123.401421,207.009384 121.001221,208.004883 
z"/>
<path fill="#111110" opacity="1.000000" stroke="none" 
	d="
M295.416077,248.002487 
	C295.416779,242.201080 295.416779,236.899078 295.416779,231.342865 
	C298.637421,231.342865 301.403473,231.342865 304.772919,231.342865 
	C304.772919,239.114075 304.772919,246.999146 304.772919,254.981964 
	C308.443024,254.981964 311.512787,254.981964 315.046387,254.981964 
	C315.046387,246.983856 315.046387,239.241364 315.046387,231.315979 
	C318.418549,231.315979 321.319794,231.315979 324.493774,231.315979 
	C324.493774,251.290833 324.493774,271.027649 324.493774,291.033875 
	C321.423126,291.033875 318.488464,291.033875 315.175537,291.033875 
	C315.175537,282.137512 315.175537,273.389130 315.175537,264.306061 
	C311.738861,264.306061 308.659119,264.306061 305.097717,264.306061 
	C305.097717,273.015320 305.097717,281.910706 305.097717,291.054138 
	C301.698395,291.054138 298.773987,291.054138 295.415375,291.054138 
	C295.415375,276.699646 295.415375,262.600769 295.416077,248.002487 
z"/>
<path fill="#080807" opacity="1.000000" stroke="none" 
	d="
M269.159363,241.860931 
	C269.159393,245.943237 269.159393,249.549530 269.159393,253.155823 
	C269.644379,253.302460 270.129364,253.449097 270.614349,253.595734 
	C274.216736,246.151596 277.819153,238.707443 281.409027,231.289185 
	C284.306824,231.289185 287.083893,231.289185 290.653748,231.289185 
	C287.534790,237.464722 284.347687,243.063263 281.889923,248.965515 
	C280.790009,251.606979 280.285126,255.088364 281.003937,257.791382 
	C283.932434,268.803528 287.438843,279.661957 290.715240,290.520569 
	C290.240509,290.836182 289.986084,291.149475 289.714752,291.164825 
	C281.251312,291.643921 281.278137,291.631378 278.819366,283.393768 
	C277.117584,277.692291 275.328308,272.016907 273.335175,265.540466 
	C266.284607,273.459412 270.667297,282.738190 268.773468,291.053955 
	C266.061401,291.053955 263.297852,291.053955 260.208191,291.053955 
	C260.208191,271.241150 260.208191,251.528915 260.208191,231.453156 
	C262.949280,231.453156 265.810669,231.453156 269.159332,231.453156 
	C269.159332,234.812134 269.159332,238.098526 269.159363,241.860931 
z"/>
<path fill="#6AB970" opacity="1.000000" stroke="none" 
	d="
M204.971710,332.997955 
	C204.927017,333.444794 204.882339,333.891602 204.820374,335.099518 
	C204.915497,338.617249 205.027924,341.373901 205.140335,344.130554 
	C205.108719,345.410858 205.077103,346.691193 204.967163,348.472931 
	C204.780289,349.179474 204.748672,349.395874 204.794022,349.623535 
	C204.794022,349.623535 204.360992,349.773010 203.744858,349.886902 
	C201.080353,350.075134 199.031967,350.149475 196.561401,350.151825 
	C194.430374,350.127625 192.721558,350.175446 190.555939,350.136230 
	C186.060898,350.106689 182.022644,350.164185 177.522430,350.145935 
	C167.718002,350.019012 158.375565,349.967773 149.033112,349.916534 
	C149.033112,349.916534 148.949051,349.453491 148.897888,348.989136 
	C148.800522,348.362549 148.754318,348.200317 148.789124,347.590759 
	C148.990479,344.611542 149.110794,342.079681 149.235474,339.456177 
	C151.823257,339.271790 153.911774,339.122986 156.000290,338.974182 
	C160.380035,338.977600 164.759796,338.980957 169.843170,339.044891 
	C171.697952,339.060120 172.849091,339.014832 174.000229,338.969543 
	C177.697098,339.026184 181.393951,339.082855 185.967224,339.143890 
	C188.561584,339.089569 190.279556,339.030884 192.403046,338.994751 
	C193.131989,337.008759 193.455383,335.000214 193.856293,332.529480 
	C193.884521,317.376740 193.835236,302.686188 193.785965,287.995667 
	C197.077820,282.660278 200.901352,286.617767 204.664093,288.154724 
	C204.847946,303.618774 204.909836,318.308380 204.971710,332.997955 
z"/>
<path fill="#69B86D" opacity="1.000000" stroke="none" 
	d="
M71.424454,186.984222 
	C62.306274,187.006577 53.609806,186.939972 44.102802,186.866196 
	C42.707123,187.590759 42.121975,188.322495 41.536827,189.054214 
	C41.403263,205.473923 41.269703,221.893631 40.844330,238.829712 
	C40.231548,239.447388 39.967468,239.630692 39.760284,239.895996 
	C36.974506,239.753815 34.188728,239.611633 30.764845,239.436874 
	C30.764845,221.065979 30.764845,202.990448 30.667845,184.454926 
	C30.667751,181.609619 30.764658,179.224335 31.389874,176.384430 
	C49.702900,175.943451 67.487633,175.946533 85.272324,175.977676 
	C90.039429,175.986023 91.695587,177.988998 90.886620,182.725281 
	C90.697105,183.834824 90.293770,184.907867 89.790581,186.140106 
	C89.311295,186.458908 89.081917,186.687210 88.676422,186.922791 
	C88.448631,186.878113 87.998756,186.992798 87.604080,186.906418 
	C86.139320,186.883789 85.069244,186.947540 83.565506,186.939423 
	C81.087029,186.936981 79.042221,187.006393 76.997414,187.075806 
	C75.280327,187.015625 73.563240,186.955444 71.424454,186.984222 
z"/>
<path fill="#67B86C" opacity="1.000000" stroke="none" 
	d="
M30.626778,348.330322 
	C30.613907,330.112335 30.711271,312.219543 30.803875,294.326721 
	C30.816584,291.871277 30.805628,289.415710 30.805628,287.069458 
	C38.713673,285.357910 40.353962,285.885529 41.296799,291.038696 
	C41.381557,303.932098 41.478519,315.974335 41.575478,328.016602 
	C41.506973,329.722992 41.438473,331.429413 41.358162,333.930176 
	C41.532993,336.577484 40.072758,339.460175 44.002594,338.972595 
	C46.047630,339.029755 48.092670,339.086914 51.000694,339.144196 
	C53.909023,339.085938 55.954365,339.027527 57.999702,338.969116 
	C59.718052,339.025360 61.436401,339.081604 63.943420,339.140747 
	C66.179131,339.044739 67.626160,338.945831 69.073196,338.846985 
	C72.435791,338.942993 75.798386,339.039032 80.023422,339.138550 
	C83.836952,339.197723 86.788040,339.253387 89.739128,339.309052 
	C89.739128,339.309052 89.860336,339.173981 89.819550,339.647064 
	C89.778755,343.227722 89.778755,346.335266 89.778755,350.002960 
	C69.837189,350.002960 50.414173,350.002960 30.991158,350.002960 
	C30.905941,349.553802 30.820724,349.104675 30.626778,348.330322 
z"/>
<path fill="#0A0A0A" opacity="1.000000" stroke="none" 
	d="
M339.247559,282.302551 
	C338.851410,285.386078 338.530182,288.008850 338.178833,290.877441 
	C335.386383,290.877441 332.801910,290.877441 329.454102,290.877441 
	C332.686676,270.969757 335.895416,251.208664 339.131042,231.281921 
	C343.367828,231.281921 347.488800,231.281921 351.918060,231.281921 
	C355.171204,251.069092 358.423615,270.851746 361.723267,290.921814 
	C358.386200,290.921814 355.464142,290.921814 352.428131,290.921814 
	C351.794556,287.139404 351.195435,283.562836 350.463287,279.192108 
	C346.747742,280.690155 342.192078,276.129608 339.247559,282.302551 
M343.725891,271.042236 
	C345.500519,271.042236 347.275116,271.042236 349.578613,271.042236 
	C348.301910,262.555756 347.127075,254.746384 345.952240,246.936996 
	C345.375916,246.997375 344.799622,247.057739 344.223297,247.118103 
	C343.187042,254.331711 342.098114,261.538788 341.201294,268.769684 
	C341.117584,269.444794 342.249573,270.270660 343.725891,271.042236 
z"/>
<path fill="#0A0A0A" opacity="1.000000" stroke="none" 
	d="
M413.419434,251.356049 
	C415.633606,264.693726 417.754089,277.606476 419.928467,290.847443 
	C416.839844,290.847443 413.942291,290.847443 410.593292,290.847443 
	C410.008331,287.247131 409.408051,283.552612 408.758270,279.553345 
	C405.258881,279.553345 401.866364,279.553345 398.111115,279.553345 
	C397.505493,283.165863 396.879639,286.899170 396.212372,290.879395 
	C393.517944,290.879395 390.926941,290.879395 387.639709,290.879395 
	C390.871368,271.015747 394.083344,251.273117 397.329712,231.319199 
	C401.519562,231.319199 405.636444,231.319199 410.146698,231.319199 
	C411.206207,237.855377 412.265991,244.393265 413.419434,251.356049 
M402.305603,246.368134 
	C401.296173,254.390182 400.286743,262.412231 399.239349,270.736145 
	C402.161835,270.736145 404.869873,270.736145 407.535461,270.736145 
	C407.300201,268.632111 407.224884,266.799255 406.873138,265.021118 
	C405.607574,258.623413 404.248688,252.244217 402.305603,246.368134 
z"/>
<path fill="#FCFDFA" opacity="1.000000" stroke="none" 
	d="
M191.997528,338.972229 
	C190.279556,339.030884 188.561584,339.089569 186.421722,339.060181 
	C186.198669,338.013916 186.073227,336.544617 186.648407,336.179657 
	C190.678436,333.622864 190.049286,329.670074 189.978821,325.896179 
	C189.931656,323.370728 190.786728,320.350677 186.602890,319.974213 
	C182.905289,319.641510 180.500259,320.970459 179.322998,324.495178 
	C176.644882,332.513519 169.143280,334.567017 162.512939,328.941040 
	C160.105316,326.898163 158.462402,326.330536 155.822845,328.927765 
	C150.804001,333.866150 138.922241,330.123566 136.855743,323.488159 
	C136.411240,322.060852 134.336716,320.333618 132.875198,320.194702 
	C129.588623,319.882263 125.771667,318.906586 123.556656,322.919861 
	C119.758095,329.802307 114.658043,331.843658 106.792938,330.506287 
	C101.540375,329.613098 96.159294,329.475708 90.360840,328.650085 
	C88.896088,327.856445 87.906219,327.412842 86.908020,326.503235 
	C86.983673,319.690826 87.067665,313.344482 87.500671,307.006104 
	C90.161812,307.341431 92.473938,307.668762 94.847107,308.460693 
	C94.828949,314.297516 94.749748,319.669739 94.552673,325.139771 
	C94.294350,325.557922 94.390724,325.801636 94.867615,326.377228 
	C96.137108,327.182281 97.253716,327.887085 98.390305,327.920959 
	C102.844025,328.053680 107.333717,327.653168 111.753723,328.061066 
	C116.563820,328.504913 118.444969,326.623871 118.363434,321.943970 
	C119.470360,320.228851 120.232048,318.571106 121.457977,316.840210 
	C127.948402,316.846649 133.974594,316.926208 140.119141,317.232178 
	C140.518951,317.642029 140.800400,317.825470 141.162994,318.457886 
	C141.244141,321.829071 141.244141,324.751282 141.244141,328.004120 
	C143.637970,328.004120 145.302734,327.809265 146.906036,328.040497 
	C151.804596,328.747009 153.321579,326.619385 152.992264,321.902618 
	C152.670715,317.297241 153.027008,312.644531 153.374603,307.977783 
	C154.121765,307.399902 154.580078,306.856842 155.477478,306.241699 
	C158.564529,305.988800 161.212448,305.808014 163.911179,306.009705 
	C164.000061,306.646545 164.038147,306.900940 164.031326,307.507935 
	C163.868622,308.560455 163.750793,309.260406 163.342560,310.035156 
	C163.235367,311.087524 163.418610,312.065094 163.677383,313.500122 
	C163.752914,318.199646 163.752914,322.441711 163.752914,326.841064 
	C167.830688,326.841064 171.308365,326.841064 174.883667,326.841064 
	C175.016846,323.948151 175.130020,321.489929 175.577362,318.979187 
	C177.284515,318.249451 178.657486,317.572235 180.451782,316.831390 
	C183.343048,316.582092 186.357269,317.531586 186.237625,313.141022 
	C185.982498,303.780334 185.985443,294.412659 185.882629,285.047821 
	C188.270126,286.029999 190.657623,287.012207 193.415527,287.995056 
	C193.835236,302.686188 193.884521,317.376740 193.501251,332.626709 
	C192.711655,335.114807 192.354584,337.043518 191.997528,338.972229 
z"/>
<path fill="#69B96C" opacity="1.000000" stroke="none" 
	d="
M69.975914,236.353882 
	C63.201000,236.353897 56.426090,236.353897 49.121399,236.353897 
	C49.121399,223.990417 49.060516,212.387604 49.253403,200.788986 
	C49.266781,199.984619 51.167854,199.211639 52.938347,198.557526 
	C63.807983,198.580490 73.930359,198.469971 84.052727,198.359451 
	C84.589897,198.502045 85.127075,198.644638 86.061798,199.037628 
	C86.551140,199.589935 86.733910,199.819382 87.007660,199.976364 
	C86.870972,211.841522 86.734283,223.706680 85.842316,235.832977 
	C80.049988,236.180710 75.012955,236.267303 69.975914,236.353882 
M63.693554,226.796906 
	C67.956940,226.796906 72.220322,226.796906 76.621872,226.796906 
	C76.621872,220.256729 76.621872,214.397461 76.621872,208.460907 
	C70.535561,208.460907 64.847046,208.460907 58.820480,208.460907 
	C58.820480,213.713013 58.957222,218.520721 58.771362,223.315948 
	C58.651783,226.401154 60.236797,226.997406 63.693554,226.796906 
z"/>
<path fill="#0A0A0A" opacity="1.000000" stroke="none" 
	d="
M452.346100,241.890198 
	C452.541534,245.628769 452.879547,248.954285 452.757477,252.262863 
	C452.389801,262.230621 448.111877,266.397217 438.211426,266.697083 
	C437.053284,266.732178 435.893158,266.701843 434.271576,266.701843 
	C434.271576,274.767609 434.271576,282.658051 434.271576,290.846924 
	C431.061340,290.846924 428.305176,290.846924 425.158325,290.846924 
	C425.158325,271.167511 425.158325,251.319107 425.158325,231.233200 
	C430.483459,231.233200 435.801422,230.928833 441.069183,231.312607 
	C447.225647,231.761108 451.114868,235.243454 452.346100,241.890198 
M437.326355,239.871872 
	C436.214081,240.607437 434.182129,241.292435 434.138458,242.086731 
	C433.850159,247.329071 433.989532,252.594910 433.989532,257.800934 
	C442.444519,258.525421 443.165833,257.888824 443.220215,250.090988 
	C443.231781,248.433960 443.161194,246.776047 443.187195,245.119476 
	C443.240112,241.745285 441.937653,239.689667 437.326355,239.871872 
z"/>
<path fill="#0C0B0B" opacity="1.000000" stroke="none" 
	d="
M457.983551,256.000000 
	C457.985016,247.536667 457.985016,239.573349 457.985016,231.345398 
	C466.600616,231.345398 474.860809,231.345398 483.517639,231.345398 
	C483.517639,233.989105 483.517639,236.675842 483.517639,239.912201 
	C478.182159,239.912201 472.933472,239.912201 467.567993,239.912201 
	C467.567993,245.090393 467.567993,249.735138 467.567993,254.930969 
	C471.629211,254.930969 475.687164,254.930969 480.163208,254.930969 
	C480.163208,258.173340 480.163208,260.870789 480.163208,263.997620 
	C475.919952,263.997620 471.816650,263.997620 467.589111,263.997620 
	C467.589111,270.374786 467.589111,276.338318 467.589111,282.861511 
	C472.903595,282.861511 478.130096,282.861511 483.639832,282.861511 
	C483.639832,285.835815 483.639832,288.258057 483.639832,291.186584 
	C475.243744,291.186584 466.751678,291.186584 457.982086,291.186584 
	C457.982086,279.461212 457.982086,267.980591 457.983551,256.000000 
z"/>
<path fill="#080807" opacity="1.000000" stroke="none" 
	d="
M368.080933,231.097153 
	C375.228149,231.097000 381.887726,231.097000 388.951843,231.097000 
	C388.951843,233.962402 388.951843,236.663910 388.951843,239.683792 
	C385.826752,239.821503 382.744385,239.957321 379.346069,240.107056 
	C379.346069,257.151367 379.346069,273.920959 379.346069,290.914124 
	C376.225372,290.914124 373.434692,290.914124 370.218170,290.914124 
	C370.218170,274.210236 370.218170,257.469055 370.218170,240.106201 
	C366.774323,240.106201 363.726044,240.106201 360.346710,240.106201 
	C360.346710,236.920120 360.346710,234.342224 360.346710,231.097305 
	C362.726074,231.097305 365.159668,231.097305 368.080933,231.097153 
z"/>
<path fill="#76B579" opacity="1.000000" stroke="none" 
	d="
M235.103592,294.920319 
	C235.098679,297.569885 235.199234,299.742035 235.019730,301.890717 
	C234.968155,302.508087 233.947800,303.616394 233.649994,303.530853 
	C232.850433,303.301117 231.972534,302.679108 231.560730,301.962830 
	C231.191284,301.320190 231.356079,300.344849 231.360428,299.516693 
	C231.485199,275.727722 231.616013,251.938751 231.767227,228.149902 
	C231.772263,227.356644 231.999222,226.564774 232.122726,225.772263 
	C232.631485,225.605881 233.140244,225.439499 233.649002,225.273102 
	C234.129883,226.857773 235.021988,228.440506 235.029404,230.027374 
	C235.125977,250.663742 235.097015,271.300720 235.099869,291.937531 
	C235.099976,292.769684 235.101654,293.601807 235.103592,294.920319 
z"/>
<path fill="#FCFDFA" opacity="1.000000" stroke="none" 
	d="
M89.988800,185.997696 
	C90.293770,184.907867 90.697105,183.834824 90.886620,182.725281 
	C91.695587,177.988998 90.039429,175.986023 85.272324,175.977676 
	C67.487633,175.946533 49.702900,175.943451 31.448002,175.939148 
	C31.444504,174.968964 31.859602,173.166382 32.385601,173.133423 
	C40.324295,172.635910 48.275196,172.213120 56.228039,172.094238 
	C64.746857,171.966873 73.277634,171.995468 81.789368,172.319275 
	C85.812546,172.472336 90.995750,172.322861 92.503586,176.745010 
	C93.636200,180.066681 92.855553,184.440277 91.771149,187.992844 
	C90.892479,190.871445 88.207436,192.700958 84.564972,190.856903 
	C82.163246,189.640991 79.547394,188.848038 77.012413,187.470764 
	C79.042221,187.006393 81.087029,186.936981 83.625214,187.286163 
	C85.814995,189.663834 87.173538,189.781601 87.998756,186.992798 
	C87.998756,186.992798 88.448631,186.878113 88.926804,186.851074 
	C89.599579,186.548569 89.794189,186.273132 89.988800,185.997696 
z"/>
<path fill="#FCFDFA" opacity="1.000000" stroke="none" 
	d="
M30.739677,350.221802 
	C50.414173,350.002960 69.837189,350.002960 89.778755,350.002960 
	C89.778755,346.335266 89.778755,343.227722 89.736511,339.683655 
	C95.185257,340.646362 92.772705,345.115570 92.801208,348.237000 
	C92.834106,351.838470 90.176262,353.977295 86.543137,353.924927 
	C82.433533,353.865692 78.326431,353.005829 74.225922,353.061340 
	C62.485645,353.220245 50.749645,353.848389 39.011078,353.873199 
	C36.025467,353.879517 31.952482,354.924164 30.739677,350.221802 
z"/>
<path fill="#FEFEFB" opacity="1.000000" stroke="none" 
	d="
M86.916351,326.969269 
	C87.906219,327.412842 88.896088,327.856445 89.942978,328.650024 
	C87.722740,329.999939 85.530853,331.465179 83.150269,331.901978 
	C78.344749,332.783661 73.447556,333.273163 68.566460,333.591522 
	C66.009354,333.758240 63.409321,333.167358 60.822918,333.019104 
	C59.106739,332.920746 57.380360,333.000427 55.309364,333.000427 
	C56.451363,335.227539 57.220314,336.727142 57.994484,338.597961 
	C55.954365,339.027527 53.909023,339.085938 51.432091,339.059875 
	C50.220875,337.987000 49.484104,336.960724 48.651283,336.019379 
	C47.485626,334.701843 45.190308,333.359741 45.287804,332.186859 
	C45.437016,330.391815 47.214935,328.732147 48.765156,327.070709 
	C49.228813,327.126434 49.222145,327.324188 49.189720,327.728943 
	C49.766983,328.720703 50.376667,329.307709 50.986347,329.894714 
	C51.658009,329.181122 52.329678,328.467560 53.354950,327.669495 
	C54.431915,327.617950 55.155270,327.650940 56.142567,328.037537 
	C65.476624,328.561371 74.546547,328.750519 83.617455,328.846741 
	C84.079147,328.851654 84.549332,328.057007 85.318474,327.487152 
	C86.053040,327.216217 86.484695,327.092743 86.916351,326.969269 
z"/>
<path fill="#76B579" opacity="1.000000" stroke="none" 
	d="
M103.008965,209.896240 
	C100.574493,209.762299 98.140030,209.628342 95.166298,209.464706 
	C95.166298,206.460999 95.166298,203.720871 95.208511,200.535080 
	C97.562950,199.728867 99.875168,199.368317 102.933876,199.018112 
	C104.508499,199.680878 105.336639,200.333282 106.091125,201.415222 
	C105.070915,204.549591 108.317581,208.821289 103.008965,209.896240 
z"/>
<path fill="#F0F9ED" opacity="1.000000" stroke="none" 
	d="
M103.065857,210.279922 
	C108.317581,208.821289 105.070915,204.549591 106.460724,201.517822 
	C107.509911,203.283493 108.115860,205.376053 108.876221,208.001831 
	C111.137497,208.001831 113.568489,208.001831 115.999489,208.001831 
	C117.388832,208.003143 118.778168,208.004456 120.584366,208.005341 
	C123.401421,207.009384 125.801613,206.013870 128.667450,205.430618 
	C129.626495,208.922119 128.228348,209.919128 125.244560,209.821457 
	C120.298454,209.659546 115.324440,209.563492 110.403412,209.956329 
	C109.118950,210.058868 107.123161,211.937668 106.925934,213.225998 
	C105.711555,221.158508 105.851822,221.179977 97.986038,220.480469 
	C98.573112,220.001892 99.103981,219.210678 99.756027,219.093414 
	C105.823219,218.002411 106.627556,216.053909 103.065857,210.279922 
z"/>
<path fill="#FCFDFA" opacity="1.000000" stroke="none" 
	d="
M149.027527,350.311035 
	C158.375565,349.967773 167.718002,350.019012 177.525238,350.492188 
	C177.993744,351.607391 177.997482,352.300659 178.001221,352.993896 
	C177.226578,353.328003 176.451950,353.662140 175.171600,353.752625 
	C174.110397,353.339752 173.554886,353.170471 172.999390,353.001221 
	C166.133743,353.242554 159.267227,353.625671 152.403275,353.584473 
	C151.270462,353.577667 150.148788,351.712128 149.027527,350.311035 
z"/>
<path fill="#FCFDFA" opacity="1.000000" stroke="none" 
	d="
M155.991501,338.598511 
	C153.911774,339.122986 151.823257,339.271790 149.235474,339.456177 
	C149.110794,342.079681 148.990479,344.611542 148.620667,347.711456 
	C148.176865,348.486053 148.044189,348.726624 147.973175,349.001221 
	C143.311234,348.062134 144.599136,344.074280 145.294724,341.807983 
	C146.057114,339.324097 148.455399,336.964050 150.751999,335.526398 
	C151.600464,334.995270 154.188232,337.242676 155.991501,338.598511 
z"/>
<path fill="#FEFEFB" opacity="1.000000" stroke="none" 
	d="
M115.949745,207.662079 
	C113.568489,208.001831 111.137497,208.001831 108.876221,208.001831 
	C108.115860,205.376053 107.509911,203.283493 106.534370,201.088318 
	C105.336639,200.333282 104.508499,199.680878 103.339485,198.938690 
	C103.662766,197.920395 104.670563,196.104355 104.935471,196.206924 
	C106.694603,196.888062 108.664108,197.652527 109.866837,199.009048 
	C112.127510,201.558838 113.915474,204.527725 115.949745,207.662079 
z"/>
<path fill="#EBF7E7" opacity="1.000000" stroke="none" 
	d="
M83.872612,198.039124 
	C73.930359,198.469971 63.807983,198.580490 53.326744,198.502075 
	C52.973816,198.096069 52.979752,197.878998 53.002499,197.336761 
	C61.650211,197.011612 70.281387,196.976242 78.911758,197.043533 
	C80.507004,197.055969 82.098999,197.483093 83.872612,198.039124 
z"/>
<path fill="#F4FBF1" opacity="1.000000" stroke="none" 
	d="
M178.388519,352.994354 
	C177.997482,352.300659 177.993744,351.607391 177.987198,350.567902 
	C182.022644,350.164185 186.060898,350.106689 190.553711,350.512329 
	C191.002350,351.981018 190.996445,352.986542 190.990540,353.992096 
	C189.606888,353.992554 188.223236,353.993011 186.380951,353.673523 
	C185.281403,352.903992 184.640472,352.454437 183.999542,352.004883 
	C182.258316,352.334869 180.517059,352.664856 178.388519,352.994354 
z"/>
<path fill="#FCFDFA" opacity="1.000000" stroke="none" 
	d="
M89.817474,338.891174 
	C86.788040,339.253387 83.836952,339.197723 80.442780,339.053528 
	C79.952660,334.853760 83.310112,335.459473 85.696999,335.073914 
	C88.074791,334.689819 90.088081,335.380096 89.817474,338.891174 
z"/>
<path fill="#FCFDFA" opacity="1.000000" stroke="none" 
	d="
M191.420685,353.994995 
	C190.996445,352.986542 191.002350,351.981018 191.010498,350.599365 
	C192.721558,350.175446 194.430374,350.127625 196.565918,350.525543 
	C196.997147,351.979065 197.001617,352.986847 197.006104,353.994690 
	C195.287689,353.995758 193.569260,353.996826 191.420685,353.994995 
z"/>
<path fill="#F4FBF1" opacity="1.000000" stroke="none" 
	d="
M197.379150,353.995331 
	C197.001617,352.986847 196.997147,351.979065 196.988129,350.597534 
	C199.031967,350.149475 201.080353,350.075134 203.567093,350.031342 
	C204.004486,350.492676 204.003510,350.923462 203.625427,351.677856 
	C202.162704,352.665222 201.077042,353.328949 199.991394,353.992676 
	C199.245010,353.993805 198.498596,353.994904 197.379150,353.995331 
z"/>
<path fill="#FCFDFA" opacity="1.000000" stroke="none" 
	d="
M69.045441,338.407532 
	C67.626160,338.945831 66.179131,339.044739 64.365982,339.055328 
	C64.583122,338.001495 65.235527,336.198792 65.735626,336.240082 
	C66.869476,336.333740 67.928329,337.335541 69.045441,338.407532 
z"/>
<path fill="#FCFDFA" opacity="1.000000" stroke="none" 
	d="
M173.988556,338.580231 
	C172.849091,339.014832 171.697952,339.060120 170.235886,338.976349 
	C170.590866,337.935120 171.256790,337.022980 171.922699,336.110870 
	C172.607437,336.804230 173.292160,337.497559 173.988556,338.580231 
z"/>
<path fill="#FCFDFA" opacity="1.000000" stroke="none" 
	d="
M200.326111,353.995331 
	C201.077042,353.328949 202.162704,352.665222 203.624481,352.001343 
	C203.547348,352.639862 203.094070,353.278473 202.320099,353.958588 
	C201.553192,353.999359 201.107010,353.998688 200.326111,353.995331 
z"/>
<path fill="#FEFEFB" opacity="1.000000" stroke="none" 
	d="
M173.030151,353.293945 
	C173.554886,353.170471 174.110397,353.339752 174.832947,353.754517 
	C174.353638,353.862244 173.707275,353.724457 173.030151,353.293945 
z"/>
<path fill="#FEFEFB" opacity="1.000000" stroke="none" 
	d="
M184.041626,352.325623 
	C184.640472,352.454437 185.281403,352.903992 185.965851,353.673828 
	C185.367477,353.544861 184.725586,353.095581 184.041626,352.325623 
z"/>
<path fill="#EBF7E7" opacity="1.000000" stroke="none" 
	d="
M87.012619,199.681213 
	C86.733910,199.819382 86.551140,199.589935 86.479424,199.063400 
	C86.499496,198.838776 86.717758,198.846252 86.824783,198.824097 
	C86.960403,198.996643 86.988983,199.191345 87.012619,199.681213 
z"/>
<path fill="#F4FBF1" opacity="1.000000" stroke="none" 
	d="
M148.169403,349.010193 
	C148.044189,348.726624 148.176865,348.486053 148.539658,348.158813 
	C148.754318,348.200317 148.800522,348.362549 148.802628,348.773956 
	C148.758530,349.023132 148.365646,349.019135 148.169403,349.010193 
z"/>
<path fill="#FEFEFB" opacity="1.000000" stroke="none" 
	d="
M94.786064,307.996094 
	C92.473938,307.668762 90.161812,307.341431 87.412239,306.545959 
	C86.959549,300.778229 86.944305,295.478668 86.826553,289.888000 
	C86.354134,289.451080 85.984230,289.305237 85.174728,289.234344 
	C76.489235,289.250885 68.243340,289.192413 59.997452,289.133942 
	C66.354851,281.647552 60.634560,271.775177 65.452385,263.403503 
	C71.548538,263.071136 77.176346,263.227356 82.549789,263.827118 
	C81.812889,267.376007 81.330368,270.481323 80.418808,273.648529 
	C71.244240,274.226898 70.394615,275.385101 72.628372,283.753723 
	C75.994606,283.757385 79.357353,283.757385 82.753761,283.757385 
	C82.943680,281.936066 83.096260,280.472870 83.627701,278.990875 
	C84.683449,277.258545 85.360336,275.545044 86.497978,273.760132 
	C96.293114,273.732727 105.627495,273.776672 114.989655,274.095459 
	C115.642097,274.915771 116.266762,275.461243 116.961090,276.202881 
	C117.129242,276.668060 117.296074,276.884308 117.559174,277.443878 
	C117.490784,278.882477 117.394478,279.925018 117.018501,280.991089 
	C116.285027,281.377289 115.831238,281.739899 115.377441,282.102509 
	C116.067993,282.410553 116.758560,282.718597 117.572403,283.463928 
	C117.675728,287.220093 117.655777,290.538940 117.429825,293.872986 
	C117.223824,293.888214 116.815536,293.956268 116.639984,294.067810 
	C116.245468,294.362701 116.093361,294.590698 115.571220,294.955139 
	C112.755882,295.039734 110.377426,295.032471 108.000183,294.572327 
	C107.046204,291.143524 110.092056,287.240967 105.590302,284.763367 
	C95.484787,283.339661 95.357430,283.428802 94.362274,292.037323 
	C94.310043,292.737579 94.516136,293.377899 95.024506,294.323669 
	C98.549919,294.793640 101.773056,294.958191 104.994835,295.554382 
	C105.913589,300.562958 104.234055,303.802338 99.607559,305.812561 
	C97.748573,306.602203 96.267319,307.299133 94.786064,307.996094 
z"/>
<path fill="#6BB96E" opacity="1.000000" stroke="none" 
	d="
M59.592690,289.211151 
	C68.243340,289.192413 76.489235,289.250885 85.360504,289.446106 
	C86.300285,289.781647 86.614670,289.980347 86.929062,290.179077 
	C86.944305,295.478668 86.959549,300.778229 87.063232,306.537964 
	C87.067665,313.344482 86.983673,319.690826 86.908012,326.503235 
	C86.484695,327.092743 86.053040,327.216217 84.869995,327.336334 
	C74.705276,327.449951 65.291946,327.566925 55.878624,327.683899 
	C55.155270,327.650940 54.431915,327.617950 52.980301,327.592621 
	C51.242077,327.508209 50.232113,327.416199 49.222145,327.324158 
	C49.222145,327.324188 49.228813,327.126434 49.154713,327.061096 
	C49.057400,320.974396 49.034187,314.953064 49.022026,308.072815 
	C48.975597,306.140533 48.918121,305.067139 48.860645,303.993774 
	C48.937000,299.662994 49.013351,295.332184 49.283363,290.393921 
	C49.742928,289.562256 50.008835,289.338074 50.274742,289.113892 
	C50.991360,289.133911 51.707985,289.153900 52.891121,289.267700 
	C54.224735,289.204254 55.091835,289.046997 55.958939,288.889771 
	C57.035267,289.022644 58.111595,289.155518 59.592690,289.211151 
M58.856171,309.481873 
	C58.856171,312.216736 58.856171,314.951599 58.856171,317.702698 
	C65.324486,317.702698 70.891212,317.702698 76.633606,317.702698 
	C76.633606,311.651733 76.633606,305.943604 76.633606,300.157043 
	C70.594872,300.157043 64.910965,300.157043 58.857697,300.157043 
	C58.857697,303.235657 58.857697,305.868835 58.856171,309.481873 
z"/>
<path fill="#6BB96E" opacity="1.000000" stroke="none" 
	d="
M97.592995,220.598877 
	C105.851822,221.179977 105.711555,221.158508 106.925934,213.225998 
	C107.123161,211.937668 109.118950,210.058868 110.403412,209.956329 
	C115.324440,209.563492 120.298454,209.659546 125.244560,209.821457 
	C128.228348,209.919128 129.626495,208.922119 129.047913,205.418976 
	C129.728668,202.893097 130.494598,200.791077 132.041946,198.680069 
	C134.887299,198.581390 136.951233,198.491714 139.015167,198.402039 
	C139.306335,198.735001 139.597504,199.067947 139.973572,200.159729 
	C139.937576,207.238266 139.816711,213.557999 139.695831,219.877731 
	C134.772202,219.884277 129.848557,219.890823 124.022293,219.882721 
	C121.540520,219.868073 119.961372,219.868073 117.997559,219.868073 
	C117.997559,223.587830 117.997559,226.794159 117.997559,230.000488 
	C117.958046,231.716904 117.918533,233.433319 117.868614,235.951080 
	C117.863457,237.784348 117.868713,238.816269 117.701447,240.023438 
	C117.325203,240.461945 117.181252,240.754593 117.071342,241.051300 
	C117.045639,241.025986 117.042542,241.098083 116.598846,241.055450 
	C114.385750,241.175842 112.616348,241.338852 110.498512,241.443787 
	C109.463844,241.498306 108.777603,241.610886 107.766121,241.545502 
	C106.960754,241.252090 106.480621,241.136642 106.022110,240.572449 
	C106.044060,237.682907 106.140305,235.234680 105.953026,232.808350 
	C105.920731,232.389832 104.684639,232.064224 104.004608,231.695694 
	C100.980560,231.336563 97.368149,233.620483 95.041901,229.107605 
	C94.898483,228.334946 94.845428,228.175369 94.792374,228.015778 
	C95.594902,225.582947 96.397430,223.150131 97.592995,220.598877 
z"/>
<path fill="#69B86D" opacity="1.000000" stroke="none" 
	d="
M82.804161,263.383606 
	C77.176346,263.227356 71.548538,263.071136 65.461014,263.009033 
	C63.927952,263.078796 62.854607,263.054413 61.140411,263.008118 
	C60.322567,262.979187 60.145573,262.972168 59.979263,262.986938 
	C59.989944,263.008698 60.034042,263.028931 60.049519,262.683960 
	C59.986252,261.887512 59.907513,261.436035 59.828773,260.984558 
	C59.926529,259.923035 60.024281,258.861542 60.266251,257.133362 
	C61.285805,255.016800 62.161133,253.566910 63.036461,252.117004 
	C64.744705,252.133514 66.452950,252.150040 68.982742,252.141434 
	C70.431015,250.402817 71.057732,248.689316 71.684448,246.975815 
	C71.873573,245.515274 72.062698,244.054718 72.350067,241.835480 
	C79.234108,241.835480 86.111374,241.835480 93.903587,241.905060 
	C98.512192,242.031815 102.205841,242.089005 105.895744,242.590408 
	C105.891998,245.910461 105.891998,248.786285 105.891998,251.760971 
	C102.813477,251.961975 100.391869,252.120102 97.516670,252.210007 
	C93.022118,252.389938 88.981148,252.638062 84.562531,252.977921 
	C84.001030,256.530334 83.817184,259.991028 83.682404,263.623718 
	C83.731468,263.795685 83.997307,264.034973 83.997116,264.019867 
	C83.996933,264.004761 84.024803,263.993195 83.873230,263.795410 
	C83.448540,263.384857 83.142708,263.313538 82.804161,263.383606 
z"/>
<path fill="#6CB971" opacity="1.000000" stroke="none" 
	d="
M60.185310,282.987244 
	C56.729431,283.505737 53.273552,284.024231 49.207603,284.634247 
	C49.207603,278.048096 48.885899,272.416901 49.301991,266.840759 
	C49.684937,261.708801 54.164837,263.619659 57.905296,263.069763 
	C59.120159,263.050720 59.577099,263.039825 60.034042,263.028931 
	C60.034042,263.028931 59.989944,263.008698 59.994301,263.252228 
	C60.064980,263.660034 60.131302,263.824341 60.197628,263.988617 
	C60.158367,269.689270 60.119106,275.389893 60.085915,281.794128 
	C60.091984,282.497711 60.185310,282.987244 60.185310,282.987244 
z"/>
<path fill="#6CB971" opacity="1.000000" stroke="none" 
	d="
M60.181618,243.987137 
	C60.143135,245.702148 60.104652,247.417160 60.001995,249.908752 
	C58.620094,251.182373 57.302368,251.679428 55.984642,252.176483 
	C53.888443,252.025711 51.792244,251.874954 49.766514,251.729248 
	C47.701557,242.158676 49.558025,240.441925 59.833641,242.914536 
	C60.089874,243.663895 60.135742,243.825516 60.181618,243.987137 
z"/>
<path fill="#F4FBF1" opacity="1.000000" stroke="none" 
	d="
M41.876320,327.897400 
	C41.478519,315.974335 41.381557,303.932098 41.423935,291.438538 
	C42.041901,293.859436 42.806301,296.717926 42.944534,299.606384 
	C43.329151,307.642944 43.527496,315.691193 43.608437,323.736755 
	C43.621944,325.078949 42.678440,326.430786 41.876320,327.897400 
z"/>
<path fill="#CEEBCC" opacity="1.000000" stroke="none" 
	d="
M105.899490,242.146179 
	C102.205841,242.089005 98.512192,242.031815 94.364082,241.860809 
	C94.915581,241.169373 95.881401,240.183487 96.933975,240.080002 
	C104.045708,239.380798 104.051651,239.441238 104.014954,232.160767 
	C104.684639,232.064224 105.920731,232.389832 105.953026,232.808350 
	C106.140305,235.234680 106.044060,237.682907 106.022858,240.855972 
	C105.967812,241.774216 105.933647,241.960190 105.899490,242.146179 
z"/>
<path fill="#F0F9ED" opacity="1.000000" stroke="none" 
	d="
M70.107986,236.713913 
	C75.012955,236.267303 80.049988,236.180710 85.551834,236.153564 
	C80.757790,236.499969 75.498924,236.786957 70.107986,236.713913 
z"/>
<path fill="#F0F9ED" opacity="1.000000" stroke="none" 
	d="
M56.054169,252.502945 
	C57.302368,251.679428 58.620094,251.182373 60.068665,250.332977 
	C61.059689,250.499069 61.919865,251.017502 62.908249,251.826462 
	C62.161133,253.566910 61.285805,255.016800 60.211288,256.735840 
	C58.715965,255.613098 57.419830,254.221268 56.054169,252.502945 
z"/>
<path fill="#F4FBF1" opacity="1.000000" stroke="none" 
	d="
M44.001793,338.588989 
	C40.072758,339.460175 41.532993,336.577484 41.488762,334.339050 
	C42.421108,335.370819 43.211048,336.788116 44.001793,338.588989 
z"/>
<path fill="#F0F9ED" opacity="1.000000" stroke="none" 
	d="
M71.366318,247.059723 
	C71.057732,248.689316 70.431015,250.402817 69.402542,252.058914 
	C69.683250,250.382217 70.365715,248.762909 71.366318,247.059723 
z"/>
<path fill="#F4FBF1" opacity="1.000000" stroke="none" 
	d="
M48.529182,304.063751 
	C48.918121,305.067139 48.975597,306.140533 48.948456,307.610016 
	C48.641800,306.715332 48.419762,305.424530 48.529182,304.063751 
z"/>
<path fill="#EBF7E7" opacity="1.000000" stroke="none" 
	d="
M55.793694,288.641418 
	C55.091835,289.046997 54.224735,289.204254 53.209835,289.097290 
	C53.917507,288.686432 54.772976,288.539734 55.793694,288.641418 
z"/>
<path fill="#F0F9ED" opacity="1.000000" stroke="none" 
	d="
M41.843296,189.031906 
	C42.121975,188.322495 42.707123,187.590759 43.647606,186.942230 
	C43.385216,187.686813 42.767490,188.348206 41.843296,189.031906 
z"/>
<path fill="#F0F9ED" opacity="1.000000" stroke="none" 
	d="
M60.049519,262.683960 
	C59.577099,263.039825 59.120159,263.050720 58.327560,262.990540 
	C58.405773,262.306030 58.819645,261.692627 59.531143,261.031860 
	C59.907513,261.436035 59.986252,261.887512 60.049519,262.683960 
z"/>
<path fill="#F0F9ED" opacity="1.000000" stroke="none" 
	d="
M94.655212,228.116669 
	C94.845428,228.175369 94.898483,228.334946 94.910416,228.743408 
	C94.752220,228.734039 94.635139,228.475800 94.655212,228.116669 
z"/>
<path fill="#EBF7E7" opacity="1.000000" stroke="none" 
	d="
M40.010956,239.886932 
	C39.967468,239.630692 40.231548,239.447388 40.792717,239.313995 
	C40.857574,239.586227 40.600479,239.784882 40.010956,239.886932 
z"/>
<path fill="#F0F9ED" opacity="1.000000" stroke="none" 
	d="
M60.323494,243.891693 
	C60.135742,243.825516 60.089874,243.663895 60.098137,243.256165 
	C60.256638,243.272125 60.361008,243.534180 60.323494,243.891693 
z"/>
<path fill="#F0F9ED" opacity="1.000000" stroke="none" 
	d="
M60.371162,263.902313 
	C60.131302,263.824341 60.064980,263.660034 59.983620,263.230469 
	C60.145573,262.972168 60.322567,262.979187 60.744247,263.089905 
	C60.909115,263.449829 60.761032,263.657288 60.371162,263.902313 
z"/>
<path fill="#F0F9ED" opacity="1.000000" stroke="none" 
	d="
M60.326748,282.898621 
	C60.185310,282.987244 60.091984,282.497711 60.159492,282.257874 
	C60.591717,282.216034 60.672112,282.480042 60.326748,282.898621 
z"/>
<path fill="#EBF7E7" opacity="1.000000" stroke="none" 
	d="
M49.988789,289.152771 
	C50.008835,289.338074 49.742928,289.562256 49.262592,289.934723 
	C49.266384,289.785889 49.484608,289.488800 49.988789,289.152771 
z"/>
<path fill="#6CB971" opacity="1.000000" stroke="none" 
	d="
M186.997116,187.043762 
	C174.526413,186.976547 162.054291,186.779404 149.585861,186.917587 
	C145.606323,186.961685 143.981812,185.963318 144.027451,181.641602 
	C144.072678,177.360550 145.277451,175.810013 149.738144,175.868668 
	C166.535324,176.089493 183.337189,175.958054 200.137299,175.950226 
	C202.457932,175.949142 205.084137,175.459641 204.803986,180.056992 
	C204.854095,197.284653 204.908920,213.641006 204.963745,229.997375 
	C204.963745,233.100327 204.963745,236.203278 204.963745,239.893906 
	C201.182327,239.893906 198.094315,239.893906 194.530243,239.391541 
	C194.054199,221.689163 194.054199,204.489151 194.054199,187.043777 
	C191.236908,187.043777 189.117004,187.043777 186.997116,187.043762 
z"/>
<path fill="#67B86A" opacity="1.000000" stroke="none" 
	d="
M186.129745,247.009598 
	C186.058807,248.345581 185.987854,249.681564 185.471375,251.485703 
	C184.035751,251.992599 183.045975,252.054138 182.055557,252.066422 
	C174.710190,252.157578 173.454590,253.597504 174.949127,260.798065 
	C175.112869,261.586945 176.827286,262.053925 177.822479,262.670227 
	C179.115311,262.668945 180.408142,262.667633 182.234726,262.710388 
	C183.168579,262.773254 183.568695,262.792114 183.968781,262.810974 
	C184.630920,263.642914 185.293045,264.474854 185.961670,266.082581 
	C185.956497,268.897186 185.944839,270.936005 185.933197,272.974792 
	C180.259262,273.161652 174.585342,273.348541 168.140427,273.530273 
	C166.630173,273.560272 165.890900,273.595428 164.862228,273.433441 
	C164.035126,272.819336 163.497421,272.402374 163.001404,271.519592 
	C162.987045,265.049072 162.930984,259.044342 162.853394,252.790512 
	C162.608536,252.210281 162.313278,252.123459 161.512177,252.225494 
	C158.745560,252.187210 156.412933,252.204391 153.722595,252.133606 
	C152.741394,252.750992 152.117874,253.456360 151.421265,254.612350 
	C151.263031,261.049469 151.177841,267.035950 150.777527,273.066620 
	C150.269485,273.199036 150.076569,273.287292 149.426407,273.322571 
	C142.528488,273.242615 136.087814,273.215637 129.643677,272.941620 
	C129.550568,272.365753 129.371765,272.095947 129.142075,271.468262 
	C129.181671,269.376282 129.183044,267.701233 129.390656,265.788727 
	C129.774902,264.729980 129.952927,263.908630 130.572083,263.074402 
	C133.671295,263.022278 136.329391,262.983063 139.265900,262.948975 
	C139.770493,262.680450 139.996658,262.406769 140.392212,261.754272 
	C140.659424,255.924606 140.757278,250.473770 140.948532,244.776184 
	C141.029556,244.353973 141.017166,244.178528 141.215240,243.669037 
	C143.279770,242.866577 145.128082,242.021713 146.988937,241.993134 
	C156.422440,241.848267 165.859222,241.914612 175.294846,241.908417 
	C178.708740,241.906174 182.122650,241.908051 185.551682,241.908051 
	C185.797668,244.078995 185.963715,245.544296 186.129745,247.009598 
z"/>
<path fill="#65B769" opacity="1.000000" stroke="none" 
	d="
M148.482025,199.956985 
	C149.405182,199.521957 150.328354,199.086929 152.064529,198.661499 
	C163.257370,198.583588 173.637207,198.496094 184.017044,198.408600 
	C184.722198,199.025299 185.427338,199.641983 186.147003,201.073425 
	C186.161499,213.144989 186.161499,224.401779 186.161499,236.350327 
	C175.239029,236.350327 165.116638,236.350327 154.570404,236.265778 
	C152.416580,236.152267 150.686584,236.123291 148.881424,235.624451 
	C148.698181,223.422028 148.590103,211.689514 148.482025,199.956985 
M167.496155,226.839798 
	C170.430145,226.839798 173.364136,226.839798 176.392456,226.839798 
	C176.392456,220.187103 176.392456,214.305557 176.392456,208.469589 
	C170.134995,208.469589 164.270172,208.469589 158.404266,208.469589 
	C158.404266,214.703918 158.404266,220.456619 158.404266,226.841904 
	C161.299072,226.841904 163.916656,226.841904 167.496155,226.839798 
z"/>
<path fill="#F4FBF1" opacity="1.000000" stroke="none" 
	d="
M148.127350,199.982773 
	C148.590103,211.689514 148.698181,223.422028 148.653412,235.877167 
	C147.120224,236.599777 145.739899,236.599777 143.601242,236.599777 
	C144.324814,238.014496 144.768845,239.695892 145.253281,239.707626 
	C152.286865,239.877823 159.325851,239.824341 166.363556,239.824341 
	C166.346680,239.215622 166.329819,238.606888 166.312958,237.998169 
	C164.249939,237.998169 162.157913,238.210526 160.132721,237.933777 
	C158.380478,237.694336 156.704132,236.899612 154.994232,236.350327 
	C165.116638,236.350327 175.239029,236.350327 186.161499,236.350327 
	C186.161499,224.401779 186.161499,213.144989 186.269287,201.427826 
	C190.584305,199.749771 192.150833,196.487106 190.219681,192.585403 
	C189.372467,190.873657 188.134583,189.355255 187.035614,187.396423 
	C189.117004,187.043777 191.236908,187.043777 194.054199,187.043777 
	C194.054199,204.489151 194.054199,221.689163 194.079590,239.342102 
	C192.598190,239.638977 191.089355,239.500046 189.585190,239.321762 
	C188.229477,239.161102 186.878860,238.957397 185.496521,239.368179 
	C190.860123,242.529053 190.987762,243.182526 186.471893,246.963150 
	C185.963715,245.544296 185.797668,244.078995 185.551682,241.908051 
	C182.122650,241.908051 178.708740,241.906174 175.294846,241.908417 
	C165.859222,241.914612 156.422440,241.848267 146.988937,241.993134 
	C145.128082,242.021713 143.279770,242.866577 141.048813,243.743927 
	C140.604050,244.252380 140.456772,244.387451 140.482544,244.445053 
	C140.575119,244.651855 140.726166,244.832443 140.855118,245.022949 
	C140.757278,250.473770 140.659424,255.924606 140.134521,261.796875 
	C139.467468,262.460144 139.227478,262.702026 138.987473,262.943848 
	C136.329391,262.983063 133.671295,263.022278 130.248703,263.021423 
	C129.266083,262.975098 129.047974,262.968872 128.937805,262.506958 
	C129.082642,256.641937 128.917908,251.220993 129.230133,245.827637 
	C129.425735,242.448471 127.847000,241.536545 124.986755,241.540222 
	C125.841896,240.365768 126.697029,239.191330 128.208496,238.231506 
	C131.455414,244.809174 136.130920,239.460022 140.222748,241.532684 
	C140.222748,237.581665 140.222748,234.781296 140.222748,231.980911 
	C141.696640,232.641479 143.170532,233.302032 145.562088,234.373871 
	C145.916687,230.994247 146.426407,228.051834 146.480637,225.101059 
	C146.539352,221.906265 146.191238,218.702515 145.987396,215.504791 
	C145.773071,212.142883 145.598557,208.775421 145.256271,205.425735 
	C145.013519,203.050018 144.386688,200.638062 148.127350,199.982773 
M179.991928,239.996750 
	C180.805161,239.789536 181.618393,239.582321 182.431625,239.375122 
	C182.383286,239.106857 182.334930,238.838593 182.286591,238.570328 
	C178.088928,238.570328 173.891266,238.570328 169.693619,238.570328 
	C169.687119,239.047134 169.680634,239.523941 169.674149,240.000748 
	C172.821228,240.000748 175.968307,240.000748 179.991928,239.996750 
z"/>
<path fill="#67B86A" opacity="1.000000" stroke="none" 
	d="
M124.626541,241.649536 
	C127.847000,241.536545 129.425735,242.448471 129.230133,245.827637 
	C128.917908,251.220993 129.082642,256.641937 128.715469,262.489075 
	C128.385223,262.926910 127.966774,263.084869 127.521469,263.046448 
	C124.398247,263.059570 121.720337,263.111084 118.780312,263.154236 
	C118.390846,263.442627 118.263489,263.739380 118.084953,264.480713 
	C117.994362,267.610199 117.954948,270.295166 117.633133,273.069946 
	C117.187393,273.270874 117.024055,273.382019 116.530334,273.450317 
	C115.787270,273.545166 115.374580,273.682892 114.961884,273.820618 
	C105.627495,273.776672 96.293114,273.732727 86.279297,273.585571 
	C85.041084,273.428009 84.482315,273.373627 83.883682,272.849548 
	C83.904144,269.584259 83.964470,266.788727 84.024803,263.993195 
	C84.024803,263.993195 83.996933,264.004761 84.191833,263.874084 
	C84.662674,263.566742 84.905563,263.352631 85.344589,263.106781 
	C85.573776,263.112549 86.000885,262.945801 86.463104,263.027832 
	C92.947098,263.056732 98.968887,263.003601 105.378830,262.984009 
	C106.093750,261.667480 106.420509,260.317413 106.816917,258.603088 
	C106.848892,257.501282 106.811234,256.763672 106.873283,255.700424 
	C107.330032,254.330078 107.687065,253.285385 108.491989,252.237305 
	C111.626648,252.106705 114.313416,251.979492 117.241623,251.853851 
	C117.812347,251.649521 117.902481,251.367233 117.832489,250.567795 
	C117.959099,247.458603 118.006683,244.790131 118.456985,242.096741 
	C119.917084,241.918549 120.974457,241.765289 122.031837,241.612030 
	C122.776672,241.660980 123.521500,241.709930 124.626541,241.649536 
z"/>
<path fill="#67B86A" opacity="1.000000" stroke="none" 
	d="
M175.243195,319.031708 
	C175.130020,321.489929 175.016846,323.948151 174.883667,326.841064 
	C171.308365,326.841064 167.830688,326.841064 163.752914,326.841064 
	C163.752914,322.441711 163.752914,318.199646 163.781403,313.122040 
	C163.750916,311.511108 163.691956,310.735718 163.632996,309.960327 
	C163.750793,309.260406 163.868622,308.560455 164.482056,307.439697 
	C168.226059,306.799500 171.474442,306.580139 175.200455,306.328552 
	C174.982651,302.681061 176.015396,298.048920 174.288589,296.506744 
	C172.038040,294.496796 167.599152,294.937164 163.900162,294.287720 
	C163.782837,292.212311 163.662796,290.089142 163.668549,287.600555 
	C164.864044,286.454407 165.933777,285.673706 167.003494,284.893005 
	C172.990311,284.950745 178.977112,285.008453 185.423279,285.057007 
	C185.985443,294.412659 185.982498,303.780334 186.237625,313.141022 
	C186.357269,317.531586 183.343048,316.582092 180.177856,316.658813 
	C178.069458,317.377106 176.656326,318.204407 175.243195,319.031708 
z"/>
<path fill="#FAFEF7" opacity="1.000000" stroke="none" 
	d="
M167.001511,284.502319 
	C165.933777,285.673706 164.864044,286.454407 163.331345,287.736481 
	C162.574890,290.518311 162.281403,292.798737 161.541138,295.144775 
	C158.385818,295.162537 155.677292,295.114716 152.896576,294.843079 
	C152.670975,294.334930 152.452301,294.115662 152.132462,293.522308 
	C152.012848,290.456024 151.929199,287.828888 151.907455,284.887756 
	C151.982635,284.361145 151.995926,284.148499 152.468048,284.003296 
	C156.274307,284.070740 159.621780,284.070740 163.089890,284.070740 
	C163.244217,280.553772 163.365005,277.800873 163.718262,275.006561 
	C164.351013,274.520294 164.751328,274.075439 165.151642,273.630554 
	C165.890900,273.595428 166.630173,273.560272 167.705902,273.690979 
	C167.694733,277.275085 167.347122,280.693329 167.001511,284.502319 
z"/>
<path fill="#6CB971" opacity="1.000000" stroke="none" 
	d="
M139.931549,231.660553 
	C140.222748,234.781296 140.222748,237.581665 140.222748,241.532684 
	C136.130920,239.460022 131.455414,244.809174 128.558319,238.194946 
	C128.558319,229.761063 130.392395,230.416733 139.931549,231.660553 
z"/>
<path fill="#F4FBF1" opacity="1.000000" stroke="none" 
	d="
M205.363861,229.911163 
	C204.908920,213.641006 204.854095,197.284653 204.881226,180.465591 
	C205.640701,181.115967 206.897781,182.223755 206.908005,183.342926 
	C207.040329,197.840073 207.019638,212.338959 206.942261,226.836914 
	C206.936935,227.835007 206.174377,228.829041 205.363861,229.911163 
z"/>
<path fill="#F4FBF1" opacity="1.000000" stroke="none" 
	d="
M205.370926,332.910461 
	C204.909836,318.308380 204.847946,303.618774 204.867432,288.466431 
	C205.630875,289.096802 206.894897,290.183929 206.906296,291.283966 
	C207.041183,304.309296 207.010986,317.336700 206.933914,330.363037 
	C206.929031,331.185303 206.175430,332.003113 205.370926,332.910461 
z"/>
<path fill="#F4FBF1" opacity="1.000000" stroke="none" 
	d="
M183.851929,198.076965 
	C173.637207,198.496094 163.257370,198.583588 152.432159,198.510864 
	C152.291489,197.974579 152.599945,197.266953 152.900314,197.270370 
	C163.162949,197.386993 173.424820,197.571030 183.851929,198.076965 
z"/>
<path fill="#F4FBF1" opacity="1.000000" stroke="none" 
	d="
M177.879608,262.191742 
	C176.827286,262.053925 175.112869,261.586945 174.949127,260.798065 
	C173.454590,253.597504 174.710190,252.157578 182.055557,252.066422 
	C183.045975,252.054138 184.035751,251.992599 185.476776,251.887787 
	C185.389664,252.518265 184.786362,253.860687 184.323380,253.813919 
	C178.048233,253.180038 178.041946,257.461304 177.879608,262.191742 
z"/>
<path fill="#F4FBF1" opacity="1.000000" stroke="none" 
	d="
M140.119812,219.850479 
	C139.816711,213.557999 139.937576,207.238266 140.129303,200.454193 
	C140.773682,200.505722 141.836197,201.012863 141.845596,201.538818 
	C141.946518,207.191406 141.910965,212.847519 141.804779,218.500626 
	C141.796356,218.949219 140.983047,219.382706 140.119812,219.850479 
z"/>
<path fill="#F4FBF1" opacity="1.000000" stroke="none" 
	d="
M118.366188,229.926849 
	C117.997559,226.794159 117.997559,223.587830 117.997559,219.868073 
	C119.961372,219.868073 121.540520,219.868073 123.561455,219.955933 
	C122.247108,223.313599 120.490959,226.583389 118.366188,229.926849 
z"/>
<path fill="#F4FBF1" opacity="1.000000" stroke="none" 
	d="
M122.014618,241.254730 
	C120.974457,241.765289 119.917084,241.918549 118.435699,241.869873 
	C118.011696,241.667953 118.008995,241.212570 118.008102,240.868225 
	C117.962799,240.298630 117.918381,240.073410 117.873970,239.848175 
	C117.868713,238.816269 117.863457,237.784348 117.944031,236.374512 
	C121.655273,235.765854 121.223045,238.820038 122.014618,241.254730 
z"/>
<path fill="#F4FBF1" opacity="1.000000" stroke="none" 
	d="
M205.570038,343.973938 
	C205.027924,341.373901 204.915497,338.617249 204.887222,335.431335 
	C208.756393,337.538910 206.944458,340.728729 205.570038,343.973938 
z"/>
<path fill="#F4FBF1" opacity="1.000000" stroke="none" 
	d="
M138.873962,198.095123 
	C136.951233,198.491714 134.887299,198.581390 132.404633,198.516647 
	C134.234848,198.170898 136.483810,197.979553 138.873962,198.095123 
z"/>
<path fill="#FAFEF7" opacity="1.000000" stroke="none" 
	d="
M186.255951,272.943756 
	C185.944839,270.936005 185.956497,268.897186 186.050140,266.428497 
	C189.844620,268.073120 187.251892,270.554901 186.255951,272.943756 
z"/>
<path fill="#FCFDFA" opacity="1.000000" stroke="none" 
	d="
M204.966095,349.905823 
	C204.748672,349.395874 204.780289,349.179474 205.000732,348.855988 
	C205.586746,349.187988 206.060852,349.638367 206.534958,350.088745 
	C206.069366,350.121887 205.603775,350.154999 204.966095,349.905823 
z"/>
<path fill="#F4FBF1" opacity="1.000000" stroke="none" 
	d="
M183.756836,262.603424 
	C183.568695,262.792114 183.168579,262.773254 182.575531,262.514954 
	C182.770004,262.315643 183.157440,262.355743 183.756836,262.603424 
z"/>
<path fill="#F4FBF1" opacity="1.000000" stroke="none" 
	d="
M192.403046,338.994751 
	C192.354584,337.043518 192.711655,335.114807 193.423752,333.088898 
	C193.455383,335.000214 193.131989,337.008759 192.403046,338.994751 
z"/>
<path fill="#F0F9ED" opacity="1.000000" stroke="none" 
	d="
M87.604080,186.906418 
	C87.173538,189.781601 85.814995,189.663834 84.058884,187.358017 
	C85.069244,186.947540 86.139320,186.883789 87.604080,186.906418 
z"/>
<path fill="#F0F9ED" opacity="1.000000" stroke="none" 
	d="
M89.790573,186.140106 
	C89.794189,186.273132 89.599579,186.548569 89.154587,186.895737 
	C89.081917,186.687210 89.311295,186.458908 89.790573,186.140106 
z"/>
<path fill="#EBE8E6" opacity="1.000000" stroke="none" 
	d="
M343.271484,271.034393 
	C342.249573,270.270660 341.117584,269.444794 341.201294,268.769684 
	C342.098114,261.538788 343.187042,254.331711 344.223297,247.118103 
	C344.799622,247.057739 345.375916,246.997375 345.952240,246.936996 
	C347.127075,254.746384 348.301910,262.555756 349.578613,271.042236 
	C347.275116,271.042236 345.500519,271.042236 343.271484,271.034393 
z"/>
<path fill="#EBE8E6" opacity="1.000000" stroke="none" 
	d="
M402.615326,246.113068 
	C404.248688,252.244217 405.607574,258.623413 406.873138,265.021118 
	C407.224884,266.799255 407.300201,268.632111 407.535461,270.736145 
	C404.869873,270.736145 402.161835,270.736145 399.239349,270.736145 
	C400.286743,262.412231 401.296173,254.390182 402.615326,246.113068 
z"/>
<path fill="#69B96C" opacity="1.000000" stroke="none" 
	d="
M151.845551,285.201721 
	C151.929199,287.828888 152.012848,290.456024 152.109756,293.793152 
	C152.404938,294.691040 152.686844,294.878967 152.968750,295.066895 
	C155.677292,295.114716 158.385818,295.162537 161.821396,295.394287 
	C162.985748,298.927856 163.423065,302.277557 163.860382,305.627228 
	C161.212448,305.808014 158.564529,305.988800 155.147064,306.169128 
	C153.946930,306.783295 153.516327,307.397949 153.085724,308.012604 
	C153.027008,312.644531 152.670715,317.297241 152.992264,321.902618 
	C153.321579,326.619385 151.804596,328.747009 146.906036,328.040497 
	C145.302734,327.809265 143.637970,328.004120 141.244141,328.004120 
	C141.244141,324.751282 141.244141,321.829071 141.135315,318.165527 
	C140.684586,317.284698 140.342682,317.145233 140.000778,317.005768 
	C133.974594,316.926208 127.948402,316.846649 121.084930,316.754639 
	C119.489189,316.648254 118.730743,316.554260 117.982315,316.483459 
	C117.992332,316.506622 118.032822,316.536774 118.094574,316.043732 
	C118.156326,312.456177 118.156326,309.361664 118.156326,306.105530 
	C114.009079,305.893311 110.586617,305.718170 106.241821,305.495819 
	C106.884743,301.664764 107.441856,298.345001 107.998978,295.025238 
	C110.377426,295.032471 112.755882,295.039734 115.804169,295.020081 
	C116.473991,294.993195 116.943924,294.878815 117.194717,294.832275 
	C117.508949,294.476410 117.572388,294.167084 117.635818,293.857788 
	C117.655777,290.538940 117.675728,287.220093 117.671844,283.117859 
	C117.531395,281.878815 117.414787,281.423187 117.298180,280.967529 
	C117.394478,279.925018 117.490784,278.882477 117.737694,277.153503 
	C118.259430,275.646973 118.630562,274.826874 119.455368,273.978668 
	C122.945747,273.947113 125.982452,273.943695 129.011536,274.396912 
	C129.091446,277.879425 129.178955,280.905334 129.251953,284.174408 
	C129.237427,284.417603 129.581741,284.761627 129.581741,284.761627 
	C129.581741,284.761627 130.067795,284.733612 130.526413,284.806458 
	C137.301697,284.865997 143.618378,284.852722 150.241943,284.951904 
	C150.981079,285.110199 151.413315,285.155975 151.845551,285.201721 
M140.768295,298.778107 
	C140.934448,293.146149 136.648026,295.437408 133.986099,295.071625 
	C130.967667,294.656830 129.422089,296.050873 129.210815,299.260498 
	C128.802841,305.458557 129.190918,305.990540 135.635559,305.926880 
	C137.222595,305.911224 138.807953,305.726044 140.768036,305.593506 
	C140.768036,303.284576 140.768036,301.479675 140.768295,298.778107 
z"/>
<path fill="#6BB96E" opacity="1.000000" stroke="none" 
	d="
M118.032822,316.536774 
	C118.032822,316.536774 117.992332,316.506622 117.908470,316.942261 
	C117.889130,318.919037 117.953659,320.460205 118.018181,322.001373 
	C118.444969,326.623871 116.563820,328.504913 111.753723,328.061066 
	C107.333717,327.653168 102.844025,328.053680 98.390305,327.920959 
	C97.253716,327.887085 96.137108,327.182281 94.911606,326.142273 
	C94.811890,325.498749 94.670547,325.041962 94.670547,325.041962 
	C94.749748,319.669739 94.828949,314.297516 94.847107,308.460693 
	C96.267319,307.299133 97.748573,306.602203 100.040001,305.903595 
	C102.435303,306.020844 104.020439,306.139771 106.121811,306.297455 
	C106.121811,309.777283 106.121811,312.847534 106.121811,316.536774 
	C110.459930,316.536774 114.246376,316.536774 118.032822,316.536774 
z"/>
<path fill="#EBF7E7" opacity="1.000000" stroke="none" 
	d="
M163.911179,306.009705 
	C163.423065,302.277557 162.985748,298.927856 162.268188,295.328674 
	C162.281403,292.798737 162.574890,290.518311 163.205566,288.101929 
	C163.662796,290.089142 163.782837,292.212311 163.900162,294.287720 
	C167.599152,294.937164 172.038040,294.496796 174.288589,296.506744 
	C176.015396,298.048920 174.982651,302.681061 175.200455,306.328552 
	C171.474442,306.580139 168.226059,306.799500 164.526947,307.087067 
	C164.038147,306.900940 164.000061,306.646545 163.911179,306.009705 
z"/>
<path fill="#F4FBF1" opacity="1.000000" stroke="none" 
	d="
M118.363434,321.943970 
	C117.953659,320.460205 117.889130,318.919037 117.898453,316.919067 
	C118.730743,316.554260 119.489189,316.648254 120.620682,316.827789 
	C120.232048,318.571106 119.470360,320.228851 118.363434,321.943970 
z"/>
<path fill="#EBF7E7" opacity="1.000000" stroke="none" 
	d="
M175.577362,318.979187 
	C176.656326,318.204407 178.069458,317.377106 179.756531,316.722412 
	C178.657486,317.572235 177.284515,318.249451 175.577362,318.979187 
z"/>
<path fill="#EBF7E7" opacity="1.000000" stroke="none" 
	d="
M163.342560,310.035156 
	C163.691956,310.735718 163.750916,311.511108 163.705872,312.664581 
	C163.418610,312.065094 163.235367,311.087524 163.342560,310.035156 
z"/>
<path fill="#EBF7E7" opacity="1.000000" stroke="none" 
	d="
M153.374588,307.977783 
	C153.516327,307.397949 153.946930,306.783295 154.707947,306.241241 
	C154.580078,306.856842 154.121765,307.399902 153.374588,307.977783 
z"/>
<path fill="#F4FBF1" opacity="1.000000" stroke="none" 
	d="
M94.552673,325.139771 
	C94.670547,325.041962 94.811890,325.498749 94.767899,325.733704 
	C94.390724,325.801636 94.294350,325.557922 94.552673,325.139771 
z"/>
<path fill="#F4FBF1" opacity="1.000000" stroke="none" 
	d="
M140.119141,317.232178 
	C140.342682,317.145233 140.684586,317.284698 141.054169,317.716553 
	C140.800400,317.825470 140.518951,317.642029 140.119141,317.232178 
z"/>
<path fill="#FAFEF7" opacity="1.000000" stroke="none" 
	d="
M63.223541,226.791656 
	C60.236797,226.997406 58.651783,226.401154 58.771362,223.315948 
	C58.957222,218.520721 58.820480,213.713013 58.820480,208.460907 
	C64.847046,208.460907 70.535561,208.460907 76.621872,208.460907 
	C76.621872,214.397461 76.621872,220.256729 76.621872,226.796906 
	C72.220322,226.796906 67.956940,226.796906 63.223541,226.791656 
z"/>
<path fill="#F4FBF1" opacity="1.000000" stroke="none" 
	d="
M437.781067,239.878128 
	C441.937653,239.689667 443.240112,241.745285 443.187195,245.119476 
	C443.161194,246.776047 443.231781,248.433960 443.220215,250.090988 
	C443.165833,257.888824 442.444519,258.525421 433.989532,257.800934 
	C433.989532,252.594910 433.850159,247.329071 434.138458,242.086731 
	C434.182129,241.292435 436.214081,240.607437 437.781067,239.878128 
z"/>
<path fill="#F4FBF1" opacity="1.000000" stroke="none" 
	d="
M56.142567,328.037537 
	C65.291946,327.566925 74.705276,327.449951 84.567078,327.483795 
	C84.549332,328.057007 84.079147,328.851654 83.617455,328.846741 
	C74.546547,328.750519 65.476624,328.561371 56.142567,328.037537 
z"/>
<path fill="#FCFDFA" opacity="1.000000" stroke="none" 
	d="
M49.189724,327.728943 
	C50.232113,327.416199 51.242077,327.508209 52.626694,327.677124 
	C52.329678,328.467560 51.658009,329.181122 50.986347,329.894714 
	C50.376667,329.307709 49.766983,328.720703 49.189724,327.728943 
z"/>
<path fill="#F4FBF1" opacity="1.000000" stroke="none" 
	d="
M118.094574,316.043732 
	C114.246376,316.536774 110.459930,316.536774 106.121811,316.536774 
	C106.121811,312.847534 106.121811,309.777283 106.121811,306.297455 
	C104.020439,306.139771 102.435303,306.020844 100.417725,305.810852 
	C104.234055,303.802338 105.913589,300.562958 105.259033,295.235138 
	C105.647415,291.328278 105.770241,288.172302 105.893074,285.016327 
	C110.092056,287.240967 107.046204,291.143524 108.000191,294.572327 
	C107.441856,298.345001 106.884743,301.664764 106.241821,305.495819 
	C110.586617,305.718170 114.009079,305.893311 118.156326,306.105530 
	C118.156326,309.361664 118.156326,312.456177 118.094574,316.043732 
z"/>
<path fill="#76B579" opacity="1.000000" stroke="none" 
	d="
M105.590302,284.763367 
	C105.770241,288.172302 105.647415,291.328278 105.260384,294.803528 
	C101.773056,294.958191 98.549919,294.793640 95.082306,293.982300 
	C94.765404,292.882812 94.692993,292.430084 94.620590,291.977386 
	C95.357430,283.428802 95.484787,283.339661 105.590302,284.763367 
z"/>
<path fill="#6BB96E" opacity="1.000000" stroke="none" 
	d="
M83.248840,279.009674 
	C83.096260,280.472870 82.943680,281.936066 82.753761,283.757385 
	C79.357353,283.757385 75.994606,283.757385 72.628372,283.753723 
	C70.394615,275.385101 71.244240,274.226898 80.741928,273.795074 
	C81.961617,273.926849 82.429138,273.973969 82.925659,274.437592 
	C83.052719,276.239319 83.150780,277.624481 83.248840,279.009674 
z"/>
<path fill="#CEEBCC" opacity="1.000000" stroke="none" 
	d="
M82.896652,274.021057 
	C82.429138,273.973969 81.961617,273.926849 81.170975,273.733215 
	C81.330368,270.481323 81.812889,267.376007 82.549789,263.827148 
	C83.142708,263.313538 83.448540,263.384857 83.873230,263.795410 
	C83.964470,266.788727 83.904144,269.584259 83.775253,273.041077 
	C83.476334,273.909332 83.206322,274.015564 82.896652,274.021057 
z"/>
<path fill="#FAFEF7" opacity="1.000000" stroke="none" 
	d="
M82.925659,274.437592 
	C83.206322,274.015564 83.476334,273.909332 83.815109,273.510803 
	C84.482315,273.373627 85.041084,273.428009 85.818542,273.656921 
	C85.360336,275.545044 84.683449,277.258545 83.627701,278.990875 
	C83.150780,277.624481 83.052719,276.239319 82.925659,274.437592 
z"/>
<path fill="#FAFEF7" opacity="1.000000" stroke="none" 
	d="
M117.018501,280.991089 
	C117.414787,281.423187 117.531395,281.878815 117.548561,282.680542 
	C116.758560,282.718597 116.067993,282.410553 115.377441,282.102509 
	C115.831238,281.739899 116.285027,281.377289 117.018501,280.991089 
z"/>
<path fill="#CEEBCC" opacity="1.000000" stroke="none" 
	d="
M119.001686,274.006805 
	C118.630562,274.826874 118.259430,275.646973 117.709778,276.757416 
	C117.296074,276.884308 117.129242,276.668060 117.001106,275.888306 
	C116.934540,274.749390 116.897621,274.121277 116.860710,273.493164 
	C117.024055,273.382019 117.187393,273.270874 117.869362,273.176300 
	C118.592560,273.464172 118.797127,273.735504 119.001686,274.006805 
z"/>
<path fill="#FAFEF7" opacity="1.000000" stroke="none" 
	d="
M116.530334,273.450317 
	C116.897621,274.121277 116.934540,274.749390 116.931442,275.692108 
	C116.266762,275.461243 115.642097,274.915771 114.989655,274.095459 
	C115.374580,273.682892 115.787270,273.545166 116.530334,273.450317 
z"/>
<path fill="#F4FBF1" opacity="1.000000" stroke="none" 
	d="
M94.362274,292.037323 
	C94.692993,292.430084 94.765404,292.882812 94.780022,293.676880 
	C94.516136,293.377899 94.310043,292.737579 94.362274,292.037323 
z"/>
<path fill="#EBF7E7" opacity="1.000000" stroke="none" 
	d="
M86.826553,289.888000 
	C86.614670,289.980347 86.300285,289.781647 85.800110,289.371155 
	C85.984230,289.305237 86.354134,289.451080 86.826553,289.888000 
z"/>
<path fill="#F4FBF1" opacity="1.000000" stroke="none" 
	d="
M116.943924,294.878815 
	C116.943924,294.878815 116.473991,294.993195 116.241043,294.928223 
	C116.093361,294.590698 116.245468,294.362701 116.686409,294.296814 
	C116.908386,294.414276 116.943924,294.878815 116.943924,294.878815 
z"/>
<path fill="#CEEBCC" opacity="1.000000" stroke="none" 
	d="
M117.194717,294.832275 
	C116.943924,294.878815 116.908386,294.414276 116.861961,294.185272 
	C116.815536,293.956268 117.223824,293.888214 117.429825,293.872986 
	C117.572388,294.167084 117.508949,294.476410 117.194717,294.832275 
z"/>
<path fill="#FAFEF7" opacity="1.000000" stroke="none" 
	d="
M58.856934,308.991943 
	C58.857697,305.868835 58.857697,303.235657 58.857697,300.157043 
	C64.910965,300.157043 70.594872,300.157043 76.633606,300.157043 
	C76.633606,305.943604 76.633606,311.651733 76.633606,317.702698 
	C70.891212,317.702698 65.324486,317.702698 58.856171,317.702698 
	C58.856171,314.951599 58.856171,312.216736 58.856934,308.991943 
z"/>
<path fill="#FCFDFA" opacity="1.000000" stroke="none" 
	d="
M118.008995,241.212570 
	C118.008995,241.212570 118.011696,241.667953 118.032974,241.894806 
	C118.006683,244.790131 117.959099,247.458603 117.664268,250.665894 
	C117.211266,251.377563 117.072319,251.593414 117.000183,251.852295 
	C114.313416,251.979492 111.626648,252.106705 108.478851,251.769287 
	C108.042336,248.110931 108.066841,244.917191 108.091354,241.723450 
	C108.777603,241.610886 109.463844,241.498306 110.620567,241.760376 
	C113.074883,241.789383 115.058708,241.443741 117.042542,241.098083 
	C117.042542,241.098083 117.045639,241.025986 117.299057,241.086456 
	C117.552475,241.146942 118.008995,241.212570 118.008995,241.212570 
z"/>
<path fill="#EBF7E7" opacity="1.000000" stroke="none" 
	d="
M107.766121,241.545486 
	C108.066841,244.917191 108.042336,248.110931 108.030960,251.772690 
	C107.687065,253.285385 107.330032,254.330078 106.525490,255.613403 
	C104.518311,255.230988 102.942482,254.647003 101.404213,253.976837 
	C100.234833,253.467392 99.113167,252.848434 97.970261,252.278229 
	C100.391869,252.120102 102.813477,251.961975 105.891998,251.760971 
	C105.891998,248.786285 105.891998,245.910461 105.895744,242.590408 
	C105.933647,241.960190 105.967812,241.774216 106.001228,241.304718 
	C106.480621,241.136642 106.960754,241.252090 107.766121,241.545486 
z"/>
<path fill="#CEEBCC" opacity="1.000000" stroke="none" 
	d="
M116.598846,241.055450 
	C115.058708,241.443741 113.074883,241.789383 110.968994,241.818451 
	C112.616348,241.338852 114.385750,241.175842 116.598846,241.055450 
z"/>
<path fill="#CEEBCC" opacity="1.000000" stroke="none" 
	d="
M118.008102,240.868225 
	C118.008995,241.212570 117.552475,241.146942 117.324760,241.111786 
	C117.181252,240.754593 117.325203,240.461945 117.701447,240.023438 
	C117.918381,240.073410 117.962799,240.298630 118.008102,240.868225 
z"/>
<path fill="#FEFEFB" opacity="1.000000" stroke="none" 
	d="
M97.516670,252.210022 
	C99.113167,252.848434 100.234833,253.467392 101.404213,253.976837 
	C102.942482,254.647003 104.518311,255.230988 106.425774,255.939056 
	C106.811234,256.763672 106.848892,257.501282 106.484390,258.692017 
	C105.718369,260.413605 105.354515,261.682068 104.990662,262.950500 
	C98.968887,263.003601 92.947098,263.056732 86.463486,262.589905 
	C85.647835,259.008698 85.294006,255.947433 84.940186,252.886169 
	C88.981148,252.638062 93.022118,252.389938 97.516670,252.210022 
z"/>
<path fill="#FAFEF7" opacity="1.000000" stroke="none" 
	d="
M84.562531,252.977905 
	C85.294006,255.947433 85.647835,259.008698 86.001274,262.507874 
	C86.000885,262.945801 85.573776,263.112549 84.951859,263.101196 
	C84.097740,263.210480 83.865547,263.331085 83.633347,263.451721 
	C83.817184,259.991028 84.001030,256.530334 84.562531,252.977905 
z"/>
<path fill="#CEEBCC" opacity="1.000000" stroke="none" 
	d="
M83.682404,263.623718 
	C83.865547,263.331085 84.097740,263.210480 84.722672,263.095428 
	C84.905563,263.352631 84.662674,263.566742 84.192017,263.889160 
	C83.997307,264.034973 83.731468,263.795685 83.682404,263.623718 
z"/>
<path fill="#FCFDFA" opacity="1.000000" stroke="none" 
	d="
M149.935043,284.839417 
	C143.618378,284.852722 137.301697,284.865997 130.437744,284.632721 
	C129.730469,284.168640 129.522476,284.016998 129.266464,283.931213 
	C129.178955,280.905334 129.091446,277.879425 129.007202,274.259827 
	C129.010452,273.666107 128.997437,273.391632 129.155502,273.326965 
	C129.313568,273.262268 129.647125,273.188629 129.647125,273.188629 
	C136.087814,273.215637 142.528488,273.242615 149.507507,273.592712 
	C150.659363,274.292572 151.272873,274.669342 151.907349,275.483002 
	C151.875748,278.252075 151.823212,280.584290 151.487701,282.986084 
	C150.781525,283.650269 150.358292,284.244873 149.935043,284.839417 
z"/>
<path fill="#FAFEF7" opacity="1.000000" stroke="none" 
	d="
M154.080292,252.221558 
	C156.412933,252.204391 158.745560,252.187210 161.624039,252.398438 
	C162.365417,252.831848 162.600433,252.969437 162.874939,253.039597 
	C162.930984,259.044342 162.987045,265.049072 162.708359,271.563232 
	C161.888092,272.623138 161.402557,273.173584 160.476074,273.777466 
	C157.371933,273.964020 154.708755,274.097107 151.967377,273.972107 
	C151.623688,273.483490 151.358185,273.252991 151.092667,273.022461 
	C151.177841,267.035950 151.263031,261.049469 151.713211,254.562363 
	C152.745575,253.448364 153.412933,252.834961 154.080292,252.221558 
z"/>
<path fill="#FAFEF7" opacity="1.000000" stroke="none" 
	d="
M128.997437,273.391632 
	C128.997437,273.391632 129.010452,273.666107 129.014801,273.803223 
	C125.982452,273.943695 122.945747,273.947113 119.455368,273.978668 
	C118.797127,273.735504 118.592560,273.464172 118.151764,273.086487 
	C117.954948,270.295166 117.994362,267.610199 118.273911,264.377808 
	C118.756157,263.660004 118.932281,263.437408 119.042419,263.162598 
	C121.720337,263.111084 124.398247,263.059570 127.546722,263.385315 
	C128.406326,264.517090 128.795380,265.271637 129.184418,266.026154 
	C129.183044,267.701233 129.181671,269.376282 129.072083,271.842010 
	C128.975052,272.885651 128.986252,273.138641 128.997437,273.391632 
z"/>
<path fill="#CEEBCC" opacity="1.000000" stroke="none" 
	d="
M160.917023,273.724030 
	C161.402557,273.173584 161.888092,272.623138 162.666656,272.029053 
	C163.497421,272.402374 164.035126,272.819336 164.862244,273.433441 
	C164.751328,274.075439 164.351013,274.520294 163.456879,274.744141 
	C162.281067,274.256775 161.599045,273.990387 160.917023,273.724030 
z"/>
<path fill="#CEEBCC" opacity="1.000000" stroke="none" 
	d="
M129.390656,265.788727 
	C128.795380,265.271637 128.406326,264.517090 127.992020,263.423706 
	C127.966774,263.084869 128.385223,262.926910 128.607544,262.944763 
	C129.047974,262.968872 129.266083,262.975098 129.807587,263.034302 
	C129.952927,263.908630 129.774902,264.729980 129.390656,265.788727 
z"/>
<path fill="#CEEBCC" opacity="1.000000" stroke="none" 
	d="
M153.722595,252.133591 
	C153.412933,252.834961 152.745575,253.448364 151.786285,254.111740 
	C152.117874,253.456360 152.741394,252.750992 153.722595,252.133591 
z"/>
<path fill="#CEEBCC" opacity="1.000000" stroke="none" 
	d="
M150.777527,273.066620 
	C151.358185,273.252991 151.623688,273.483490 151.975754,274.185242 
	C152.062302,274.656464 151.886383,275.046143 151.886383,275.046143 
	C151.272873,274.669342 150.659363,274.292572 149.964737,273.645691 
	C150.076569,273.287292 150.269485,273.199036 150.777527,273.066620 
z"/>
<path fill="#CEEBCC" opacity="1.000000" stroke="none" 
	d="
M140.948532,244.776184 
	C140.726166,244.832443 140.575119,244.651855 140.482544,244.445053 
	C140.456772,244.387451 140.604050,244.252380 140.838379,244.077972 
	C141.017166,244.178528 141.029556,244.353973 140.948532,244.776184 
z"/>
<path fill="#CEEBCC" opacity="1.000000" stroke="none" 
	d="
M162.853409,252.790512 
	C162.600433,252.969437 162.365417,252.831848 162.058014,252.453888 
	C162.313278,252.123459 162.608536,252.210281 162.853409,252.790512 
z"/>
<path fill="#CEEBCC" opacity="1.000000" stroke="none" 
	d="
M139.265900,262.948975 
	C139.227478,262.702026 139.467468,262.460144 139.965149,262.175720 
	C139.996658,262.406769 139.770493,262.680450 139.265900,262.948975 
z"/>
<path fill="#CEEBCC" opacity="1.000000" stroke="none" 
	d="
M129.155502,273.326965 
	C128.986252,273.138641 128.975052,272.885651 129.033859,272.258911 
	C129.371765,272.095947 129.550568,272.365753 129.643677,272.941620 
	C129.647125,273.188629 129.313568,273.262268 129.155502,273.326965 
z"/>
<path fill="#F4FBF1" opacity="1.000000" stroke="none" 
	d="
M167.015198,226.840851 
	C163.916656,226.841904 161.299072,226.841904 158.404266,226.841904 
	C158.404266,220.456619 158.404266,214.703918 158.404266,208.469589 
	C164.270172,208.469589 170.134995,208.469589 176.392456,208.469589 
	C176.392456,214.305557 176.392456,220.187103 176.392456,226.839798 
	C173.364136,226.839798 170.430145,226.839798 167.015198,226.840851 
z"/>
<path fill="#FEFEFB" opacity="1.000000" stroke="none" 
	d="
M154.570404,236.265778 
	C156.704132,236.899612 158.380478,237.694336 160.132721,237.933777 
	C162.157913,238.210526 164.249939,237.998169 166.312958,237.998169 
	C166.329819,238.606888 166.346680,239.215622 166.363556,239.824341 
	C159.325851,239.824341 152.286865,239.877823 145.253281,239.707626 
	C144.768845,239.695892 144.324814,238.014496 143.601242,236.599777 
	C145.739899,236.599777 147.120224,236.599777 148.728577,236.347046 
	C150.686584,236.123291 152.416580,236.152267 154.570404,236.265778 
z"/>
<path fill="#FEFEFB" opacity="1.000000" stroke="none" 
	d="
M179.553650,239.998749 
	C175.968307,240.000748 172.821228,240.000748 169.674149,240.000748 
	C169.680634,239.523941 169.687119,239.047134 169.693619,238.570328 
	C173.891266,238.570328 178.088928,238.570328 182.286591,238.570328 
	C182.334930,238.838593 182.383286,239.106857 182.431625,239.375122 
	C181.618393,239.582321 180.805161,239.789536 179.553650,239.998749 
z"/>
<path fill="#EBF7E7" opacity="1.000000" stroke="none" 
	d="
M105.378822,262.984009 
	C105.354515,261.682068 105.718369,260.413605 106.414749,259.056274 
	C106.420509,260.317413 106.093750,261.667480 105.378822,262.984009 
z"/>
<path fill="#EBF7E7" opacity="1.000000" stroke="none" 
	d="
M117.241623,251.853851 
	C117.072319,251.593414 117.211266,251.377563 117.585236,251.106628 
	C117.902481,251.367233 117.812347,251.649521 117.241623,251.853851 
z"/>
<path fill="#CEEBCC" opacity="1.000000" stroke="none" 
	d="
M118.780312,263.154236 
	C118.932281,263.437408 118.756157,263.660004 118.325089,263.933289 
	C118.263489,263.739380 118.390846,263.442627 118.780312,263.154236 
z"/>
<path fill="#69B86D" opacity="1.000000" stroke="none" 
	d="
M151.907349,275.483002 
	C151.886383,275.046143 152.062302,274.656464 152.053925,274.443298 
	C154.708755,274.097107 157.371933,273.964020 160.476074,273.777466 
	C161.599045,273.990387 162.281067,274.256775 163.224442,274.785583 
	C163.365005,277.800873 163.244217,280.553772 163.089890,284.070740 
	C159.621780,284.070740 156.274307,284.070740 152.445221,283.739868 
	C151.899277,283.244843 151.834976,283.080658 151.770660,282.916504 
	C151.823212,280.584290 151.875748,278.252075 151.907349,275.483002 
z"/>
<path fill="#CEEBCC" opacity="1.000000" stroke="none" 
	d="
M151.487701,282.986084 
	C151.834976,283.080658 151.899277,283.244843 151.986420,283.672424 
	C151.995926,284.148499 151.982635,284.361145 151.907455,284.887756 
	C151.413315,285.155975 150.981079,285.110199 150.241943,284.951935 
	C150.358292,284.244873 150.781525,283.650269 151.487701,282.986084 
z"/>
<path fill="#CEEBCC" opacity="1.000000" stroke="none" 
	d="
M152.896576,294.843079 
	C152.686844,294.878967 152.404938,294.691040 152.145721,294.232269 
	C152.452301,294.115662 152.670975,294.334930 152.896576,294.843079 
z"/>
<path fill="#EBF7E7" opacity="1.000000" stroke="none" 
	d="
M140.768158,299.226440 
	C140.768036,301.479675 140.768036,303.284576 140.768036,305.593506 
	C138.807953,305.726044 137.222595,305.911224 135.635559,305.926880 
	C129.190918,305.990540 128.802841,305.458557 129.210815,299.260498 
	C129.422089,296.050873 130.967667,294.656830 133.986099,295.071625 
	C136.648026,295.437408 140.934448,293.146149 140.768158,299.226440 
z"/>
<path fill="#CEEBCC" opacity="1.000000" stroke="none" 
	d="
M129.251953,284.174408 
	C129.522476,284.016998 129.730469,284.168640 129.979126,284.559875 
	C130.067795,284.733612 129.581741,284.761627 129.581741,284.761627 
	C129.581741,284.761627 129.237427,284.417603 129.251953,284.174408 
z"/>
</svg>