<svg version="1.1" id="Layer_1" xmlns="http://www.w3.org/2000/svg" xmlns:xlink="http://www.w3.org/1999/xlink" x="0px" y="0px"
	 width="100%" viewBox="0 0 192 192" enable-background="new 0 0 192 192" xml:space="preserve">
<path fill="#FEFEFE" opacity="1.000000" stroke="none" 
	d="
M95.000000,193.000000 
	C63.333336,193.000000 32.166672,193.000000 1.000004,193.000000 
	C1.000003,129.000000 1.000003,65.000008 1.000001,1.000013 
	C64.999992,1.000009 128.999985,1.000009 192.999969,1.000004 
	C192.999985,64.999985 192.999985,128.999969 193.000000,192.999969 
	C160.500000,193.000000 128.000000,193.000000 95.000000,193.000000 
M32.074612,104.414284 
	C32.044224,104.007233 32.013836,103.600182 32.911568,103.206177 
	C36.940880,103.134491 40.970196,103.062805 44.858017,103.384079 
	C44.858017,103.384079 44.873821,103.801437 44.808056,104.675735 
	C44.615620,107.670570 46.196526,111.610298 40.965733,111.951378 
	C40.965733,111.951378 40.979095,111.953529 41.060265,111.201164 
	C41.249912,107.723595 39.511707,107.627182 36.939327,108.314064 
	C35.538692,108.582031 34.138054,108.849998 31.846518,109.154922 
	C27.666857,109.148590 23.487198,109.142250 18.539999,109.055992 
	C17.771271,109.029839 17.002544,109.003677 15.667925,108.421066 
	C13.630808,107.874512 12.011592,107.865860 12.030806,110.714012 
	C12.077669,117.660934 12.046081,124.608398 12.046081,132.054733 
	C18.918949,132.054733 25.210869,132.136993 31.495607,131.961716 
	C32.388462,131.936813 33.246418,130.660767 34.120529,129.963776 
	C33.211712,129.305725 32.332180,128.133514 31.388945,128.079788 
	C27.568235,127.862190 23.718346,127.821274 19.897848,128.040192 
	C16.748358,128.220688 15.537241,127.132057 17.081163,124.011330 
	C17.844059,123.954430 18.606955,123.897522 20.249586,123.802902 
	C24.574129,123.543045 28.898672,123.283180 33.913338,123.014694 
	C34.604382,123.010429 35.295429,123.006172 36.635132,123.455376 
	C39.210819,123.455376 41.786507,123.455376 44.710640,123.455376 
	C44.796616,121.824425 44.871910,120.396088 45.727085,119.271233 
	C48.283001,119.875061 50.900780,120.300865 53.368526,121.158409 
	C54.588203,121.582245 55.531227,122.802185 56.599426,123.661919 
	C57.061649,122.423332 57.635906,121.212234 57.948761,119.936996 
	C58.177185,119.005928 58.061386,117.990417 58.503063,116.741158 
	C58.756996,116.517471 58.915508,116.239380 59.745167,115.797432 
	C60.512806,115.861336 61.280449,115.925240 61.992062,116.867325 
	C61.992062,119.403992 61.992062,121.940659 61.992062,125.506119 
	C65.261192,123.107674 67.473724,121.484421 70.515541,119.955719 
	C71.345917,119.970375 72.176300,119.985031 73.140327,120.845566 
	C73.673737,125.487495 71.890450,127.533340 66.968796,127.110146 
	C64.260132,126.877235 61.438904,127.560112 58.718204,128.087082 
	C57.839249,128.257309 57.118771,129.245773 56.325794,129.859940 
	C57.167297,130.595123 57.990215,131.941101 58.853291,131.967377 
	C64.928688,132.152237 71.012360,132.065475 77.194916,132.065475 
	C77.194916,123.744179 77.194916,116.059967 77.194916,106.970711 
	C75.190094,108.417595 74.094070,109.208603 72.290329,110.003502 
	C71.817993,110.008331 71.345657,110.013168 70.662292,109.242477 
	C68.139923,108.665779 65.617561,108.089073 63.047813,106.938889 
	C62.706139,106.293915 62.364460,105.648949 62.111145,104.457199 
	C62.109570,104.091743 62.107994,103.726280 62.992962,103.282730 
	C64.147545,103.269241 65.341713,103.436600 66.446342,103.194855 
	C67.723961,102.915245 68.922775,102.275497 70.155800,101.792114 
	C69.289322,100.901993 68.107285,100.147469 67.649384,99.081787 
	C67.231705,98.109734 67.267952,96.654381 67.700111,95.675018 
	C68.303246,94.308189 69.460587,93.185921 71.077408,91.977615 
	C71.798912,91.496063 72.520416,91.014519 74.004242,90.708679 
	C75.191719,89.820709 77.361267,88.981133 77.407806,88.036926 
	C77.717384,81.755211 77.683128,75.447098 77.453575,69.158768 
	C77.420280,68.246902 75.771255,66.669235 74.823601,66.633675 
	C68.867111,66.410210 62.892921,66.421600 56.936848,66.660789 
	C55.963520,66.699875 55.051006,68.253342 54.110390,69.106880 
	C55.098927,69.697510 56.061646,70.741852 57.080502,70.799835 
	C61.375469,71.044266 65.687180,70.994499 70.001068,71.850700 
	C69.996452,72.915756 69.991829,73.980820 69.062904,75.054947 
	C65.047653,75.039490 61.032406,75.024033 56.397511,75.021622 
	C55.215870,75.038048 54.034233,75.054466 52.098984,75.069221 
	C51.009418,76.048073 49.919853,77.026917 48.458298,78.233925 
	C48.230305,78.430252 48.077457,78.673752 47.135342,79.123352 
	C45.089409,79.077660 43.043480,79.031967 41.011200,78.229355 
	C38.953339,75.278908 38.577763,75.333862 35.896622,79.505867 
	C37.522694,79.708626 38.860504,79.875443 40.295292,80.806015 
	C38.907433,81.890228 37.519573,82.974449 35.424091,84.026672 
	C34.716911,84.005699 34.009731,83.984726 33.166080,83.065315 
	C33.166080,80.532387 33.166080,77.999466 33.166080,75.581390 
	C31.939064,75.302872 31.476068,75.108902 31.012051,75.106430 
	C27.100363,75.085564 23.188490,75.099716 18.529619,75.276863 
	C17.803230,75.532104 17.076841,75.787354 16.298523,75.108627 
	C15.879203,71.904228 17.168674,70.623199 20.485079,70.831749 
	C24.299997,71.071648 28.151421,71.019768 31.965387,70.767723 
	C32.837002,70.710129 33.620148,69.313812 34.444012,68.533638 
	C33.680149,67.869606 32.929344,66.647552 32.150368,66.629326 
	C25.575157,66.475441 18.994799,66.541542 12.031032,66.541542 
	C12.031032,74.011330 11.924289,80.483803 12.122799,86.946907 
	C12.161620,88.210831 13.383867,89.438416 14.060289,90.682762 
	C14.808463,89.467987 15.556638,88.253212 16.932751,87.024147 
	C17.561211,87.024300 18.189672,87.024445 18.950073,87.707848 
	C23.623478,88.082878 28.296204,88.470963 32.976460,88.714226 
	C33.049934,88.718048 33.215984,86.940796 34.076092,86.151306 
	C34.772968,86.414474 35.469849,86.677643 36.924946,87.085808 
	C40.004414,86.800095 40.090458,88.872993 39.169586,91.165764 
	C34.539062,91.706635 29.138739,89.596863 25.901043,95.054726 
	C25.730288,95.342567 24.668695,95.101952 24.011328,94.384727 
	C22.356138,93.330872 20.700949,92.277023 18.580210,90.926750 
	C17.600208,96.068665 20.255873,96.071976 23.057396,96.668388 
	C23.003704,97.113884 22.950010,97.559387 22.485678,98.264748 
	C22.233189,98.491821 22.083677,98.773567 21.359798,99.438454 
	C20.280985,101.745186 19.202171,104.051926 18.123358,106.358658 
	C18.878157,106.818604 19.632956,107.278557 20.387754,107.738503 
	C21.295967,106.626389 22.679468,105.633598 22.995995,104.372925 
	C23.422901,102.672638 23.028612,100.766159 23.856270,99.177162 
	C26.518272,99.256210 29.180277,99.335258 31.840643,99.698372 
	C31.840643,99.698372 31.963257,99.954620 31.959579,100.718788 
	C31.924997,101.482132 31.890415,102.245468 31.087551,102.935432 
	C29.771809,103.635437 28.456068,104.335442 27.140327,105.035454 
	C27.654312,105.951477 28.261505,107.676140 28.664553,107.629692 
	C29.806709,107.498032 30.865353,106.641846 31.992649,105.550812 
	C31.999878,105.377159 32.007111,105.203499 32.074612,104.414284 
M118.811600,91.170837 
	C118.358215,93.263016 120.199387,97.215744 115.031570,95.975586 
	C115.031570,93.635399 115.204742,91.624565 114.951225,89.669044 
	C114.840942,88.818344 113.854126,88.081291 113.265404,87.292633 
	C112.611687,88.048103 111.411163,88.789154 111.390793,89.561333 
	C111.228264,95.722427 111.183746,101.893280 111.408379,108.049995 
	C111.438263,108.868874 113.182541,109.625206 114.603104,110.799065 
	C115.588974,100.079659 115.588974,100.079659 118.844254,100.650124 
	C118.844254,103.606201 118.844254,106.592728 118.844254,109.579254 
	C119.250687,109.875351 119.657120,110.171448 120.063553,110.467545 
	C120.828560,109.469215 122.218185,108.493484 122.255272,107.468811 
	C122.466087,101.644539 122.415833,95.807205 122.286598,89.978027 
	C122.266533,89.072708 121.383148,88.186516 120.898987,87.291473 
	C120.203110,88.295662 119.507233,89.299850 118.811600,91.170837 
M103.155067,101.765572 
	C103.855850,103.787521 104.320396,105.940651 105.343681,107.783531 
	C105.984695,108.937965 107.466217,109.625687 108.570610,110.522820 
	C108.042686,102.263260 102.787544,95.053848 109.930878,87.554886 
	C109.202805,87.276649 108.474731,86.998405 107.746651,86.720169 
	C105.907257,89.126770 104.067863,91.533379 102.211723,93.961884 
	C101.381409,87.501450 101.381409,87.501450 98.186752,88.009071 
	C98.186752,95.278534 98.186752,102.548004 98.186752,109.817467 
	C98.619469,110.070763 99.052185,110.324059 99.484894,110.577362 
	C100.259781,109.498184 101.389114,108.518005 101.724785,107.316154 
	C102.204109,105.600006 102.102211,103.721527 103.155067,101.765572 
M153.952621,87.519775 
	C152.358246,88.102165 149.546585,88.429840 149.362961,89.307419 
	C147.951050,96.055099 147.049210,102.909500 145.989059,109.730782 
	C146.350830,109.953003 146.712616,110.175224 147.074387,110.397453 
	C147.925735,109.573418 148.792648,108.764725 149.623642,107.920647 
	C150.329987,107.203171 150.994904,106.444885 151.678162,105.704659 
	C152.493973,106.462677 153.289307,107.244354 154.130981,107.972481 
	C155.093369,108.805061 156.096954,109.590042 157.082642,110.395699 
	C157.434921,110.105362 157.787201,109.815025 158.139496,109.524689 
	C156.931732,102.378197 155.723969,95.231705 153.952621,87.519775 
M135.532043,104.853127 
	C134.581650,99.163528 133.631256,93.473923 132.633072,87.498283 
	C131.061905,87.419548 129.643707,87.348473 127.805176,87.256332 
	C126.545128,94.916481 125.328232,102.314293 124.111336,109.712105 
	C124.490250,109.945679 124.869164,110.179253 125.248077,110.412827 
	C126.122429,109.599251 127.029953,108.817886 127.860809,107.962082 
	C128.548462,107.253777 129.145645,106.457611 129.782898,105.700371 
	C130.620071,106.437843 131.453644,107.179466 132.295395,107.911697 
	C133.251251,108.743195 134.214432,109.566277 135.174438,110.393021 
	C135.487823,110.115631 135.801224,109.838242 136.114609,109.560852 
	C135.995377,108.278290 135.876129,106.995728 135.532043,104.853127 
M180.228943,106.878029 
	C178.844696,106.770126 177.460464,106.662224 176.228729,106.566208 
	C176.228729,104.053764 176.228729,102.096443 176.228729,100.786186 
	C178.088104,99.829613 179.519363,99.093285 180.950623,98.356956 
	C179.517471,97.411873 178.084335,96.466789 176.190430,95.217857 
	C176.190430,94.383400 176.190430,92.768311 176.190430,90.803040 
	C178.122849,90.803040 179.876694,90.803040 181.622086,90.803040 
	C181.643311,86.804382 179.631714,86.242310 172.244797,88.028809 
	C172.244797,89.397995 172.244797,90.869194 172.244797,92.340385 
	C172.244797,98.128044 172.244797,103.915703 172.244797,110.157509 
	C175.038712,110.157509 177.507706,110.230232 179.970673,110.139359 
	C183.145859,110.022202 182.668396,108.627602 180.228943,106.878029 
M169.781570,89.816597 
	C166.771515,88.699020 163.761459,87.581436 160.219391,86.266319 
	C160.219391,95.151123 160.219391,102.510384 160.219391,110.424377 
	C165.805969,108.635658 161.889343,103.919785 163.948212,101.356293 
	C170.429306,99.625916 170.991470,98.655350 169.781570,89.816597 
M143.010452,92.924400 
	C143.026260,92.592865 142.906311,92.128258 143.079803,91.951271 
	C144.254532,90.752823 145.491257,89.615158 146.707932,88.457840 
	C144.732346,88.044441 142.769058,87.549606 140.776443,87.249115 
	C139.637833,87.077423 138.142502,86.793465 137.374756,87.346771 
	C136.627594,87.885216 136.603607,89.427101 136.262100,90.528389 
	C140.912659,90.977669 138.941437,94.561646 139.115265,96.922707 
	C139.371124,100.398285 138.985703,103.923386 139.283356,107.392220 
	C139.377838,108.493355 140.780136,109.482262 141.583969,110.522530 
	C142.058853,110.255531 142.533737,109.988541 143.008621,109.721542 
	C143.008621,104.425842 143.008621,99.130135 143.010452,92.924400 
M87.704750,85.611649 
	C87.704750,95.197479 87.704750,104.783302 87.704750,114.369133 
	C87.979637,114.368523 88.254517,114.367912 88.529404,114.367302 
	C88.529404,104.767845 88.529404,95.168396 87.704750,85.611649 
z"/>
<path fill="#6BBB6E" opacity="1.000000" stroke="none" 
	d="
M62.048088,115.989151 
	C61.280449,115.925240 60.512806,115.861336 59.081894,115.896042 
	C58.312092,116.333954 58.205563,116.673248 58.099037,117.012543 
	C58.061386,117.990417 58.177185,119.005928 57.948761,119.936996 
	C57.635906,121.212234 57.061649,122.423332 56.599426,123.661919 
	C55.531227,122.802185 54.588203,121.582245 53.368526,121.158409 
	C50.900780,120.300865 48.283001,119.875061 45.352165,119.143425 
	C44.977242,119.015617 45.033405,119.004852 45.057999,118.593231 
	C45.447140,114.432816 42.700668,115.201500 40.605621,114.678329 
	C40.744125,113.492401 40.847942,112.702744 40.951763,111.913094 
	C46.196526,111.610298 44.615620,107.670570 45.219757,104.264771 
	C47.023483,104.265030 48.415504,104.676270 49.721241,105.425270 
	C50.245277,106.503670 50.736637,107.705238 51.488064,107.899170 
	C53.815041,108.499763 56.240978,108.716911 58.697464,109.396057 
	C59.833408,111.814056 60.900394,113.918892 61.992371,116.026169 
	C62.017361,116.028618 62.048088,115.989151 62.048088,115.989151 
z"/>
<path fill="#1A1A19" opacity="1.000000" stroke="none" 
	d="
M118.811478,90.737442 
	C119.507233,89.299850 120.203110,88.295662 120.898987,87.291473 
	C121.383148,88.186516 122.266533,89.072708 122.286598,89.978027 
	C122.415833,95.807205 122.466087,101.644539 122.255272,107.468811 
	C122.218185,108.493484 120.828560,109.469215 120.063553,110.467545 
	C119.657120,110.171448 119.250687,109.875351 118.844254,109.579254 
	C118.844254,106.592728 118.844254,103.606201 118.844254,100.650124 
	C115.588974,100.079659 115.588974,100.079659 114.603104,110.799065 
	C113.182541,109.625206 111.438263,108.868874 111.408379,108.049995 
	C111.183746,101.893280 111.228264,95.722427 111.390793,89.561333 
	C111.411163,88.789154 112.611687,88.048103 113.265396,87.292633 
	C113.854126,88.081291 114.840942,88.818344 114.951225,89.669044 
	C115.204742,91.624565 115.031570,93.635399 115.031570,95.975586 
	C120.199387,97.215744 118.358215,93.263016 118.811478,90.737442 
z"/>
<path fill="#71BC75" opacity="1.000000" stroke="none" 
	d="
M69.992767,71.052361 
	C65.687180,70.994499 61.375469,71.044266 57.080502,70.799835 
	C56.061646,70.741852 55.098927,69.697510 54.110390,69.106873 
	C55.051006,68.253342 55.963520,66.699875 56.936848,66.660789 
	C62.892921,66.421600 68.867111,66.410210 74.823601,66.633675 
	C75.771255,66.669235 77.420280,68.246902 77.453575,69.158768 
	C77.683128,75.447098 77.717384,81.755211 77.407806,88.036926 
	C77.361267,88.981133 75.191719,89.820709 73.617111,90.190109 
	C73.219940,84.567581 73.160858,79.463028 73.222084,74.359924 
	C73.249619,72.065262 72.938354,70.335098 69.992767,71.052361 
z"/>
<path fill="#F2F8EF" opacity="1.000000" stroke="none" 
	d="
M69.996918,71.451530 
	C72.938354,70.335098 73.249619,72.065262 73.222084,74.359924 
	C73.160858,79.463028 73.219940,84.567581 73.235947,90.102249 
	C72.520416,91.014519 71.798912,91.496063 70.276672,91.826485 
	C64.350243,91.651123 59.224541,91.626884 54.061768,91.191254 
	C53.486549,89.923668 52.948402,89.067482 52.410259,88.211288 
	C51.271553,89.480652 50.132847,90.750015 48.600525,91.989014 
	C47.158318,92.036530 46.109730,92.114426 44.955101,91.937790 
	C44.569355,91.456306 44.289646,91.229347 44.030838,90.553368 
	C44.051739,87.885445 44.051739,85.666542 44.051739,83.254417 
	C47.399368,83.105827 50.099094,82.985992 52.852592,82.863770 
	C52.852592,79.926163 52.852592,77.498528 52.852592,75.070885 
	C54.034233,75.054466 55.215870,75.038048 56.504517,75.377426 
	C56.611519,80.096947 56.611519,84.460655 56.611519,88.754417 
	C61.328339,88.754417 65.678162,88.754417 69.987213,88.754417 
	C69.987213,83.899017 69.987213,79.472450 69.987213,75.045876 
	C69.991829,73.980820 69.996452,72.915756 69.996918,71.451530 
z"/>
<path fill="#6EBB72" opacity="1.000000" stroke="none" 
	d="
M72.998039,109.999603 
	C74.094070,109.208603 75.190094,108.417595 77.194916,106.970711 
	C77.194916,116.059967 77.194916,123.744179 77.194916,132.065475 
	C71.012360,132.065475 64.928688,132.152237 58.853291,131.967377 
	C57.990215,131.941101 57.167297,130.595123 56.325798,129.859940 
	C57.118771,129.245773 57.839249,128.257309 58.718204,128.087082 
	C61.438904,127.560112 64.260132,126.877235 66.968796,127.110146 
	C71.890450,127.533340 73.673737,125.487495 73.152817,119.973923 
	C73.109543,116.068062 73.053787,113.033829 72.998039,109.999603 
z"/>
<path fill="#1D1C1C" opacity="1.000000" stroke="none" 
	d="
M102.701797,101.838974 
	C102.102211,103.721527 102.204109,105.600006 101.724785,107.316154 
	C101.389114,108.518005 100.259781,109.498184 99.484894,110.577362 
	C99.052185,110.324059 98.619469,110.070763 98.186752,109.817467 
	C98.186752,102.548004 98.186752,95.278534 98.191788,88.007706 
	C101.381409,87.501450 101.381409,87.501450 102.211723,93.961884 
	C104.067863,91.533379 105.907257,89.126770 107.746651,86.720169 
	C108.474731,86.998405 109.202805,87.276649 109.930878,87.554886 
	C102.787544,95.053848 108.042686,102.263260 108.570610,110.522820 
	C107.466217,109.625687 105.984695,108.937965 105.343681,107.783531 
	C104.320396,105.940651 103.855850,103.787521 102.701797,101.838974 
z"/>
<path fill="#222121" opacity="1.000000" stroke="none" 
	d="
M154.234406,87.802490 
	C155.723969,95.231705 156.931732,102.378197 158.139496,109.524689 
	C157.787201,109.815025 157.434921,110.105362 157.082642,110.395699 
	C156.096954,109.590042 155.093369,108.805061 154.130981,107.972481 
	C153.289307,107.244354 152.493973,106.462677 151.678162,105.704651 
	C150.994904,106.444885 150.329987,107.203171 149.623642,107.920647 
	C148.792648,108.764725 147.925735,109.573418 147.074387,110.397453 
	C146.712616,110.175224 146.350830,109.953003 145.989059,109.730782 
	C147.049210,102.909500 147.951050,96.055099 149.362961,89.307419 
	C149.546585,88.429840 152.358246,88.102165 154.234406,87.802490 
z"/>
<path fill="#201F1F" opacity="1.000000" stroke="none" 
	d="
M135.644470,105.283150 
	C135.876129,106.995728 135.995377,108.278290 136.114609,109.560852 
	C135.801224,109.838242 135.487823,110.115631 135.174438,110.393021 
	C134.214432,109.566277 133.251251,108.743195 132.295395,107.911697 
	C131.453644,107.179466 130.620071,106.437843 129.782898,105.700371 
	C129.145645,106.457611 128.548462,107.253777 127.860809,107.962082 
	C127.029953,108.817886 126.122429,109.599251 125.248077,110.412827 
	C124.869164,110.179253 124.490250,109.945679 124.111336,109.712105 
	C125.328232,102.314293 126.545128,94.916481 127.805176,87.256332 
	C129.643707,87.348473 131.061905,87.419548 132.633072,87.498283 
	C133.631256,93.473923 134.581650,99.163528 135.644470,105.283150 
z"/>
<path fill="#6EBB72" opacity="1.000000" stroke="none" 
	d="
M16.304813,87.038437 
	C15.556638,88.253212 14.808463,89.467987 14.060287,90.682762 
	C13.383867,89.438416 12.161620,88.210831 12.122799,86.946907 
	C11.924289,80.483803 12.031032,74.011330 12.031032,66.541542 
	C18.994799,66.541542 25.575157,66.475441 32.150368,66.629326 
	C32.929344,66.647552 33.680149,67.869606 34.444012,68.533638 
	C33.620148,69.313812 32.837002,70.710129 31.965387,70.767723 
	C28.151421,71.019768 24.299997,71.071648 20.485079,70.831749 
	C17.168674,70.623199 15.879203,71.904228 16.216549,75.944931 
	C16.191322,80.200294 16.248068,83.619370 16.304813,87.038437 
z"/>
<path fill="#242323" opacity="1.000000" stroke="none" 
	d="
M180.610199,106.894897 
	C182.668396,108.627602 183.145859,110.022202 179.970673,110.139359 
	C177.507706,110.230232 175.038712,110.157509 172.244797,110.157509 
	C172.244797,103.915703 172.244797,98.128044 172.244797,92.340385 
	C172.244797,90.869194 172.244797,89.397995 172.244797,88.028809 
	C179.631714,86.242310 181.643311,86.804382 181.622086,90.803040 
	C179.876694,90.803040 178.122849,90.803040 176.190430,90.803040 
	C176.190430,92.768311 176.190430,94.383400 176.190430,95.217857 
	C178.084335,96.466789 179.517471,97.411873 180.950623,98.356956 
	C179.519363,99.093285 178.088104,99.829613 176.228729,100.786186 
	C176.228729,102.096443 176.228729,104.053764 176.228729,106.566208 
	C177.460464,106.662224 178.844696,106.770126 180.610199,106.894897 
z"/>
<path fill="#6BB96F" opacity="1.000000" stroke="none" 
	d="
M16.319155,124.029610 
	C15.537241,127.132057 16.748358,128.220688 19.897848,128.040192 
	C23.718346,127.821274 27.568235,127.862190 31.388945,128.079788 
	C32.332180,128.133514 33.211712,129.305725 34.120529,129.963776 
	C33.246418,130.660767 32.388462,131.936813 31.495607,131.961716 
	C25.210869,132.136993 18.918949,132.054733 12.046081,132.054733 
	C12.046081,124.608398 12.077669,117.660934 12.030806,110.714012 
	C12.011592,107.865860 13.630808,107.874512 15.889544,109.163788 
	C16.180492,114.614212 16.249823,119.321907 16.319155,124.029610 
z"/>
<path fill="#6DBB70" opacity="1.000000" stroke="none" 
	d="
M54.098843,91.602646 
	C59.224541,91.626884 64.350243,91.651123 69.928345,91.817169 
	C69.460587,93.185921 68.303246,94.308189 67.700111,95.675018 
	C67.267952,96.654381 67.231705,98.109734 67.649384,99.081787 
	C68.107285,100.147469 69.289322,100.901993 70.155800,101.792114 
	C68.922775,102.275497 67.723961,102.915245 66.446342,103.194855 
	C65.341713,103.436600 64.147545,103.269241 62.524799,103.183655 
	C62.056637,103.084579 61.791744,103.003387 61.822071,102.564240 
	C61.856483,100.816788 62.154755,99.415405 61.778885,98.227295 
	C61.428635,97.120163 60.361217,96.239906 59.609501,95.259773 
	C58.828526,96.210144 57.663692,97.052589 57.358837,98.136826 
	C56.929096,99.665215 57.136234,101.372673 57.061268,102.971756 
	C57.051464,102.939941 56.990101,102.914093 56.551369,102.948517 
	C53.881222,102.982933 51.649811,102.982933 49.418396,102.982933 
	C49.250835,102.511032 49.083275,102.039139 48.915710,101.567238 
	C50.085499,100.638031 51.255287,99.708824 52.466442,98.746758 
	C49.658451,95.615295 51.839142,93.599716 54.098843,91.602646 
z"/>
<path fill="#73BD76" opacity="1.000000" stroke="none" 
	d="
M33.223213,123.023315 
	C28.898672,123.283180 24.574129,123.543045 19.696932,123.379066 
	C19.198698,118.348793 19.253117,113.742348 19.307537,109.135910 
	C23.487198,109.142250 27.666857,109.148590 32.399830,109.582047 
	C33.043167,114.347229 33.133190,118.685272 33.223213,123.023315 
M29.664497,116.598465 
	C29.450155,110.774780 25.805168,113.509773 23.178368,113.605385 
	C23.178368,115.864334 23.178368,117.765892 23.178368,120.061127 
	C25.748898,119.360382 28.992712,121.946236 29.664497,116.598465 
z"/>
<path fill="#6DBB70" opacity="1.000000" stroke="none" 
	d="
M33.338833,85.994720 
	C33.215984,86.940796 33.049934,88.718048 32.976460,88.714226 
	C28.296204,88.470963 23.623478,88.082878 18.965729,86.910889 
	C19.079813,82.443741 19.178244,78.773537 19.276672,75.103340 
	C23.188490,75.099716 27.100363,75.085564 31.012051,75.106430 
	C31.476068,75.108902 31.939064,75.302872 33.166080,75.581390 
	C33.166080,77.999466 33.166080,80.532387 33.150681,83.765053 
	C33.203133,84.974770 33.270985,85.484741 33.338833,85.994720 
M23.684034,79.102005 
	C23.343563,81.206879 23.003090,83.311752 22.660299,85.430939 
	C30.049057,86.180534 30.504398,85.652748 28.900461,78.926331 
	C27.510876,78.926331 26.037045,78.926331 23.684034,79.102005 
z"/>
<path fill="#100F0F" opacity="1.000000" stroke="none" 
	d="
M169.916382,90.183502 
	C170.991470,98.655350 170.429306,99.625916 163.948212,101.356293 
	C161.889343,103.919785 165.805969,108.635658 160.219391,110.424377 
	C160.219391,102.510384 160.219391,95.151123 160.219391,86.266319 
	C163.761459,87.581436 166.771515,88.699020 169.916382,90.183502 
M166.067810,97.186592 
	C166.318695,95.472176 166.734848,93.751526 166.670532,92.049011 
	C166.658737,91.736572 164.695709,91.497826 163.633331,91.225067 
	C163.647980,93.492691 161.468872,96.361137 166.067810,97.186592 
z"/>
<path fill="#6DBB70" opacity="1.000000" stroke="none" 
	d="
M69.525055,75.050415 
	C69.987213,79.472450 69.987213,83.899017 69.987213,88.754417 
	C65.678162,88.754417 61.328339,88.754417 56.611519,88.754417 
	C56.611519,84.460655 56.611519,80.096947 56.814339,75.370903 
	C61.032406,75.024033 65.047653,75.039490 69.525055,75.050415 
M66.007721,85.603851 
	C66.336700,83.505516 66.665672,81.407181 67.012062,79.197777 
	C64.235710,79.197777 62.334820,79.197777 60.382774,79.197777 
	C60.382774,81.524811 60.382774,83.539383 60.382774,85.807259 
	C62.245216,85.807259 63.710613,85.807259 66.007721,85.603851 
z"/>
<path fill="#262625" opacity="1.000000" stroke="none" 
	d="
M143.009537,93.379417 
	C143.008621,99.130135 143.008621,104.425842 143.008621,109.721542 
	C142.533737,109.988541 142.058853,110.255531 141.583969,110.522530 
	C140.780136,109.482262 139.377838,108.493355 139.283356,107.392220 
	C138.985703,103.923386 139.371124,100.398285 139.115265,96.922707 
	C138.941437,94.561646 140.912659,90.977669 136.262085,90.528389 
	C136.603607,89.427101 136.627594,87.885216 137.374756,87.346771 
	C138.142502,86.793465 139.637833,87.077423 140.776443,87.249115 
	C142.769058,87.549606 144.732346,88.044441 146.707932,88.457840 
	C145.491257,89.615158 144.254532,90.752823 143.079803,91.951271 
	C142.906311,92.128258 143.026260,92.592865 143.009537,93.379417 
z"/>
<path fill="#6EBB72" opacity="1.000000" stroke="none" 
	d="
M52.475788,75.070053 
	C52.852592,77.498528 52.852592,79.926163 52.852592,82.863770 
	C50.099094,82.985992 47.399368,83.105827 44.051739,83.254417 
	C44.051739,85.666542 44.051739,87.885445 43.627411,90.559937 
	C42.128349,91.000755 41.053616,90.985970 39.991066,90.994659 
	C40.003250,91.018143 40.046898,91.048019 40.046898,91.048019 
	C40.090458,88.872993 40.004414,86.800095 36.536903,86.653107 
	C36.143143,85.499825 36.137428,84.779243 36.131714,84.058662 
	C37.519573,82.974449 38.907433,81.890228 40.463249,80.326218 
	C40.876266,79.612106 40.998379,79.325394 40.997547,78.986275 
	C43.043480,79.031967 45.089409,79.077660 47.827019,79.024582 
	C48.622562,78.619133 48.726425,78.312447 48.830288,78.005760 
	C49.919853,77.026917 51.009418,76.048073 52.475788,75.070053 
z"/>
<path fill="#73BD76" opacity="1.000000" stroke="none" 
	d="
M69.686256,119.861168 
	C67.473724,121.484421 65.261192,123.107674 61.992062,125.506119 
	C61.992062,121.940659 61.992062,119.403992 62.020073,116.428238 
	C62.048088,115.989151 62.017361,116.028618 62.397690,116.003410 
	C63.880756,115.340416 64.983498,114.702637 66.086235,114.064857 
	C65.256676,113.105064 64.178612,112.259773 63.668545,111.152771 
	C63.173866,110.079178 63.262650,108.736740 63.095192,107.512375 
	C65.617561,108.089073 68.139923,108.665779 70.694412,110.062218 
	C70.379768,113.875031 70.033012,116.868095 69.686256,119.861168 
z"/>
<path fill="#66B869" opacity="1.000000" stroke="none" 
	d="
M45.061142,92.192322 
	C46.109730,92.114426 47.158318,92.036530 48.563541,92.424072 
	C48.569107,95.432213 50.314423,98.949211 45.677734,99.563515 
	C45.306793,99.612656 45.218922,101.798317 44.999508,102.991119 
	C40.970196,103.062805 36.940880,103.134491 32.463493,103.120415 
	C32.015419,103.034653 31.855833,103.008812 31.855833,103.008812 
	C31.890415,102.245468 31.924997,101.482132 32.411186,100.326332 
	C36.865322,100.040840 41.178905,100.756134 42.612019,95.119827 
	C43.668678,94.135101 44.364910,93.163712 45.061142,92.192322 
z"/>
<path fill="#73BD76" opacity="1.000000" stroke="none" 
	d="
M31.842281,99.414307 
	C29.180277,99.335258 26.518272,99.256210 23.441166,99.078133 
	C23.026064,98.979103 23.027565,99.029251 23.031403,98.768463 
	C22.988932,98.340080 22.942625,98.172478 22.896318,98.004883 
	C22.950010,97.559387 23.003704,97.113884 23.247015,96.253670 
	C23.740444,95.682060 23.935507,95.438194 24.021824,95.107346 
	C24.668695,95.101952 25.730288,95.342567 25.901043,95.054726 
	C29.138739,89.596863 34.539062,91.706635 39.608242,91.106888 
	C40.046898,91.048019 40.003250,91.018143 39.992950,91.398804 
	C39.994164,92.854652 40.005680,93.929840 39.585037,95.025894 
	C36.964550,95.046776 34.776230,95.046776 33.044346,95.046776 
	C32.532463,96.906624 32.187370,98.160461 31.842281,99.414307 
z"/>
<path fill="#CDE5C9" opacity="1.000000" stroke="none" 
	d="
M44.928764,103.187599 
	C45.218922,101.798317 45.306793,99.612656 45.677734,99.563515 
	C50.314423,98.949211 48.569107,95.432213 48.957161,92.454453 
	C50.132847,90.750015 51.271553,89.480652 52.410259,88.211288 
	C52.948402,89.067482 53.486549,89.923668 54.061768,91.191254 
	C51.839142,93.599716 49.658451,95.615295 52.466442,98.746758 
	C51.255287,99.708824 50.085499,100.638031 48.915710,101.567238 
	C49.083275,102.039139 49.250835,102.511032 49.418396,102.982933 
	C51.649811,102.982933 53.881222,102.982933 56.484669,103.345505 
	C54.506981,104.167885 52.157253,104.627693 49.807529,105.087509 
	C48.415504,104.676270 47.023483,104.265030 45.252640,103.827621 
	C44.873821,103.801437 44.858017,103.384079 44.928764,103.187599 
z"/>
<path fill="#F4FAF2" opacity="1.000000" stroke="none" 
	d="
M33.568275,123.019012 
	C33.133190,118.685272 33.043167,114.347229 32.845284,109.563576 
	C34.138054,108.849998 35.538692,108.582031 36.853928,108.938339 
	C35.954224,114.265335 39.602303,111.109489 40.979095,111.953529 
	C40.979095,111.953529 40.965733,111.951378 40.958748,111.932236 
	C40.847942,112.702744 40.744125,113.492401 40.500443,114.687607 
	C40.360580,115.093155 40.110703,115.414963 39.678566,115.465889 
	C33.635201,116.041275 36.998306,120.474297 35.986473,123.001915 
	C35.295429,123.006172 34.604382,123.010429 33.568275,123.019012 
z"/>
<path fill="#A2CFA3" opacity="1.000000" stroke="none" 
	d="
M88.117081,85.590294 
	C88.529404,95.168396 88.529404,104.767845 88.529404,114.367302 
	C88.254517,114.367912 87.979637,114.368523 87.704750,114.369133 
	C87.704750,104.783302 87.704750,95.197479 88.117081,85.590294 
z"/>
<path fill="#7AC07D" opacity="1.000000" stroke="none" 
	d="
M36.310802,123.228645 
	C36.998306,120.474297 33.635201,116.041275 39.682404,115.922028 
	C40.123917,120.216949 42.743042,119.309158 45.033405,119.004852 
	C45.033405,119.004852 44.977242,119.015617 44.962227,118.991684 
	C44.871910,120.396088 44.796616,121.824425 44.710640,123.455376 
	C41.786507,123.455376 39.210819,123.455376 36.310802,123.228645 
z"/>
<path fill="#BDDFBB" opacity="1.000000" stroke="none" 
	d="
M49.721241,105.425262 
	C52.157253,104.627693 54.506981,104.167885 56.923401,103.311081 
	C56.990101,102.914093 57.051464,102.939941 57.455193,102.941872 
	C59.169865,102.963669 60.480804,102.983528 61.791744,103.003387 
	C61.791744,103.003387 62.056637,103.084579 62.081528,103.222702 
	C62.107994,103.726280 62.109570,104.091743 61.773380,104.759918 
	C60.499912,106.402718 59.564209,107.742805 58.628506,109.082893 
	C56.240978,108.716911 53.815041,108.499763 51.488064,107.899170 
	C50.736637,107.705238 50.245277,106.503670 49.721241,105.425262 
z"/>
<path fill="#F4FAF2" opacity="1.000000" stroke="none" 
	d="
M18.923767,109.095947 
	C19.253117,113.742348 19.198698,118.348793 19.257065,123.397926 
	C18.606955,123.897522 17.844059,123.954430 16.700159,124.020470 
	C16.249823,119.321907 16.180492,114.614212 16.172489,109.442017 
	C17.002544,109.003677 17.771271,109.029839 18.923767,109.095947 
z"/>
<path fill="#CDE5C9" opacity="1.000000" stroke="none" 
	d="
M31.841461,99.556335 
	C32.187370,98.160461 32.532463,96.906624 33.044346,95.046776 
	C34.776230,95.046776 36.964550,95.046776 39.957909,95.032898 
	C41.259155,95.057076 41.755371,95.095123 42.251587,95.133179 
	C41.178905,100.756134 36.865322,100.040840 32.413025,99.944244 
	C31.963257,99.954620 31.840643,99.698372 31.841461,99.556335 
z"/>
<path fill="#E1EFDD" opacity="1.000000" stroke="none" 
	d="
M58.697464,109.396057 
	C59.564209,107.742805 60.499912,106.402718 61.729198,105.033302 
	C62.364460,105.648949 62.706139,106.293915 63.071503,107.225632 
	C63.262650,108.736740 63.173866,110.079178 63.668545,111.152771 
	C64.178612,112.259773 65.256676,113.105064 66.086235,114.064857 
	C64.983498,114.702637 63.880756,115.340416 62.372700,116.000961 
	C60.900394,113.918892 59.833408,111.814056 58.697464,109.396057 
z"/>
<path fill="#F0F8EE" opacity="1.000000" stroke="none" 
	d="
M18.903147,75.190102 
	C19.178244,78.773537 19.079813,82.443741 18.899757,86.569267 
	C18.189672,87.024445 17.561211,87.024300 16.618782,87.031296 
	C16.248068,83.619370 16.191322,80.200294 16.242516,76.411911 
	C17.076841,75.787354 17.803230,75.532104 18.903147,75.190102 
z"/>
<path fill="#6BB96F" opacity="1.000000" stroke="none" 
	d="
M23.006393,98.963638 
	C23.028612,100.766159 23.422901,102.672638 22.995995,104.372925 
	C22.679468,105.633598 21.295967,106.626389 20.387754,107.738503 
	C19.632956,107.278557 18.878157,106.818604 18.123358,106.358658 
	C19.202171,104.051926 20.280985,101.745186 21.951529,99.321228 
	C22.704695,99.145744 22.866129,99.087502 23.027565,99.029251 
	C23.027565,99.029251 23.026064,98.979103 23.006393,98.963638 
z"/>
<path fill="#F0F8EE" opacity="1.000000" stroke="none" 
	d="
M24.016575,94.746033 
	C23.935507,95.438194 23.740444,95.682060 23.209734,95.918198 
	C20.255873,96.071976 17.600208,96.068665 18.580210,90.926750 
	C20.700949,92.277023 22.356138,93.330872 24.016575,94.746033 
z"/>
<path fill="#CDE5C9" opacity="1.000000" stroke="none" 
	d="
M31.999434,103.113892 
	C32.013836,103.600182 32.044224,104.007233 31.786833,104.738266 
	C31.252455,105.169823 31.005854,105.277405 30.759251,105.384995 
	C31.158463,105.613663 31.557673,105.842331 31.956884,106.070999 
	C30.865353,106.641846 29.806709,107.498032 28.664553,107.629692 
	C28.261505,107.676140 27.654312,105.951477 27.140327,105.035446 
	C28.456068,104.335442 29.771809,103.635437 31.471691,102.972122 
	C31.855833,103.008812 32.015419,103.034653 31.999434,103.113892 
z"/>
<path fill="#F4FAF2" opacity="1.000000" stroke="none" 
	d="
M70.100899,119.908447 
	C70.033012,116.868095 70.379768,113.875031 70.799927,110.449982 
	C71.345657,110.013168 71.817993,110.008331 72.644180,110.001556 
	C73.053787,113.033829 73.109543,116.068062 73.085983,119.550995 
	C72.176300,119.985031 71.345917,119.970375 70.100899,119.908447 
z"/>
<path fill="#F0F8EE" opacity="1.000000" stroke="none" 
	d="
M41.004372,78.607819 
	C40.998379,79.325394 40.876266,79.612106 40.414757,79.944336 
	C38.860504,79.875443 37.522694,79.708626 35.896622,79.505867 
	C38.577763,75.333862 38.953339,75.278908 41.004372,78.607819 
z"/>
<path fill="#D3E9CF" opacity="1.000000" stroke="none" 
	d="
M41.019680,111.577347 
	C39.602303,111.109489 35.954224,114.265335 36.884541,109.224518 
	C39.511707,107.627182 41.249912,107.723595 41.019680,111.577347 
z"/>
<path fill="#F0F8EE" opacity="1.000000" stroke="none" 
	d="
M35.777901,84.042664 
	C36.137428,84.779243 36.143143,85.499825 36.157791,86.580605 
	C35.469849,86.677643 34.772968,86.414474 33.707462,86.073013 
	C33.270985,85.484741 33.203133,84.974770 33.218918,84.214272 
	C34.009731,83.984726 34.716911,84.005699 35.777901,84.042664 
z"/>
<path fill="#F4FAF2" opacity="1.000000" stroke="none" 
	d="
M31.974766,105.810913 
	C31.557673,105.842331 31.158463,105.613663 30.759251,105.384995 
	C31.005854,105.277405 31.252455,105.169823 31.756699,105.046043 
	C32.007111,105.203499 31.999878,105.377159 31.974766,105.810913 
z"/>
<path fill="#F0F8EE" opacity="1.000000" stroke="none" 
	d="
M23.031403,98.768463 
	C22.866129,99.087502 22.704695,99.145744 22.290201,99.156982 
	C22.083677,98.773567 22.233189,98.491821 22.690998,98.134811 
	C22.942625,98.172478 22.988932,98.340080 23.031403,98.768463 
z"/>
<path fill="#E1EFDD" opacity="1.000000" stroke="none" 
	d="
M58.301048,116.876846 
	C58.205563,116.673248 58.312092,116.333954 58.698612,115.950775 
	C58.915508,116.239380 58.756996,116.517471 58.301048,116.876846 
z"/>
<path fill="#F0F8EE" opacity="1.000000" stroke="none" 
	d="
M48.644295,78.119843 
	C48.726425,78.312447 48.622562,78.619133 48.259232,78.945129 
	C48.077457,78.673752 48.230305,78.430252 48.644295,78.119843 
z"/>
<path fill="#D3E9CF" opacity="1.000000" stroke="none" 
	d="
M45.057999,118.593231 
	C42.743042,119.309158 40.123917,120.216949 40.114536,115.871101 
	C40.110703,115.414963 40.360580,115.093155 40.465759,115.083885 
	C42.700668,115.201500 45.447140,114.432816 45.057999,118.593231 
z"/>
<path fill="#D3E9CF" opacity="1.000000" stroke="none" 
	d="
M42.612019,95.119835 
	C41.755371,95.095123 41.259155,95.057076 40.390068,95.012024 
	C40.005680,93.929840 39.994164,92.854652 39.980766,91.375328 
	C41.053616,90.985970 42.128349,91.000755 43.606510,91.008972 
	C44.289646,91.229347 44.569355,91.456306 44.955101,91.937790 
	C44.364910,93.163712 43.668678,94.135101 42.612019,95.119835 
z"/>
<path fill="#F4FAF2" opacity="1.000000" stroke="none" 
	d="
M61.822071,102.564240 
	C60.480804,102.983528 59.169865,102.963669 57.464996,102.973686 
	C57.136234,101.372673 56.929096,99.665215 57.358837,98.136826 
	C57.663692,97.052589 58.828526,96.210144 59.609501,95.259773 
	C60.361217,96.239906 61.428635,97.120163 61.778885,98.227295 
	C62.154755,99.415405 61.856483,100.816788 61.822071,102.564240 
z"/>
<path fill="#F0F8EE" opacity="1.000000" stroke="none" 
	d="
M29.660580,117.019058 
	C28.992712,121.946236 25.748898,119.360382 23.178368,120.061127 
	C23.178368,117.765892 23.178368,115.864334 23.178368,113.605385 
	C25.805168,113.509773 29.450155,110.774780 29.660580,117.019058 
z"/>
<path fill="#F0F8EE" opacity="1.000000" stroke="none" 
	d="
M24.123623,79.014168 
	C26.037045,78.926331 27.510876,78.926331 28.900461,78.926331 
	C30.504398,85.652748 30.049057,86.180534 22.660299,85.430939 
	C23.003090,83.311752 23.343563,81.206879 24.123623,79.014168 
z"/>
<path fill="#CFCECD" opacity="1.000000" stroke="none" 
	d="
M165.718689,97.375519 
	C161.468872,96.361137 163.647980,93.492691 163.633331,91.225067 
	C164.695709,91.497826 166.658737,91.736572 166.670532,92.049011 
	C166.734848,93.751526 166.318695,95.472176 165.718689,97.375519 
z"/>
<path fill="#F2F8EF" opacity="1.000000" stroke="none" 
	d="
M65.591866,85.705551 
	C63.710613,85.807259 62.245216,85.807259 60.382774,85.807259 
	C60.382774,83.539383 60.382774,81.524811 60.382774,79.197777 
	C62.334820,79.197777 64.235710,79.197777 67.012062,79.197777 
	C66.665672,81.407181 66.336700,83.505516 65.591866,85.705551 
z"/>
</svg>