<?xml version="1.0" encoding="UTF-8"?>
<svg version="1.1" xmlns="http://www.w3.org/2000/svg" width="512" height="512">
<path d="M0 0 C168.96 0 337.92 0 512 0 C512 168.96 512 337.92 512 512 C343.04 512 174.08 512 0 512 C0 343.04 0 174.08 0 0 Z " fill="#FEFEFE" transform="translate(0,0)"/>
<path d="M0 0 C3.3 0 6.6 0 10 0 C10 6.93 10 13.86 10 21 C2.74 21 -4.52 21 -12 21 C-12 27.93 -12 34.86 -12 42 C-8.37 42 -4.74 42 -1 42 C-1 38.7 -1 35.4 -1 32 C2.63 32 6.26 32 10 32 C10 35.3 10 38.6 10 42 C7 43 7 43 0 43 C0 49.93 0 56.86 0 64 C3.63 64 7.26 64 11 64 C10.98839844 62.56785156 10.97679687 61.13570313 10.96484375 59.66015625 C10.95546745 57.79427213 10.94636708 55.92838661 10.9375 54.0625 C10.92912109 53.11697266 10.92074219 52.17144531 10.91210938 51.19726562 C10.90888672 50.29814453 10.90566406 49.39902344 10.90234375 48.47265625 C10.89710693 47.64000244 10.89187012 46.80734863 10.88647461 45.94946289 C11 44 11 44 12 43 C13.38160115 42.9072167 14.76788038 42.88252957 16.15258789 42.88647461 C17.03342545 42.88655014 17.914263 42.88662567 18.8217926 42.88670349 C19.77907761 42.89186478 20.73636261 42.89702606 21.72265625 42.90234375 C23.18547279 42.90446617 23.18547279 42.90446617 24.67784119 42.90663147 C27.80609143 42.91224867 30.93427123 42.92480407 34.0625 42.9375 C36.17773334 42.94251278 38.29296781 42.94707607 40.40820312 42.95117188 C45.60549607 42.96222369 50.80273608 42.97949984 56 43 C56 46.3 56 49.6 56 53 C52.37 53 48.74 53 45 53 C45 56.63 45 60.26 45 64 C48.63 64 52.26 64 56 64 C56 67.63 56 71.26 56 75 C48.74 75 41.48 75 34 75 C34 78.3 34 81.6 34 85 C33 86 33 86 30.71484375 86.09765625 C28.14322917 86.06510417 25.57161458 86.03255208 23 86 C23 89.3 23 92.6 23 96 C26.3 96 29.6 96 33 96 C32.979375 94.535625 32.95875 93.07125 32.9375 91.5625 C32.91607993 90.04167482 32.92820036 88.51928038 33 87 C34 86 34 86 36.13305664 85.88647461 C37.50772095 85.89432983 37.50772095 85.89432983 38.91015625 85.90234375 C39.800979 85.90484131 40.69180176 85.90733887 41.60961914 85.90991211 C42.74906982 85.91901611 43.88852051 85.92812012 45.0625 85.9375 C50.4765625 85.9684375 50.4765625 85.9684375 56 86 C56 96.56 56 107.12 56 118 C52.37 118 48.74 118 45 118 C45 121.3 45 124.6 45 128 C41.04 128 37.08 128 33 128 C33 121.4 33 114.8 33 108 C29.7 108 26.4 108 23 108 C23 114.93 23 121.86 23 129 C14.50390625 129.09765625 14.50390625 129.09765625 12 129 C11.67 128.67 11.34 128.34 11 128 C11 124.7 11 121.4 11 118 C3.41 118 -4.18 118 -12 118 C-12 121.3 -12 124.6 -12 128 C-19.59 128 -27.18 128 -35 128 C-35 121.07 -35 114.14 -35 107 C-31.37 107 -27.74 107 -24 107 C-24 110.3 -24 113.6 -24 117 C-20.04 117 -16.08 117 -12 117 C-12 113.7 -12 110.4 -12 107 C-15.63 107 -19.26 107 -23 107 C-23 103.37 -23 99.74 -23 96 C-19.37 96 -15.74 96 -12 96 C-12 89.07 -12 82.14 -12 75 C-23.55 75 -35.1 75 -47 75 C-47 78.3 -47 81.6 -47 85 C-50.63 85 -54.26 85 -58 85 C-58.29296875 78.1640625 -58.29296875 78.1640625 -58 76 C-54.91111478 73.94074319 -54.29064073 73.7609626 -50.8125 73.875 C-49.554375 73.91625 -48.29625 73.9575 -47 74 C-47 71.03 -47 68.06 -47 65 C-58.385 64.505 -58.385 64.505 -70 64 C-70 54 -70 54 -69 53 C-65.3308423 52.85689713 -61.67284559 52.95778338 -58 53 C-58 49.37 -58 45.74 -58 42 C-46.78 42 -35.56 42 -24 42 C-24 38.7 -24 35.4 -24 32 C-27.63 32 -31.26 32 -35 32 C-35 28.7 -35 25.4 -35 22 C-31.37 21.67 -27.74 21.34 -24 21 C-23.67 17.7 -23.34 14.4 -23 11 C-15.41 11 -7.82 11 0 11 C0 7.37 0 3.74 0 0 Z " fill="#CBE8C9" transform="translate(129,198)"/>
<path d="M0 0 C3.63 0 7.26 0 11 0 C11 3.63 11 7.26 11 11 C18.59 11 26.18 11 34 11 C34 14.63 34 18.26 34 22 C37.63 22 41.26 22 45 22 C45 25.3 45 28.6 45 32 C41.37 32 37.74 32 34 32 C34.01160156 33.10859375 34.02320313 34.2171875 34.03515625 35.359375 C34.04453792 36.82291498 34.05363771 38.28645678 34.0625 39.75 C34.07087891 40.47960937 34.07925781 41.20921875 34.08789062 41.9609375 C34.10423793 45.55734353 33.87886398 48.48454408 33 52 C30.03 52 27.06 52 24 52 C24 49.03 24 46.06 24 43 C16.08 43 8.16 43 0 43 C0 46.3 0 49.6 0 53 C-7.59 53 -15.18 53 -23 53 C-23 46.07 -23 39.14 -23 32 C-19.37 32 -15.74 32 -12 32 C-12 35.3 -12 38.6 -12 42 C-8.04 42 -4.08 42 0 42 C0 38.7 0 35.4 0 32 C-3.63 32 -7.26 32 -11 32 C-11 28.37 -11 24.74 -11 21 C-7.37 21 -3.74 21 0 21 C0 14.07 0 7.14 0 0 Z " fill="#68B86B" transform="translate(117,273)"/>
<path d="M0 0 C12.54 0 25.08 0 38 0 C38 12.54 38 25.08 38 38 C25.46 38 12.92 38 0 38 C0 25.46 0 12.92 0 0 Z " fill="#65B768" transform="translate(48,288)"/>
<path d="M0 0 C12.54 0 25.08 0 38 0 C38 12.54 38 25.08 38 38 C25.46 38 12.92 38 0 38 C0 25.46 0 12.92 0 0 Z " fill="#65B869" transform="translate(48,197)"/>
<path d="M0 0 C12.21 0 24.42 0 37 0 C37 12.21 37 24.42 37 37 C24.79 37 12.58 37 0 37 C0 24.79 0 12.58 0 0 Z " fill="#65B668" transform="translate(148,198)"/>
<path d="M0 0 C3.3 0 6.6 0 10 0 C10 7.92 10 15.84 10 24 C13.3 24 16.6 24 20 24 C20 16.08 20 8.16 20 0 C23.3 0 26.6 0 30 0 C30 19.8 30 39.6 30 60 C26.7 60 23.4 60 20 60 C20 51.09 20 42.18 20 33 C16.7 33 13.4 33 10 33 C10 41.91 10 50.82 10 60 C6.7 60 3.4 60 0 60 C0 40.2 0 20.4 0 0 Z " fill="#111110" transform="translate(294,230)"/>
<path d="M0 0 C19.8 0 39.6 0 60 0 C60 21.12 60 42.24 60 64 C56.37 64 52.74 64 49 64 C49 46.51 49 29.02 49 11 C32.83 11 16.66 11 0 11 C0 7.37 0 3.74 0 0 Z " fill="#6CB970" transform="translate(144,175)"/>
<path d="M0 0 C4.29 0 8.58 0 13 0 C14.94443099 7.19529073 16.1958693 14.46717879 17.4375 21.8125 C17.65559326 23.0924585 17.87368652 24.37241699 18.09838867 25.69116211 C19.3627472 33.14390264 20.61276546 40.5990612 21.8125 48.0625 C21.93616943 48.82216064 22.05983887 49.58182129 22.18725586 50.36450195 C22.70389852 53.64239276 23 56.66890177 23 60 C19.7 60 16.4 60 13 60 C12.67 56.04 12.34 52.08 12 48 C8.37 48 4.74 48 1 48 C0.67 51.96 0.34 55.92 0 60 C-2.97 60 -5.94 60 -9 60 C-8.22235065 52.60054857 -7.23738914 45.24046983 -6.1875 37.875 C-6.01444336 36.65973633 -5.84138672 35.44447266 -5.66308594 34.19238281 C-4.00835761 22.75239615 -2.06373092 11.37247462 0 0 Z " fill="#0B0A0A" transform="translate(396,230)"/>
<path d="M0 0 C3.63 0 7.26 0 11 0 C11 21.12 11 42.24 11 64 C-7.48 64 -25.96 64 -45 64 C-45 60.37 -45 56.74 -45 53 C-30.15 53 -15.3 53 0 53 C0 35.51 0 18.02 0 0 Z " fill="#6AB970" transform="translate(193,285)"/>
<path d="M0 0 C4.29 0 8.58 0 13 0 C14.99956116 10.54322223 16.94833975 21.09418098 18.78979492 31.66625977 C19.0572212 33.19349527 19.32778241 34.72018482 19.60131836 36.24633789 C22.41246614 51.94316131 22.41246614 51.94316131 22 60 C19.03 60 16.06 60 13 60 C12.67 56.04 12.34 52.08 12 48 C8.04 48 4.08 48 0 48 C0.020625 49.423125 0.04125 50.84625 0.0625 52.3125 C0.10581883 55.30149956 -0.03929566 57.11788698 -1 60 C-3.64 60 -6.28 60 -9 60 C-9.22496509 53.95093874 -8.35993245 48.32425853 -7.3125 42.375 C-7.13750977 41.3540625 -6.96251953 40.333125 -6.78222656 39.28125 C-6.40054816 37.05912235 -6.01615537 34.83745963 -5.62939453 32.61621094 C-4.95427586 28.73729015 -4.28692744 24.85708501 -3.62109375 20.9765625 C-2.42022321 13.98330424 -1.21157993 6.99141208 0 0 Z " fill="#090909" transform="translate(338,230)"/>
<path d="M0 0 C3.3 0 6.6 0 10 0 C10 17.16 10 34.32 10 52 C26.17 52 42.34 52 59 52 C59 55.63 59 59.26 59 63 C39.53 63 20.06 63 0 63 C0 42.21 0 21.42 0 0 Z " fill="#66B76B" transform="translate(30,286)"/>
<path d="M0 0 C19.47 0 38.94 0 59 0 C59 3.63 59 7.26 59 11 C42.83 11 26.66 11 10 11 C10 28.16 10 45.32 10 63 C6.7 63 3.4 63 0 63 C0 42.21 0 21.42 0 0 Z " fill="#68B76C" transform="translate(30,175)"/>
<path d="M0 0 C2.97 0 5.94 0 9 0 C9.33 7.59 9.66 15.18 10 23 C10.71027344 21.42347656 11.42054688 19.84695312 12.15234375 18.22265625 C13.08061069 16.16921727 14.00900254 14.11583476 14.9375 12.0625 C15.40607422 11.02158203 15.87464844 9.98066406 16.35742188 8.90820312 C17.0293457 7.42416992 17.0293457 7.42416992 17.71484375 5.91015625 C18.33540649 4.53549194 18.33540649 4.53549194 18.96850586 3.13305664 C20 1 20 1 21 0 C22.51928038 -0.07179964 24.04167482 -0.08392007 25.5625 -0.0625 C26.38878906 -0.05347656 27.21507812 -0.04445312 28.06640625 -0.03515625 C28.70449219 -0.02355469 29.34257812 -0.01195312 30 0 C29.36160191 5.39549356 26.5250572 9.60659733 23.70703125 14.12109375 C20.67200039 19.39704345 20.59590002 23.13542318 22 29 C23.23133684 33.45863098 24.62600686 37.85368594 26.0625 42.25 C26.80995346 44.54474602 27.55110083 46.8415581 28.28515625 49.140625 C28.61394775 50.14641602 28.94273926 51.15220703 29.28149414 52.18847656 C29.98067411 54.92437752 30.14105965 57.19165989 30 60 C27.03 60 24.06 60 21 60 C19.21886133 54.74564092 17.48977369 49.47598573 15.8125 44.1875 C15.46832031 43.10855469 15.12414062 42.02960938 14.76953125 40.91796875 C14 38 14 38 14 34 C13.34 34 12.68 34 12 34 C9.77402286 39.44730992 9.57347501 44.57787577 9.375 50.375 C9.31699219 51.76525391 9.31699219 51.76525391 9.2578125 53.18359375 C9.16412882 55.45542296 9.08100191 57.72768328 9 60 C6.03 60 3.06 60 0 60 C0 40.2 0 20.4 0 0 Z " fill="#080707" transform="translate(259,230)"/>
<path d="M0 0 C19 0 19 0 25 4 C29.64036906 9.73682758 28.55686398 17.0392002 28 24 C26.95615826 28.63677527 24.70080839 31.99309318 21 35 C18 36 18 36 9 36 C9 43.92 9 51.84 9 60 C6.03 60 3.06 60 0 60 C0 40.2 0 20.4 0 0 Z " fill="#0A0909" transform="translate(424,230)"/>
<path d="M0 0 C0.77943466 0.00222061 1.55886932 0.00444122 2.36192322 0.00672913 C3.24276077 0.00680466 4.12359833 0.00688019 5.03112793 0.00695801 C5.98841293 0.01211929 6.94569794 0.01728058 7.93199158 0.02259827 C9.39480812 0.02472069 9.39480812 0.02472069 10.88717651 0.02688599 C14.01542675 0.03250319 17.14360656 0.04505859 20.27183533 0.05775452 C22.38706867 0.0627673 24.50230313 0.06733059 26.61753845 0.07142639 C31.8148314 0.08247821 37.0120714 0.09975436 42.20933533 0.12025452 C42.20933533 3.42025452 42.20933533 6.72025452 42.20933533 10.12025452 C38.57933533 10.12025452 34.94933533 10.12025452 31.20933533 10.12025452 C31.20933533 13.75025452 31.20933533 17.38025452 31.20933533 21.12025452 C34.83933533 21.12025452 38.46933533 21.12025452 42.20933533 21.12025452 C42.20933533 24.42025452 42.20933533 27.72025452 42.20933533 31.12025452 C34.61933533 31.12025452 27.02933533 31.12025452 19.20933533 31.12025452 C19.20933533 24.19025452 19.20933533 17.26025452 19.20933533 10.12025452 C15.24933533 10.12025452 11.28933533 10.12025452 7.20933533 10.12025452 C7.20933533 17.05025452 7.20933533 23.98025452 7.20933533 31.12025452 C0.27933533 31.12025452 -6.65066467 31.12025452 -13.79066467 31.12025452 C-13.79066467 27.82025452 -13.79066467 24.52025452 -13.79066467 21.12025452 C-10.16066467 21.12025452 -6.53066467 21.12025452 -2.79066467 21.12025452 C-2.80806702 18.97203186 -2.80806702 18.97203186 -2.82582092 16.78041077 C-2.83519722 14.91452665 -2.84429759 13.04864113 -2.85316467 11.18275452 C-2.86154358 10.23722717 -2.86992249 9.29169983 -2.8785553 8.31752014 C-2.88177795 7.41839905 -2.88500061 6.51927795 -2.88832092 5.59291077 C-2.89355774 4.76025696 -2.89879456 3.92760315 -2.90419006 3.06971741 C-2.75625706 0.52940556 -2.54516059 0.17092371 0 0 Z " fill="#67B769" transform="translate(142.79066467285156,240.87974548339844)"/>
<path d="M0 0 C8.58 0 17.16 0 26 0 C26 2.97 26 5.94 26 9 C20.72 9 15.44 9 10 9 C10 13.95 10 18.9 10 24 C14.29 24 18.58 24 23 24 C23 26.97 23 29.94 23 33 C18.38 33 13.76 33 9 33 C9 39.27 9 45.54 9 52 C14.61 52 20.22 52 26 52 C26 54.97 26 57.94 26 61 C17.42 61 8.84 61 0 61 C0 40.87 0 20.74 0 0 Z " fill="#0E0E0D" transform="translate(457,230)"/>
<path d="M0 0 C3.3 0 6.6 0 10 0 C10 6.93 10 13.86 10 21 C2.74 21 -4.52 21 -12 21 C-12 27.93 -12 34.86 -12 42 C-15.96 42 -19.92 42 -24 42 C-24 38.7 -24 35.4 -24 32 C-27.63 32 -31.26 32 -35 32 C-35 28.7 -35 25.4 -35 22 C-31.37 21.67 -27.74 21.34 -24 21 C-23.67 17.7 -23.34 14.4 -23 11 C-15.41 11 -7.82 11 0 11 C0 7.37 0 3.74 0 0 Z " fill="#69B86B" transform="translate(129,198)"/>
<path d="M0 0 C9.57 0 19.14 0 29 0 C29 2.97 29 5.94 29 9 C25.7 9 22.4 9 19 9 C19 25.83 19 42.66 19 60 C16.03 60 13.06 60 10 60 C10 43.17 10 26.34 10 9 C6.7 9 3.4 9 0 9 C0 6.03 0 3.06 0 0 Z " fill="#070707" transform="translate(359,230)"/>
<path d="M0 0 C3.63 0 7.26 0 11 0 C11 6.93 11 13.86 11 21 C7.37 21 3.74 21 0 21 C0 24.3 0 27.6 0 31 C-11.22 31 -22.44 31 -34 31 C-34 27.7 -34 24.4 -34 21 C-26.41 21 -18.82 21 -11 21 C-11 17.37 -11 13.74 -11 10 C-7.37 10 -3.74 10 0 10 C0 6.7 0 3.4 0 0 Z " fill="#68B76B" transform="translate(117,241)"/>
<path d="M0 0 C7.26 0 14.52 0 22 0 C22 10.56 22 21.12 22 32 C18.37 32 14.74 32 11 32 C11 35.3 11 38.6 11 42 C7.37 42 3.74 42 0 42 C0 35.4 0 28.8 0 22 C3.63 22 7.26 22 11 22 C11 18.37 11 14.74 11 11 C7.37 10.67 3.74 10.34 0 10 C0 6.7 0 3.4 0 0 Z " fill="#66B769" transform="translate(163,284)"/>
<path d="M0 0 C11.22 0 22.44 0 34 0 C34 3.3 34 6.6 34 10 C26.74 10.33 19.48 10.66 12 11 C11.67 13.97 11.34 16.94 11 20 C3.74 20 -3.52 20 -11 20 C-11 16.7 -11 13.4 -11 10 C-7.37 10 -3.74 10 0 10 C0 6.7 0 3.4 0 0 Z " fill="#68B66A" transform="translate(71,241)"/>
<path d="M0 0 C6.27 0 12.54 0 19 0 C19 6.27 19 12.54 19 19 C12.73 19 6.46 19 0 19 C0 12.73 0 6.46 0 0 Z " fill="#F2F9EF" transform="translate(157,207)"/>
<path d="M0 0 C5.94 0 11.88 0 18 0 C18 6.27 18 12.54 18 19 C12.06 19 6.12 19 0 19 C0 12.73 0 6.46 0 0 Z " fill="#F5FBF2" transform="translate(58,298)"/>
<path d="M0 0 C5.94 0 11.88 0 18 0 C18 6.27 18 12.54 18 19 C12.06 19 6.12 19 0 19 C0 12.73 0 6.46 0 0 Z " fill="#F7FBF4" transform="translate(58,207)"/>
<path d="M0 0 C0.33 0 0.66 0 1 0 C1 2.97 1 5.94 1 9 C2.29212402 8.98952637 3.58424805 8.97905273 4.91552734 8.96826172 C9.69756309 8.93213281 14.47958673 8.90912549 19.26171875 8.89013672 C21.33367947 8.88006288 23.40562593 8.86640334 25.47753906 8.84912109 C28.45120764 8.82493336 31.4246887 8.81353092 34.3984375 8.8046875 C35.32868744 8.79436493 36.25893738 8.78404236 37.21737671 8.77340698 C38.07811798 8.77325592 38.93885925 8.77310486 39.82568359 8.77294922 C40.58513275 8.768508 41.34458191 8.76406677 42.12704468 8.75949097 C44 9 44 9 46 11 C31.48 11.33 16.96 11.66 2 12 C1.67 18.6 1.34 25.2 1 32 C-2.63 32 -6.26 32 -10 32 C-10 25.07 -10 18.14 -10 11 C-6.7 10.67 -3.4 10.34 0 10 C0 6.7 0 3.4 0 0 Z " fill="#E3F4E1" transform="translate(139,230)"/>
<path d="M0 0 C0.33 0 0.66 0 1 0 C1 6.6 1 13.2 1 20 C-2.63 20 -6.26 20 -10 20 C-10 23.63 -10 27.26 -10 31 C-6.37 31 -2.74 31 1 31 C1 34.3 1 37.6 1 41 C-2.96 41 -6.92 41 -11 41 C-11 37.7 -11 34.4 -11 31 C-13.64 31 -16.28 31 -19 31 C-19 30.67 -19 30.34 -19 30 C-17.02 29.67 -15.04 29.34 -13 29 C-12.67 26.36 -12.34 23.72 -12 21 C-15.3 20.67 -18.6 20.34 -22 20 C-22.09765625 12.28515625 -22.09765625 12.28515625 -22 10 C-21 9 -21 9 -18.71484375 8.90234375 C-17.34005859 8.91974609 -17.34005859 8.91974609 -15.9375 8.9375 C-15.01839844 8.94652344 -14.09929687 8.95554687 -13.15234375 8.96484375 C-12.44207031 8.97644531 -11.73179688 8.98804688 -11 9 C-10.77213542 11.01822917 -10.54427083 13.03645833 -10.31640625 15.0546875 C-10.08707039 17.07404316 -10.08707039 17.07404316 -9 19 C-6.36 19 -3.72 19 -1 19 C-0.67 12.73 -0.34 6.46 0 0 Z " fill="#E2F5DE" transform="translate(116,274)"/>
<path d="M0 0 C2.64 0 5.28 0 8 0 C9 1 9 1 9.09765625 3.06640625 C9.06510417 5.37760417 9.03255208 7.68880208 9 10 C12.96 10 16.92 10 21 10 C21 12.97 21 15.94 21 19 C14.07 19 7.14 19 0 19 C0 12.73 0 6.46 0 0 Z " fill="#62B767" transform="translate(95,306)"/>
<path d="M0 0 C0.99 0 1.98 0 3 0 C3 25.74 3 51.48 3 78 C2.01 78 1.02 78 0 78 C0 52.26 0 26.52 0 0 Z " fill="#76B578" transform="translate(231,224)"/>
<path d="M0 0 C3.63 0 7.26 0 11 0 C11 6.93 11 13.86 11 21 C7.37 21 3.74 21 0 21 C0 14.07 0 7.14 0 0 Z " fill="#FDFEF8" transform="translate(151,251)"/>
<path d="M0 0 C0 6.93 0 13.86 0 21 C-3.63 21 -7.26 21 -11 21 C-11 14.4 -11 7.8 -11 1 C-9 0 -9 0 0 0 Z " fill="#6DB871" transform="translate(59,262)"/>
<path d="M0 0 C12.54 0 25.08 0 38 0 C38 12.54 38 25.08 38 38 C25.46 38 12.92 38 0 38 C0 25.46 0 12.92 0 0 Z M1 2 C1 13.55 1 25.1 1 37 C12.55 37 24.1 37 36 37 C36 25.45 36 13.9 36 2 C24.45 2 12.9 2 1 2 Z " fill="#83BE86" transform="translate(48,288)"/>
<path d="M0 0 C6.93 0 13.86 0 21 0 C21 3.3 21 6.6 21 10 C14.07 10 7.14 10 0 10 C0 6.7 0 3.4 0 0 Z " fill="#FCFDF8" transform="translate(129,273)"/>
<path d="M0 0 C2.5625718 -0.02710123 5.12485365 -0.04688771 7.6875 -0.0625 C8.40873047 -0.07087891 9.12996094 -0.07925781 9.87304688 -0.08789062 C13.71555382 -0.10543632 17.26639526 0.06475779 21 1 C21 3.64 21 6.28 21 9 C16.5621439 10.11165232 12.23043614 10.11527763 7.6875 10.0625 C6.94693359 10.05798828 6.20636719 10.05347656 5.44335938 10.04882812 C3.62887101 10.03712175 1.81442466 10.01918898 0 10 C0 6.7 0 3.4 0 0 Z " fill="#FCFDF9" transform="translate(83,252)"/>
<path d="M0 0 C19.8 0 39.6 0 60 0 C60 3.96 60 7.92 60 12 C59.67 12 59.34 12 59 12 C59 8.37 59 4.74 59 1 C39.53 1 20.06 1 0 1 C0 0.67 0 0.34 0 0 Z M10 12 C26.17 12 42.34 12 59 12 C59 12.33 59 12.66 59 13 C43.49 13.33 27.98 13.66 12 14 C11.67 30.83 11.34 47.66 11 65 C7.37 65 3.74 65 0 65 C0 64.67 0 64.34 0 64 C3.3 64 6.6 64 10 64 C10 46.84 10 29.68 10 12 Z " fill="#DBF1DD" transform="translate(30,174)"/>
<path d="M0 0 C2.64 0 5.28 0 8 0 C9 1 9 1 9.09765625 4.59765625 C9.0909822 6.08596867 9.07902183 7.57426432 9.0625 9.0625 C9.05798828 9.82111328 9.05347656 10.57972656 9.04882812 11.36132812 C9.0370068 13.24091871 9.01907078 15.12046899 9 17 C7 18 7 18 0 18 C0 12.06 0 6.12 0 0 Z " fill="#F6F5F2" transform="translate(433,239)"/>
<path d="M0 0 C1.19799449 4.14659373 0.8896192 7.99369047 0.5625 12.25 C0.51029297 12.99507812 0.45808594 13.74015625 0.40429688 14.5078125 C0.2751783 16.33894861 0.13834886 18.16953813 0 20 C-2.64 20 -5.28 20 -8 20 C-8 13.73 -8 7.46 -8 1 C-5.36 0.67 -2.72 0.34 0 0 Z " fill="#FDFDF8" transform="translate(138,241)"/>
<path d="M0 0 C12.54 0 25.08 0 38 0 C38 12.54 38 25.08 38 38 C37.67 38 37.34 38 37 38 C37 26.12 37 14.24 37 2 C25.12 2.33 13.24 2.66 1 3 C1 14.55 1 26.1 1 38 C0.67 38 0.34 38 0 38 C0 25.46 0 12.92 0 0 Z " fill="#93C795" transform="translate(48,197)"/>
<path d="M0 0 C4.73026595 7.09539892 4.29261152 18.66057173 4 27 C1.36 27 -1.28 27 -4 27 C-2.47469459 2.47469459 -2.47469459 2.47469459 0 0 Z " fill="#EAE8E6" transform="translate(344,243)"/>
<path d="M0 0 C2.66697579 2.66697579 2.4685981 4.37636337 2.8515625 8.1015625 C2.98046875 9.31328125 3.109375 10.525 3.2421875 11.7734375 C3.43167969 13.67996094 3.43167969 13.67996094 3.625 15.625 C3.82609375 17.543125 3.82609375 17.543125 4.03125 19.5 C4.36201973 22.66593888 4.68457756 25.83250128 5 29 C2.36 29 -0.28 29 -3 29 C-3.16356156 22.30079127 -2.57602131 16.0438831 -1.5 9.4375 C-1.35691406 8.52419922 -1.21382813 7.61089844 -1.06640625 6.66992188 C-0.71703202 4.44557264 -0.36148178 2.2224079 0 0 Z " fill="#E0DCDA" transform="translate(402,241)"/>
<path d="M0 0 C2.83203125 0.03255208 5.6640625 0.06510417 8.49609375 0.09765625 C8.49609375 3.72765625 8.49609375 7.35765625 8.49609375 11.09765625 C4.53609375 11.09765625 0.57609375 11.09765625 -3.50390625 11.09765625 C-3.6015625 3.3828125 -3.6015625 3.3828125 -3.50390625 1.09765625 C-2.50390625 0.09765625 -2.50390625 0.09765625 0 0 Z " fill="#E7F5E3" transform="translate(131.50390625,293.90234375)"/>
<path d="M0 0 C0.33 0 0.66 0 1 0 C1 1.65 1 3.3 1 5 C7.93 5 14.86 5 22 5 C22 5.33 22 5.66 22 6 C14.74 6.33 7.48 6.66 0 7 C-0.33 9.97 -0.66 12.94 -1 16 C-4.3 16 -7.6 16 -11 16 C-11 12.7 -11 9.4 -11 6 C-7.7 5.67 -4.4 5.34 -1 5 C-0.67 3.35 -0.34 1.7 0 0 Z " fill="#F6FDF2" transform="translate(163,278)"/>
<path d="M0 0 C2.57161458 0.03255208 5.14322917 0.06510417 7.71484375 0.09765625 C7.71484375 3.72765625 7.71484375 7.35765625 7.71484375 11.09765625 C4.08484375 11.09765625 0.45484375 11.09765625 -3.28515625 11.09765625 C-3.3828125 3.3828125 -3.3828125 3.3828125 -3.28515625 1.09765625 C-2.28515625 0.09765625 -2.28515625 0.09765625 0 0 Z " fill="#74BA76" transform="translate(97.28515625,282.90234375)"/>
<path d="M0 0 C2.57161458 0.03255208 5.14322917 0.06510417 7.71484375 0.09765625 C7.71484375 3.72765625 7.71484375 7.35765625 7.71484375 11.09765625 C4.08484375 11.09765625 0.45484375 11.09765625 -3.28515625 11.09765625 C-3.3828125 3.3828125 -3.3828125 3.3828125 -3.28515625 1.09765625 C-2.28515625 0.09765625 -2.28515625 0.09765625 0 0 Z " fill="#77BD7A" transform="translate(97.28515625,197.90234375)"/>
<path d="M0 0 C8.75 -0.125 8.75 -0.125 11 1 C11 4.3 11 7.6 11 11 C7.37 11 3.74 11 0 11 C0 7.37 0 3.74 0 0 Z " fill="#F7FCF1" transform="translate(163,294)"/>
<path d="M0 0 C3.63 0 7.26 0 11 0 C11 3.3 11 6.6 11 10 C7.37 10 3.74 10 0 10 C0 6.7 0 3.4 0 0 Z " fill="#6AB66C" transform="translate(151,273)"/>
<path d="M0 0 C3.63 0 7.26 0 11 0 C11 3.3 11 6.6 11 10 C7.37 10 3.74 10 0 10 C0 6.7 0 3.4 0 0 Z " fill="#6EB76F" transform="translate(128,230)"/>
<path d="M0 0 C2.57161458 0.03255208 5.14322917 0.06510417 7.71484375 0.09765625 C7.71484375 3.39765625 7.71484375 6.69765625 7.71484375 10.09765625 C4.08484375 10.09765625 0.45484375 10.09765625 -3.28515625 10.09765625 C-3.3828125 3.1640625 -3.3828125 3.1640625 -3.28515625 1.09765625 C-2.28515625 0.09765625 -2.28515625 0.09765625 0 0 Z " fill="#6DB66F" transform="translate(74.28515625,272.90234375)"/>
<path d="M0 0 C2.57161458 0.03255208 5.14322917 0.06510417 7.71484375 0.09765625 C7.71484375 3.39765625 7.71484375 6.69765625 7.71484375 10.09765625 C4.08484375 10.09765625 0.45484375 10.09765625 -3.28515625 10.09765625 C-3.3828125 3.1640625 -3.3828125 3.1640625 -3.28515625 1.09765625 C-2.28515625 0.09765625 -2.28515625 0.09765625 0 0 Z " fill="#6FB773" transform="translate(51.28515625,240.90234375)"/>
<path d="M0 0 C0.33 0 0.66 0 1 0 C1 19.8 1 39.6 1 60 C3.97 60 6.94 60 10 60 C10 53.4 10 46.8 10 40 C10.33 40 10.66 40 11 40 C11.19590444 43.47874757 11.38031592 46.95800904 11.5625 50.4375 C11.61857422 51.43072266 11.67464844 52.42394531 11.73242188 53.44726562 C11.78076172 54.39150391 11.82910156 55.33574219 11.87890625 56.30859375 C11.9260376 57.18314209 11.97316895 58.05769043 12.02172852 58.95874023 C12 61 12 61 11 62 C9.14712498 62.07226502 7.29166122 62.0838122 5.4375 62.0625 C4.42558594 62.05347656 3.41367187 62.04445313 2.37109375 62.03515625 C1.19740234 62.01775391 1.19740234 62.01775391 0 62 C-1.06927082 58.79218754 -1.08634483 56.61063601 -1.02172852 53.2434082 C-1.00163223 52.06241043 -0.98153595 50.88141266 -0.96083069 49.66462708 C-0.93379562 48.38955795 -0.90676056 47.11448883 -0.87890625 45.80078125 C-0.85529526 44.49545944 -0.83168427 43.19013763 -0.80735779 41.84526062 C-0.74458225 38.37802271 -0.67549728 34.91093812 -0.60510254 31.44384766 C-0.53435999 27.90469331 -0.46957849 24.36543042 -0.40429688 20.82617188 C-0.2753688 13.88399661 -0.13977559 6.94196509 0 0 Z " fill="#CFCDC9" transform="translate(258,230)"/>
<path d="M0 0 C0.33 0 0.66 0 1 0 C1 6.93 1 13.86 1 21 C12.22 21 23.44 21 35 21 C35 21.33 35 21.66 35 22 C27.74 22 20.48 22 13 22 C13 25.3 13 28.6 13 32 C12.67 32 12.34 32 12 32 C12 28.7 12 25.4 12 22 C8.37 22 4.74 22 1 22 C1 25.3 1 28.6 1 32 C0.67 32 0.34 32 0 32 C0 28.7 0 25.4 0 22 C-6.93 22 -13.86 22 -21 22 C-21 21.67 -21 21.34 -21 21 C-14.07 21 -7.14 21 0 21 C0 14.07 0 7.14 0 0 Z " fill="#BEE0BC" transform="translate(150,251)"/>
<path d="M0 0 C3.3 0 6.6 0 10 0 C10 2.97 10 5.94 10 9 C6.7 9 3.4 9 0 9 C0 6.03 0 3.06 0 0 Z " fill="#FAFDF4" transform="translate(118,263)"/>
<path d="M0 0 C3.3 0 6.6 0 10 0 C10 2.97 10 5.94 10 9 C3.06640625 9.09765625 3.06640625 9.09765625 1 9 C0 8 0 8 -0.09765625 6.15234375 C-0.06510417 4.1015625 -0.03255208 2.05078125 0 0 Z " fill="#FCFDF7" transform="translate(106,306)"/>
<path d="M0 0 C3.46679688 0.04882812 3.46679688 0.04882812 6.93359375 0.09765625 C6.93359375 3.06765625 6.93359375 6.03765625 6.93359375 9.09765625 C3.96359375 9.09765625 0.99359375 9.09765625 -2.06640625 9.09765625 C-2.9453125 2.9453125 -2.9453125 2.9453125 -3.06640625 1.09765625 C-2.06640625 0.09765625 -2.06640625 0.09765625 0 0 Z " fill="#FBFDF6" transform="translate(109.06640625,240.90234375)"/>
<path d="M0 0 C0.33 0 0.66 0 1 0 C1 3.63 1 7.26 1 11 C-6.59 11 -14.18 11 -22 11 C-22 14.3 -22 17.6 -22 21 C-23 22 -23 22 -25.28515625 22.09765625 C-26.65994141 22.08025391 -26.65994141 22.08025391 -28.0625 22.0625 C-28.98160156 22.05347656 -29.90070313 22.04445312 -30.84765625 22.03515625 C-31.55792969 22.02355469 -32.26820312 22.01195312 -33 22 C-33 21.67 -33 21.34 -33 21 C-30.03 21 -27.06 21 -24 21 C-24.33 18.36 -24.66 15.72 -25 13 C-27.97 12.505 -27.97 12.505 -31 12 C-31 11.67 -31 11.34 -31 11 C-28.36 11 -25.72 11 -23 11 C-23 7.7 -23 4.4 -23 1 C-22.67 1 -22.34 1 -22 1 C-22 3.97 -22 6.94 -22 10 C-14.74 10 -7.48 10 0 10 C0 6.7 0 3.4 0 0 Z " fill="#C9E6C6" transform="translate(128,198)"/>
<path d="M0 0 C3.63 0 7.26 0 11 0 C11 6.93 11 13.86 11 21 C10.67 21 10.34 21 10 21 C10 14.73 10 8.46 10 2 C7.36 2.33 4.72 2.66 2 3 C1.67 8.61 1.34 14.22 1 20 C1.99 20.33 2.98 20.66 4 21 C2.68 21 1.36 21 0 21 C0 14.07 0 7.14 0 0 Z " fill="#ECFAE5" transform="translate(151,251)"/>
<path d="M0 0 C0.33 0 0.66 0 1 0 C1 7.26 1 14.52 1 22 C-2.63 22 -6.26 22 -10 22 C-11 21 -11 21 -11.09765625 18.71484375 C-11.08605469 17.79832031 -11.07445312 16.88179688 -11.0625 15.9375 C-11.05347656 15.01839844 -11.04445312 14.09929687 -11.03515625 13.15234375 C-11.02355469 12.44207031 -11.01195312 11.73179687 -11 11 C-10.67 11 -10.34 11 -10 11 C-10 13.97 -10 16.94 -10 20 C-7.03 20 -4.06 20 -1 20 C-0.67 13.4 -0.34 6.8 0 0 Z " fill="#94C896" transform="translate(151,305)"/>
<path d="M0 0 C7.26 0 14.52 0 22 0 C22 0.33 22 0.66 22 1 C12.595 1.495 12.595 1.495 3 2 C2.31456857 6.11258859 1.88273813 9.32262138 1.9375 13.375 C1.94652344 14.24898437 1.95554687 15.12296875 1.96484375 16.0234375 C1.97644531 16.67570312 1.98804687 17.32796875 2 18 C1.34 18.33 0.68 18.66 0 19 C0 12.73 0 6.46 0 0 Z " fill="#F5FDEF" transform="translate(117,219)"/>
<path d="M0 0 C3.63 0 7.26 0 11 0 C10.67 0.66 10.34 1.32 10 2 C7.36 2 4.72 2 2 2 C2 4.31 2 6.62 2 9 C4.64 9.33 7.28 9.66 10 10 C10 10.33 10 10.66 10 11 C6.7 11 3.4 11 0 11 C0 7.37 0 3.74 0 0 Z " fill="#E7F8E3" transform="translate(174,251)"/>
<path d="M0 0 C5.61 0 11.22 0 17 0 C12.95976701 2.02011649 9.72621704 2.69874239 5.33984375 3.4375 C2.74944357 3.9179794 2.74944357 3.9179794 0 6 C0 4.02 0 2.04 0 0 Z " fill="#F1F9E9" transform="translate(158,207)"/>
<path d="M0 0 C0.33 0 0.66 0 1 0 C1.33 5.94 1.66 11.88 2 18 C2.66 18.33 3.32 18.66 4 19 C3.03114628 20.68496298 2.03013277 22.35178756 1 24 C0.67 24 0.34 24 0 24 C0 16.08 0 8.16 0 0 Z " fill="#C9C5C2" transform="translate(268,230)"/>
<path d="M0 0 C3.63 0 7.26 0 11 0 C11 0.33 11 0.66 11 1 C8.36 1.33 5.72 1.66 3 2 C2.34 4.64 1.68 7.28 1 10 C0.67 10 0.34 10 0 10 C0 6.7 0 3.4 0 0 Z " fill="#EEF9E9" transform="translate(174,316)"/>
<path d="M0 0 C2 3 2 3 1.625 5.1875 C1.41875 5.785625 1.2125 6.38375 1 7 C0.67 6.67 0.34 6.34 0 6 C-0.33 8.31 -0.66 10.62 -1 13 C-1.33 13 -1.66 13 -2 13 C-2.16682272 8.07872966 -2.24828052 4.49656104 0 0 Z " fill="#A4A19F" transform="translate(344,243)"/>
<path d="M0 0 C2.49505962 2.49505962 2.35948376 3.67328888 2.625 7.125 C2.69976562 8.03507812 2.77453125 8.94515625 2.8515625 9.8828125 C2.92503906 10.93082031 2.92503906 10.93082031 3 12 C0.59546803 9.59546803 0.5488328 8.29299683 0 5 C-0.20625 4.2575 -0.4125 3.515 -0.625 2.75 C-0.74875 2.1725 -0.8725 1.595 -1 1 C-0.67 0.67 -0.34 0.34 0 0 Z " fill="#E6E0DD" transform="translate(344,248)"/>
</svg>
